<svg id="Ebene_1" data-name="Ebene 1" xmlns="http://www.w3.org/2000/svg" viewBox="0 0 48 48"><defs><style>.cls-1{fill:#333;}</style></defs><title>is24_product_48px_radius_search</title><path class="cls-1" d="M35.24,31A1,1,0,0,0,34.76,33c4.1,1,6.24,2.8,6.24,4,0,2.09-6.47,5-17,5S7,39.09,7,37c0-1.2,2.19-3,6.24-4A1,1,0,1,0,12.76,31C8,32.21,5,34.55,5,37c0,4.55,9.79,7,19,7s19-2.45,19-7C43,34.51,40,32.23,35.24,31Z"/><path class="cls-1" d="M23.36,35.77a1,1,0,0,0,1.28,0C25.14,35.35,37,25.37,37,17A12.57,12.57,0,0,0,24,4,12.57,12.57,0,0,0,11,17C11,25.37,22.86,35.35,23.36,35.77ZM24,6c6.48,0,11,4.52,11,11S26.44,31.5,24,33.67C21.56,31.5,13,23.41,13,17S17.52,6,24,6Z"/><path class="cls-1" d="M30,16.67a6,6,0,1,0-6,6A6,6,0,0,0,30,16.67Zm-10,0a4,4,0,1,1,4,4A4,4,0,0,1,20,16.67Z"/></svg>