<svg id="Ebene_1" data-name="Ebene 1" xmlns="http://www.w3.org/2000/svg" viewBox="0 0 48 48"><defs><style>.cls-1{fill:#333;}</style></defs><title>is24_product_48px_moving</title><path class="cls-1" d="M39,11H32V10a4,4,0,0,0-4-4H3A1,1,0,0,0,3,8H28a2,2,0,0,1,2,2V24H5a1,1,0,0,0-1,1V36a2,2,0,0,0,2,2h4.1a5,5,0,0,0,9.8,0H30.1a5,5,0,0,0,9.8,0H44a2,2,0,0,0,2-2V18A7,7,0,0,0,39,11Zm0,2a5,5,0,0,1,5,5v6H32V13ZM15,40a3,3,0,1,1,3-3A3,3,0,0,1,15,40Zm20,0a3,3,0,1,1,3-3A3,3,0,0,1,35,40Zm9-4H39.9a5,5,0,0,0-9.8,0H19.9a5,5,0,0,0-9.8,0H6V26H44Z"/><path class="cls-1" d="M33,30h2a1,1,0,0,0,0-2H33a1,1,0,0,0,0,2Z"/><path class="cls-1" d="M5,14H17a1,1,0,0,0,0-2H5a1,1,0,0,0,0,2Z"/><path class="cls-1" d="M5,20h7a1,1,0,0,0,0-2H5a1,1,0,0,0,0,2Z"/></svg>