<svg id="Ebene_1" data-name="Ebene 1" xmlns="http://www.w3.org/2000/svg" viewBox="0 0 48 48"><defs><style>.cls-1{fill:#333;}</style></defs><title>is24_product_48px_geo_location</title><path class="cls-1" d="M24,5A19,19,0,1,0,43,24,19,19,0,0,0,24,5ZM38,33.67A18.47,18.47,0,0,0,31.81,31,22.71,22.71,0,0,0,33,25h8A16.88,16.88,0,0,1,38,33.67Zm-19.05-1.2a27.79,27.79,0,0,1,10.17,0,33,33,0,0,1-5.09,8A33,33,0,0,1,18.91,32.47ZM24,30a31.4,31.4,0,0,0-5.83.57A20.74,20.74,0,0,1,17,25H31a20.74,20.74,0,0,1-1.13,5.57A31.39,31.39,0,0,0,24,30Zm-17-5h8a22.72,22.72,0,0,0,1.15,6A18.47,18.47,0,0,0,10,33.67,16.88,16.88,0,0,1,7.05,25Zm3-10.67A18.47,18.47,0,0,0,16.19,17,22.71,22.71,0,0,0,15,23h-8A16.88,16.88,0,0,1,10,14.33Zm19.05,1.2A29,29,0,0,1,24,16a29,29,0,0,1-5.09-.47,33,33,0,0,1,5.09-8A33,33,0,0,1,29.09,15.53ZM24,18a31.4,31.4,0,0,0,5.83-.57A20.74,20.74,0,0,1,31,23H17a20.74,20.74,0,0,1,1.13-5.57A31.4,31.4,0,0,0,24,18Zm9,5a22.71,22.71,0,0,0-1.15-6A18.47,18.47,0,0,0,38,14.33a16.88,16.88,0,0,1,3,8.67Zm3.77-10.24A17.31,17.31,0,0,1,31.1,15.1a33.6,33.6,0,0,0-4.75-7.91A17,17,0,0,1,36.72,12.76ZM21.65,7.18A33.6,33.6,0,0,0,16.9,15.1a17.31,17.31,0,0,1-5.62-2.33A17,17,0,0,1,21.65,7.18ZM11.28,35.24A17.3,17.3,0,0,1,16.9,32.9a33.6,33.6,0,0,0,4.75,7.91A17,17,0,0,1,11.28,35.24Zm15.08,5.58A33.6,33.6,0,0,0,31.1,32.9a17.31,17.31,0,0,1,5.62,2.33A17,17,0,0,1,26.35,40.82Z"/></svg>