<svg id="Ebene_1" data-name="Ebene 1" xmlns="http://www.w3.org/2000/svg" viewBox="0 0 48 48"><defs><style>.cls-1{fill:#333;}</style></defs><title>is24_product_48px_owner_plus</title><path class="cls-1" d="M24,27a9,9,0,1,0,9,9A9,9,0,0,0,24,27Zm0,16a7,7,0,1,1,7-7A7,7,0,0,1,24,43Z"/><path class="cls-1" d="M41.5,4.13a1,1,0,0,0-1.37.36L29.5,22.87l-4.45-7.68,5.8-9.67a1,1,0,0,0-1.71-1l-5.23,8.72-5-8.71a1,1,0,0,0-1.73,1L27.27,23H18.58L7.87,4.5a1,1,0,1,0-1.73,1L16.85,24a2,2,0,0,0,1.73,1H29.42a2,2,0,0,0,1.73-1L41.87,5.5A1,1,0,0,0,41.5,4.13Z"/><path class="cls-1" d="M28,35H25V32a1,1,0,0,0-2,0v3H20a1,1,0,0,0,0,2h3v3a1,1,0,0,0,2,0V37h3a1,1,0,0,0,0-2Z"/></svg>