<svg id="Ebene_1" data-name="Ebene 1" xmlns="http://www.w3.org/2000/svg" viewBox="0 0 48 48"><defs><style>.cls-1{fill:#333;}</style></defs><title>is24_product_48px_noise_level</title><path class="cls-1" d="M5.29,15.29a1,1,0,0,0,0,1.41c3.61,3.6,3.61,11,0,14.59a1,1,0,1,0,1.42,1.41c4.39-4.41,4.39-13,0-17.41A1,1,0,0,0,5.29,15.29Z"/><path class="cls-1" d="M11.26,11.33a1,1,0,0,0,.07,1.41A15,15,0,0,1,16,24a15,15,0,0,1-4.67,11.26,1,1,0,1,0,1.34,1.49A17,17,0,0,0,18,24a17,17,0,0,0-5.33-12.74A1,1,0,0,0,11.26,11.33Z"/><path class="cls-1" d="M40.07,9.26A8.92,8.92,0,0,0,33,7,11.22,11.22,0,0,0,23,18.26V19a2,2,0,0,0,2,2h2a2,2,0,0,1,2,2v3a1,1,0,0,1-.46.87,1.06,1.06,0,0,1-1.07,0A1,1,0,0,1,27,26a1,1,0,0,0-2,0,3,3,0,0,0,1.41,2.54,3.05,3.05,0,0,0,3,.12A2.94,2.94,0,0,0,31,26V23a4,4,0,0,0-4-4H25v-.74A9.21,9.21,0,0,1,33.18,9a7,7,0,0,1,5.54,1.7A7.22,7.22,0,0,1,41,16c0,1.92,0,3.59-1.71,5.29C37,23.59,37,25.93,37,28v6c0,2.42-1.31,5-5,5-3.18,0-5-1.82-5-5a1,1,0,0,0-2,0c0,4.25,2.75,7,7,7a6.63,6.63,0,0,0,7-7V28c0-1.92,0-3.59,1.71-5.29C43,20.41,43,18.07,43,16A9.25,9.25,0,0,0,40.07,9.26Z"/></svg>