<svg id="Ebene_1" data-name="Ebene 1" xmlns="http://www.w3.org/2000/svg" viewBox="0 0 48 48"><defs><style>.cls-1{fill:#333;}</style></defs><title>is24_product_48px_immo-rating</title><path class="cls-1" d="M44.51,17.14,25,5.45a2,2,0,0,0-2.06,0L3.49,17.14a1,1,0,1,0,1,1.71L7,17.37V26a1,1,0,1,0,2,0V16.17l15-9,15,9V41H31V32a7,7,0,0,0-7-7,1,1,0,0,0,0,2,5,5,0,0,1,5,5v9H25a1,1,0,0,0,0,2H39a2,2,0,0,0,2-2V17.37l2.49,1.49a1,1,0,1,0,1-1.71Z"/><path class="cls-1" d="M27,17a3,3,0,1,0-3,3A3,3,0,0,0,27,17Zm-4,0a1,1,0,1,1,1,1A1,1,0,0,1,23,17Z"/><path class="cls-1" d="M20.23,35.38l3.86-2.76A2,2,0,0,0,22.93,29H17.77L16,23.65a2.09,2.09,0,0,0-3.89,0L10.33,29H5.17A2,2,0,0,0,4,32.63l3.86,2.76L6.11,40.65a2,2,0,0,0,3.1,2.23L14,39.25l4.84,3.63A2,2,0,0,0,22,40.65ZM14.65,37.2a1,1,0,0,0-1.2,0L8,41.28l2-6a1,1,0,0,0-.37-1.13L5.17,31H11a1,1,0,0,0,.95-.68l2-5.95s.12,0,.13-.05l2,6A1,1,0,0,0,17,31h5.88l-4.46,3.19a1,1,0,0,0-.37,1.13l2,6Z"/></svg>