<svg id="Ebene_1" data-name="Ebene 1" xmlns="http://www.w3.org/2000/svg" viewBox="0 0 48 48"><defs><style>.cls-1{fill:#333;}</style></defs><title>is24_product_48px_legal_advice</title><path class="cls-1" d="M42.86,26.49l-6-10a.84.84,0,0,0-.11-.14A1,1,0,0,0,36,16H25V13.9a5,5,0,1,0-2,0V16H12a1,1,0,0,0-.75.35.85.85,0,0,0-.11.14l-6,10A1,1,0,0,0,5,27v1a7,7,0,0,0,14,0V27a1,1,0,0,0-.14-.51L13.77,18H23V42H16a1,1,0,0,0,0,2H32a1,1,0,0,0,0-2H25V18h9.23l-5.09,8.49A1,1,0,0,0,29,27v1a7,7,0,0,0,14,0V27A1,1,0,0,0,42.86,26.49ZM21,9a3,3,0,1,1,3,3A3,3,0,0,1,21,9Zm-9,9.94L16.23,26H7.77ZM12,33a5,5,0,0,1-5-5H17A5,5,0,0,1,12,33Zm28.23-7H31.77L36,18.94ZM36,33a5,5,0,0,1-5-5H41A5,5,0,0,1,36,33Z"/></svg>