<svg id="Ebene_1" data-name="Ebene 1" xmlns="http://www.w3.org/2000/svg" viewBox="0 0 48 48"><defs><style>.cls-1{fill:#333;}</style></defs><title>is24_product_48px_wheelmap</title><path class="cls-1" d="M39,34H36V19h3a1,1,0,0,0,0-2H14.2l-1.84-7A4,4,0,0,0,8.49,7H5A1,1,0,0,0,5,9H8.49a2,2,0,0,1,1.93,1.49l3.45,13.15A11,11,0,1,0,31.95,33H34v1a2,2,0,0,0,2,2h3a1,1,0,1,0,0-2ZM21,41a9,9,0,1,1,9-9A9,9,0,0,1,21,41ZM31.95,31a11,11,0,0,0-16.33-8.58L14.72,19H34V31Z"/><path class="cls-1" d="M37,37a3,3,0,1,0,3,3A3,3,0,0,0,37,37Zm0,4a1,1,0,1,1,1-1A1,1,0,0,1,37,41Z"/></svg>