<svg id="Ebene_1" data-name="Ebene 1" xmlns="http://www.w3.org/2000/svg" viewBox="0 0 48 48"><defs><style>.cls-1{fill:#333;}</style></defs><title>is24_product_48px_two_family_house</title><path class="cls-1" d="M42.71,19.09l-3.53-8.83A2,2,0,0,0,37.32,9H33V6a1,1,0,0,0-2,0V9H17V6a1,1,0,0,0-2,0V9H10.68a2,2,0,0,0-1.86,1.26L5.29,19.09A4,4,0,0,0,5,20.58V42a1,1,0,0,0,1,1H42a1,1,0,0,0,1-1V20.58A4,4,0,0,0,42.71,19.09ZM10.68,11H37.32l3.2,8h-33ZM17,41H7V21H23v4.08A7,7,0,0,0,17,32Zm12,0H19V32a5,5,0,0,1,10,0Zm12,0H31V32a7,7,0,0,0-6-6.92V21H41Z"/><path class="cls-1" d="M34,34h4a1,1,0,0,0,1-1V27a1,1,0,0,0-1-1H34a1,1,0,0,0-1,1v6A1,1,0,0,0,34,34Zm1-6h2v4H35Z"/><path class="cls-1" d="M14,26H10a1,1,0,0,0-1,1v6a1,1,0,0,0,1,1h4a1,1,0,0,0,1-1V27A1,1,0,0,0,14,26Zm-1,6H11V28h2Z"/><path class="cls-1" d="M26,33v2a1,1,0,0,0,2,0V33a1,1,0,0,0-2,0Z"/></svg>