<svg id="Ebene_1" data-name="Ebene 1" xmlns="http://www.w3.org/2000/svg" viewBox="0 0 48 48"><defs><style>.cls-1{fill:#333;}</style></defs><title>is24_product_48px_solar_potential</title><path class="cls-1" d="M24,15a9,9,0,1,0,9,9A9,9,0,0,0,24,15Zm0,16a7,7,0,1,1,7-7A7,7,0,0,1,24,31Z"/><path class="cls-1" d="M24,13a1,1,0,0,0,1-1V8a1,1,0,0,0-2,0v4A1,1,0,0,0,24,13Z"/><path class="cls-1" d="M40,23H36a1,1,0,0,0,0,2h4a1,1,0,0,0,0-2Z"/><path class="cls-1" d="M24,35a1,1,0,0,0-1,1v4a1,1,0,0,0,2,0V36A1,1,0,0,0,24,35Z"/><path class="cls-1" d="M14.29,32.29l-3,3a1,1,0,1,0,1.41,1.41l3-3a1,1,0,0,0-1.41-1.41Z"/><path class="cls-1" d="M33.71,32.29a1,1,0,0,0-1.41,1.41l3,3a1,1,0,0,0,1.41-1.41Z"/><path class="cls-1" d="M33,16a1,1,0,0,0,.71-.29l3-3a1,1,0,0,0-1.41-1.41l-3,3A1,1,0,0,0,33,16Z"/><path class="cls-1" d="M14.29,15.71a1,1,0,0,0,1.41-1.41l-3-3a1,1,0,0,0-1.41,1.41Z"/><path class="cls-1" d="M13,24a1,1,0,0,0-1-1H8a1,1,0,0,0,0,2h4A1,1,0,0,0,13,24Z"/></svg>