<svg id="Ebene_1" data-name="Ebene 1" xmlns="http://www.w3.org/2000/svg" viewBox="0 0 48 48"><defs><style>.cls-1{fill:#333;}</style></defs><title>is24_product_48px_book_with_euro_sign</title><path class="cls-1" d="M14,22h2a1,1,0,0,0,0-2H14c-4.93,0-8.13,2.58-8.84,7H4a1,1,0,0,0,0,2H5v2H4a1,1,0,0,0,0,2H5.16c.72,4.42,3.91,7,8.84,7h2a1,1,0,0,0,0-2H14c-2.3,0-6-.7-6.81-5H12a1,1,0,0,0,0-2H7V29h5a1,1,0,0,0,0-2H7.19C8,22.7,11.7,22,14,22Z"/><path class="cls-1" d="M43,10H39V3a1,1,0,0,0-1.5-.87L24,9.85,10.5,2.13A1,1,0,0,0,9,3v7H5a2,2,0,0,0-2,2v7a1,1,0,0,0,2,0V12H9v4a1,1,0,0,0,2,0V4.72l12,6.86V39s0,0,0,.06a1.65,1.65,0,0,0,.1.39s0,0,0,.05a1,1,0,0,0,.15.2h0a1,1,0,0,0,.28.19l.08,0A1,1,0,0,0,24,40H43a2,2,0,0,0,2-2V12A2,2,0,0,0,43,10ZM25,11.58,37,4.72v25.7L25,37.28ZM43,38H27.77L38.5,31.87A1,1,0,0,0,39,31V12h4Z"/></svg>