<svg id="Ebene_1" data-name="Ebene 1" xmlns="http://www.w3.org/2000/svg" viewBox="0 0 48 48"><defs><style>.cls-1{fill:#333;}</style></defs><title>is24_product_48px_basement</title><path class="cls-1" d="M27,41H20V34a1,1,0,0,0-1-1H12V26a1,1,0,0,0-1-1H3a1,1,0,0,0,0,2h7v7a1,1,0,0,0,1,1h7v7a1,1,0,0,0,1,1h8a1,1,0,0,0,0-2Z"/><path class="cls-1" d="M36,5H12a2,2,0,0,0-2,2V19.91a1,1,0,0,0,2,0V7H36V42a1,1,0,0,0,2,0V7A2,2,0,0,0,36,5Z"/><path class="cls-1" d="M33,22a1,1,0,0,0-1,1v4a1,1,0,0,0,2,0V23A1,1,0,0,0,33,22Z"/></svg>