<svg id="Ebene_1" data-name="Ebene 1" xmlns="http://www.w3.org/2000/svg" viewBox="0 0 48 48"><defs><style>.cls-1{fill:#333;}</style></defs><title>is24_product_48px_statistics</title><path class="cls-1" d="M11,34h2a2,2,0,0,0,2-2V16a2,2,0,0,0-2-2H11a2,2,0,0,0-2,2V32A2,2,0,0,0,11,34Zm0-18h2V32H11Z"/><path class="cls-1" d="M35,34h2a2,2,0,0,0,2-2V27a2,2,0,0,0-2-2H35a2,2,0,0,0-2,2v5A2,2,0,0,0,35,34Zm0-7h2v5H35Z"/><path class="cls-1" d="M27,34h2a2,2,0,0,0,2-2V12a2,2,0,0,0-2-2H27a2,2,0,0,0-2,2V32A2,2,0,0,0,27,34Zm0-22h2V32H27Z"/><path class="cls-1" d="M19,34h2a2,2,0,0,0,2-2V22a2,2,0,0,0-2-2H19a2,2,0,0,0-2,2V32A2,2,0,0,0,19,34Zm0-12h2V32H19Z"/><path class="cls-1" d="M40,36H8a1,1,0,0,0,0,2H40a1,1,0,0,0,0-2Z"/></svg>