<svg id="Ebene_1" data-name="Ebene 1" xmlns="http://www.w3.org/2000/svg" viewBox="0 0 48 48"><defs><style>.cls-1{fill:#333;}</style></defs><title>is24_product_48px_taxi</title><path class="cls-1" d="M38,23H34.57l-4.83-8.06A4,4,0,0,0,26.3,13H25V11a2,2,0,0,0-2-2H15a2,2,0,0,0-2,2v2A7,7,0,0,0,7.39,16.4L3.57,22.77A4,4,0,0,0,3,24.83V37a2,2,0,0,0,2,2H9.1a5,5,0,0,0,9.8,0H29.1a5,5,0,0,0,9.8,0H43a2,2,0,0,0,2-2V30A7,7,0,0,0,38,23ZM28,16l4.22,7H25V15h1.3A2,2,0,0,1,28,16ZM15,11h8v2H15ZM14,41a3,3,0,1,1,3-3A3,3,0,0,1,14,41Zm20,0a3,3,0,1,1,3-3A3,3,0,0,1,34,41Zm9-4H38.9a5,5,0,0,0-9.8,0H18.9a5,5,0,0,0-9.8,0H5V25H8V23H5.77l3.34-5.57A5,5,0,0,1,13.4,15H23v9a1,1,0,0,0,1,1H38a5,5,0,0,1,5,5Z"/><path class="cls-1" d="M28,27H26a1,1,0,0,0,0,2h2a1,1,0,0,0,0-2Z"/><rect class="cls-1" x="8" y="25" width="3" height="2"/><rect class="cls-1" x="11" y="23" width="3" height="2"/><rect class="cls-1" x="14" y="25" width="3" height="2"/><rect class="cls-1" x="17" y="23" width="3" height="2"/></svg>