<svg id="Ebene_1" data-name="Ebene 1" xmlns="http://www.w3.org/2000/svg" viewBox="0 0 48 48"><defs><style>.cls-1{fill:#333;}</style></defs><title>is24_product_48px_kindergarden_day_care</title><path class="cls-1" d="M33,27a7,7,0,1,0,7,7A7,7,0,0,0,33,27Zm0,12a5,5,0,1,1,5-5A5,5,0,0,1,33,39Z"/><path class="cls-1" d="M16,23H32a1,1,0,0,0,.87-1.5l-8-14a1,1,0,0,0-1.74,0l-8,14A1,1,0,0,0,16,23Zm8-13,6.28,11H17.72Z"/><path class="cls-1" d="M21,27H9a1,1,0,0,0-1,1V40a1,1,0,0,0,1,1H21a1,1,0,0,0,1-1V28A1,1,0,0,0,21,27ZM20,39H10V29H20Z"/></svg>