<svg id="Ebene_1" data-name="Ebene 1" xmlns="http://www.w3.org/2000/svg" viewBox="0 0 48 48"><defs><style>.cls-1{fill:#333;}</style></defs><title>is24_product_48px_schools</title><path class="cls-1" d="M42.38,11.08a1,1,0,0,0-1.09.22l-30,30A1,1,0,0,0,12,43H41a2,2,0,0,0,2-2V12A1,1,0,0,0,42.38,11.08ZM41,41H14.41L21,34.41l2.29,2.29a1,1,0,0,0,1.41-1.41L22.41,33,27,28.41l2.29,2.29a1,1,0,0,0,1.41-1.41L28.41,27,33,22.41l2.29,2.29a1,1,0,0,0,1.41-1.41L34.41,21,41,14.41Z"/><path class="cls-1" d="M31.71,11.71A1,1,0,0,0,32,11V5a1,1,0,0,0-1-1H25a1,1,0,0,0-.71.29L4,24.59a2,2,0,0,0,0,2.83L8.59,32a2,2,0,0,0,2.83,0ZM25.41,6H30v4.59l-15,15L10.41,21Zm-20,20L9,22.41,13.59,27,10,30.59Z"/></svg>