<svg id="Ebene_1" data-name="Ebene 1" xmlns="http://www.w3.org/2000/svg" viewBox="0 0 48 48"><defs><style>.cls-1{fill:#333;}</style></defs><title>is24_product_48px_apartment_option</title><path class="cls-1" d="M10,5a5,5,0,1,0,5,5A5,5,0,0,0,10,5Zm0,8a3,3,0,1,1,3-3A3,3,0,0,1,10,13Z"/><path class="cls-1" d="M41,5H23a2,2,0,0,0-2,2v6a2,2,0,0,0,2,2H41a2,2,0,0,0,2-2V7A2,2,0,0,0,41,5ZM23,13V7H41v6Z"/><path class="cls-1" d="M10,19a5,5,0,1,0,5,5A5,5,0,0,0,10,19Zm0,8a3,3,0,1,1,3-3A3,3,0,0,1,10,27Z"/><path class="cls-1" d="M41,19H23a2,2,0,0,0-2,2v6a2,2,0,0,0,2,2H41a2,2,0,0,0,2-2V21A2,2,0,0,0,41,19ZM23,27V21H41v6Z"/><path class="cls-1" d="M10,33a5,5,0,1,0,5,5A5,5,0,0,0,10,33Zm0,8a3,3,0,1,1,3-3A3,3,0,0,1,10,41Z"/><path class="cls-1" d="M41,33H23a2,2,0,0,0-2,2v6a2,2,0,0,0,2,2H41a2,2,0,0,0,2-2V35A2,2,0,0,0,41,33ZM23,41V35H41v6Z"/></svg>