<svg id="Ebene_1" data-name="Ebene 1" xmlns="http://www.w3.org/2000/svg" viewBox="0 0 48 48"><defs><style>.cls-1{fill:#333;}</style></defs><title>is24_product_48px_city_district</title><path class="cls-1" d="M44,11H37V6a1,1,0,0,0-1-1H13a1,1,0,0,0-1,1V23H4a1,1,0,0,0-1,1V42a1,1,0,0,0,2,0V25H17V36a1,1,0,0,0,1,1H35v5a1,1,0,0,0,2,0V36a1,1,0,0,0-1-1H32V13H43V42a1,1,0,0,0,2,0V12A1,1,0,0,0,44,11ZM19,35V31h3a1,1,0,0,0,0-2H19V25h3a1,1,0,0,0,0-2H14V7H35v4H27a1,1,0,0,0,0,2h3v4H27a1,1,0,0,0,0,2h3v4H27a1,1,0,0,0,0,2h3v4H27a1,1,0,0,0,0,2h3v4Z"/><path class="cls-1" d="M22,11H18a1,1,0,0,0,0,2h4a1,1,0,0,0,0-2Z"/><path class="cls-1" d="M22,17H18a1,1,0,0,0,0,2h4a1,1,0,0,0,0-2Z"/><path class="cls-1" d="M14,37H8a1,1,0,0,0-1,1v4a1,1,0,0,0,2,0V39h4v3a1,1,0,0,0,2,0V38A1,1,0,0,0,14,37Z"/><path class="cls-1" d="M14,27H8a1,1,0,0,0-1,1v4a1,1,0,0,0,1,1h6a1,1,0,0,0,1-1V28A1,1,0,0,0,14,27Zm-1,4H9V29h4Z"/><path class="cls-1" d="M22,39H20a1,1,0,0,0,0,2h2a1,1,0,0,0,0-2Z"/><path class="cls-1" d="M30,39H28a1,1,0,0,0,0,2h2a1,1,0,0,0,0-2Z"/><path class="cls-1" d="M39,17H36a1,1,0,0,0,0,2h3a1,1,0,0,0,0-2Z"/><path class="cls-1" d="M39,23H36a1,1,0,0,0,0,2h3a1,1,0,0,0,0-2Z"/><path class="cls-1" d="M39,29H36a1,1,0,0,0,0,2h3a1,1,0,0,0,0-2Z"/><path class="cls-1" d="M8,21a1,1,0,0,0,1-1V16a1,1,0,0,0-2,0v4A1,1,0,0,0,8,21Z"/></svg>