<svg id="Ebene_1" data-name="Ebene 1" xmlns="http://www.w3.org/2000/svg" viewBox="0 0 48 48"><defs><style>.cls-1{fill:#333;}</style></defs><title>is24_product_48px_house_with_loupe</title><path class="cls-1" d="M16,39a8,8,0,1,0-6.31-3.1l-5.4,5.4A1,1,0,1,0,5.7,42.72l5.4-5.4A8,8,0,0,0,16,39Zm0-14a6,6,0,1,1-6,6A6,6,0,0,1,16,25Z"/><path class="cls-1" d="M44.51,17.14,25,5.45a2,2,0,0,0-2.06,0L3.49,17.14a1,1,0,0,0,1,1.71L7,17.37V23a1,1,0,0,0,2,0V16.17l15-9,15,9V41H31V32a7,7,0,0,0-4.59-6.57,1,1,0,0,0-.69,1.88A5,5,0,0,1,29,32v9H16a1,1,0,0,0,0,2H39a2,2,0,0,0,2-2V17.37l2.49,1.49a1,1,0,1,0,1-1.71Z"/><path class="cls-1" d="M24,20a3,3,0,1,0-3-3A3,3,0,0,0,24,20Zm0-4a1,1,0,1,1-1,1A1,1,0,0,1,24,16Z"/></svg>