<svg id="Ebene_1" data-name="Ebene 1" xmlns="http://www.w3.org/2000/svg" viewBox="0 0 48 48"><defs><style>.cls-1{fill:#333;}</style></defs><title>is24_product_48px_immo-ad</title><path class="cls-1" d="M28.51,33.14l-10-6a1,1,0,0,0-1,0l-10,6a1,1,0,1,0,1,1.71L11,33.37V41a2,2,0,0,0,2,2H23a2,2,0,0,0,2-2V33.37l2.49,1.49a1,1,0,1,0,1-1.71ZM23,41H13V32.17l5-3,5,3Z"/><path class="cls-1" d="M40.41,15,31,5.59A2,2,0,0,0,29.59,5H12a1,1,0,0,0-1,1V25a1,1,0,0,0,2,0V7H29v8a2,2,0,0,0,2,2h8V41H30a1,1,0,0,0,0,2H40a1,1,0,0,0,1-1V16.41A2,2,0,0,0,40.41,15ZM31,8.41,37.59,15H31Z"/></svg>