<svg id="Ebene_1" data-name="Ebene 1" xmlns="http://www.w3.org/2000/svg" viewBox="0 0 48 48"><defs><style>.cls-1{fill:#333;}</style></defs><title>is24_product_48px_application_documents</title><path class="cls-1" d="M37,7H19a3,3,0,0,0-6,0H11A2,2,0,0,0,9,9V42a2,2,0,0,0,2,2H37a2,2,0,0,0,2-2V9A2,2,0,0,0,37,7Zm0,35H11V9h2v3a3,3,0,0,0,6,0,1,1,0,0,0-2,0,1,1,0,0,1-2,0V7a1,1,0,0,1,2,0V8a1,1,0,0,0,1,1H37Z"/><path class="cls-1" d="M31,34H17a1,1,0,0,0,0,2H31a1,1,0,0,0,0-2Z"/><path class="cls-1" d="M20.7,22.72A8,8,0,0,0,16,30a1,1,0,0,0,2,0,6,6,0,0,1,12,0,1,1,0,0,0,2,0,8,8,0,0,0-4.7-7.28,5,5,0,1,0-6.61,0ZM24,16a3,3,0,1,1-3,3A3,3,0,0,1,24,16Z"/></svg>