<svg id="Ebene_1" data-name="Ebene 1" xmlns="http://www.w3.org/2000/svg" viewBox="0 0 48 48"><defs><style>.cls-1{fill:#333;}</style></defs><title>is24_product_48px_pedestrian</title><path class="cls-1" d="M27,17a5,5,0,1,0-5-5A5,5,0,0,0,27,17Zm0-8a3,3,0,1,1-3,3A3,3,0,0,1,27,9Z"/><path class="cls-1" d="M31,33.76a1,1,0,0,0-.52-.65l-7.73-3.86,2.25-9A1,1,0,0,0,24,19H17a1,1,0,0,0-1,.76l-2,8a1,1,0,0,0,1.94.48L17.78,21h4.94L19.1,35.49l-5.8,5.8a1,1,0,1,0,1.41,1.41l6-6a1,1,0,0,0,.26-.46l1.25-5,6.92,3.46L31,42.24A1,1,0,0,0,33,41.76Z"/><path class="cls-1" d="M34.45,28.11l-5.59-2.79L28,21.76a1,1,0,0,0-1.94.48l1,4a1,1,0,0,0,.52.65l6,3a1,1,0,1,0,.89-1.79Z"/></svg>