<svg id="Ebene_1" data-name="Ebene 1" xmlns="http://www.w3.org/2000/svg" viewBox="0 0 48 48"><defs><style>.cls-1{fill:#333;}</style></defs><title>is24_product_48px_doctors</title><path class="cls-1" d="M43,22a5,5,0,1,0-6,4.9V36a5,5,0,0,1-5,5H22a5,5,0,0,1-5-5V32.95A11,11,0,0,0,27,22V7a2,2,0,0,0-2-2H21a1,1,0,0,0-2,0V7a1,1,0,0,0,2,0h4V22A9,9,0,0,1,7,22V7h4a1,1,0,0,0,2,0V5a1,1,0,0,0-2,0H7A2,2,0,0,0,5,7V22A11,11,0,0,0,15,32.95V36a7,7,0,0,0,7,7H32a7,7,0,0,0,7-7V26.9A5,5,0,0,0,43,22Zm-5,3a3,3,0,1,1,3-3A3,3,0,0,1,38,25Z"/></svg>