<svg id="Ebene_1" data-name="Ebene 1" xmlns="http://www.w3.org/2000/svg" viewBox="0 0 48 48"><defs><style>.cls-1{fill:#333;}</style></defs><title>is24_product_48px_garden</title><path class="cls-1" d="M44.71,13.29l-6-6a1,1,0,0,0-1.41,1.41L39.59,11,33,17.59V14a7,7,0,0,0-7-7H11a8,8,0,0,0-8,8,8.61,8.61,0,0,0,2.46,5.77L15,30.44V40a1,1,0,0,0,1,1H32a1,1,0,0,0,1-1V20.41l8-8,2.29,2.29a1,1,0,0,0,1.41-1.41ZM31,14V31H17V9h9A5,5,0,0,1,31,14ZM6.92,19.4A6.65,6.65,0,0,1,5,15a6,6,0,0,1,6-6h4V27.59ZM17,39V33H31v6Z"/><path class="cls-1" d="M24,19a1,1,0,0,0,1-1V14a1,1,0,0,0-2,0v4A1,1,0,0,0,24,19Z"/></svg>