<svg id="Ebene_1" data-name="Ebene 1" xmlns="http://www.w3.org/2000/svg" viewBox="0 0 48 48"><defs><style>.cls-1{fill:#333;}</style></defs><title>is24_product_48px_public_transport_option</title><path class="cls-1" d="M42,39H6a1,1,0,0,0,0,2H42a1,1,0,0,0,0-2Z"/><path class="cls-1" d="M36,13H22.41l6-6H33a1,1,0,0,0,0-2H20a1,1,0,0,0,0,2h5.59l-6,6H7a2,2,0,0,0-2,2V33a2,2,0,0,0,2,2H41a2,2,0,0,0,2-2V20A7,7,0,0,0,36,13Zm5,7v5H31V15h5A5,5,0,0,1,41,20ZM23,15V25H16V15ZM7,15h7V25H7V15ZM7,33V27H24a1,1,0,0,0,1-1V15h4V26a1,1,0,0,0,1,1H41v6Z"/></svg>