<svg id="Ebene_1" data-name="Ebene 1" xmlns="http://www.w3.org/2000/svg" viewBox="0 0 48 48"><defs><style>.cls-1{fill:#333;}</style></defs><title>is24_product_48px_semi_detached_house</title><path class="cls-1" d="M42.71,19,39,9.81V6a1,1,0,0,0-2,0V9H28.68a2,2,0,0,0-1.86,1.26l-2.82,7-3-7.5V6a1,1,0,0,0-2,0V9H10a1,1,0,0,0-.93.63L5.29,19A4,4,0,0,0,5,20.53V42a1,1,0,0,0,1,1H42a1,1,0,0,0,1-1V20.53A4,4,0,0,0,42.71,19Zm-14-8h8.65l3.21,8H25.48Zm-18,0h8.65l3.2,8H7.46ZM7,21H23V41H21V31A6,6,0,0,0,9,31V41H7ZM19,41H11V31a4,4,0,0,1,8,0Zm18,0H29V31a4,4,0,0,1,8,0Zm4,0H39V31a6,6,0,0,0-12,0V41H25V21H41Z"/><path class="cls-1" d="M17,32a1,1,0,0,0-1,1v2a1,1,0,0,0,2,0V33A1,1,0,0,0,17,32Z"/><path class="cls-1" d="M35,32a1,1,0,0,0-1,1v2a1,1,0,0,0,2,0V33A1,1,0,0,0,35,32Z"/></svg>