<svg id="Ebene_1" data-name="Ebene 1" xmlns="http://www.w3.org/2000/svg" viewBox="0 0 48 48"><defs><style>.cls-1{fill:#333;}</style></defs><title>is24_product_48px_booklet_folder</title><path class="cls-1" d="M37,11.74a1,1,0,0,0-.15-.32,1,1,0,0,0-.31-.29,1,1,0,0,0-.4-.13H27V4a1,1,0,0,0-1.5-.87l-14,8a1,1,0,0,0-.09.08,1,1,0,0,0-.16.14,1.41,1.41,0,0,0-.19.33,1,1,0,0,0,0,.2A.94.94,0,0,0,11,12V36a1,1,0,0,0,1,1h9v7a1,1,0,0,0,1.5.87l14-8A1,1,0,0,0,37,36V12A1,1,0,0,0,37,11.74ZM25,11H15.77L25,5.72Zm-3.5,8.16A1,1,0,0,0,21,20V35H13V13H32.25ZM35,35.42,23,42.28V20.61l12-6.88Z"/></svg>