<svg id="Ebene_1" data-name="Ebene 1" xmlns="http://www.w3.org/2000/svg" viewBox="0 0 48 48"><defs><style>.cls-1{fill:#333;}</style></defs><title>is24_product_48px_noise_level_option</title><path class="cls-1" d="M24.38,9.08a1,1,0,0,0-1.09.22L15.59,17H6a1,1,0,0,0-1,1V30a1,1,0,0,0,1,1h9.59l7.71,7.71A1,1,0,0,0,25,38V10A1,1,0,0,0,24.38,9.08ZM23,35.59l-6.29-6.29A1,1,0,0,0,16,29H7V19h9a1,1,0,0,0,.71-.29L23,12.41Z"/><path class="cls-1" d="M29.29,15.29a1,1,0,0,0,0,1.41c3.61,3.6,3.61,11,0,14.59a1,1,0,1,0,1.42,1.41c4.39-4.41,4.39-13,0-17.41A1,1,0,0,0,29.29,15.29Z"/><path class="cls-1" d="M36.67,11.26a1,1,0,0,0-1.34,1.49A15,15,0,0,1,40,24a15,15,0,0,1-4.67,11.26,1,1,0,1,0,1.34,1.49A17,17,0,0,0,42,24,17,17,0,0,0,36.67,11.26Z"/></svg>