<svg id="Ebene_1" data-name="Ebene 1" xmlns="http://www.w3.org/2000/svg" viewBox="0 0 48 48"><defs><style>.cls-1{fill:#333;}</style></defs><title>is24_product_48px_smiley_icon_favorite</title><path class="cls-1" d="M19,23a1,1,0,0,0,1-1V18a1,1,0,0,0-2,0v4A1,1,0,0,0,19,23Z"/><path class="cls-1" d="M29,23a1,1,0,0,0,1-1V18a1,1,0,0,0-2,0v4A1,1,0,0,0,29,23Z"/><path class="cls-1" d="M24,5A19,19,0,1,0,43,24,19,19,0,0,0,24,5Zm0,36A17,17,0,1,1,41,24,17,17,0,0,1,24,41Z"/><path class="cls-1" d="M33.41,27.19a1,1,0,0,0-1.32.51,8.69,8.69,0,0,1-8,5.3,8.87,8.87,0,0,1-8.19-5.39,1,1,0,0,0-1.84.78,10.87,10.87,0,0,0,10,6.61,10.66,10.66,0,0,0,9.81-6.49A1,1,0,0,0,33.41,27.19Z"/></svg>