<svg id="Ebene_1" data-name="Ebene 1" xmlns="http://www.w3.org/2000/svg" viewBox="0 0 48 48"><defs><style>.cls-1{fill:#333;}</style></defs><title>is24_product_48px_price_per_squaremeter</title><path class="cls-1" d="M40,35a1,1,0,0,0-1,1v3H36a1,1,0,0,0,0,2h3a2,2,0,0,0,2-2V36A1,1,0,0,0,40,35Z"/><path class="cls-1" d="M39,7H36a1,1,0,0,0,0,2h3v3a1,1,0,0,0,2,0V9A2,2,0,0,0,39,7Z"/><path class="cls-1" d="M8,22a1,1,0,0,0,1-1V18a1,1,0,0,0-2,0v3A1,1,0,0,0,8,22Z"/><path class="cls-1" d="M40,17a1,1,0,0,0-1,1v3a1,1,0,0,0,2,0V18A1,1,0,0,0,40,17Z"/><path class="cls-1" d="M40,26a1,1,0,0,0-1,1v3a1,1,0,0,0,2,0V27A1,1,0,0,0,40,26Z"/><path class="cls-1" d="M30,7H27a1,1,0,0,0,0,2h3a1,1,0,0,0,0-2Z"/><path class="cls-1" d="M21,7H18a1,1,0,0,0,0,2h3a1,1,0,0,0,0-2Z"/><path class="cls-1" d="M30,39H27a1,1,0,0,0,0,2h3a1,1,0,0,0,0-2Z"/><path class="cls-1" d="M8,13a1,1,0,0,0,1-1V9h3a1,1,0,0,0,0-2H9A2,2,0,0,0,7,9v3A1,1,0,0,0,8,13Z"/><path class="cls-1" d="M18,23h2a1,1,0,0,0,0-2H18c-4.93,0-8.13,2.58-8.84,7H8a1,1,0,0,0,0,2H9v2H8a1,1,0,0,0,0,2H9.16c.72,4.42,3.91,7,8.84,7h2a1,1,0,0,0,0-2H18c-2.3,0-6-.7-6.81-5H16a1,1,0,0,0,0-2H11V30h5a1,1,0,0,0,0-2H11.19C12,23.7,15.7,23,18,23Z"/></svg>