<svg id="Ebene_1" data-name="Ebene 1" xmlns="http://www.w3.org/2000/svg" viewBox="0 0 48 48"><defs><style>.cls-1{fill:#333;}</style></defs><title>is24_product_48px_business</title><path class="cls-1" d="M42.57,12.91l-3.4-6.77A2,2,0,0,0,37.38,5H10.62a2,2,0,0,0-1.79,1.1l-3.4,6.77A4,4,0,0,0,5,14.71v.14a5.71,5.71,0,0,0,4,5.48V41a2,2,0,0,0,2,2H37a2,2,0,0,0,2-2V20.33a5.71,5.71,0,0,0,4-5.48v-.14A4,4,0,0,0,42.57,12.91ZM10.62,7H37.38l3,6H7.6ZM32,15a3.5,3.5,0,0,1-7,0Zm-9,0a3.5,3.5,0,0,1-7,0ZM7,15h7a3.5,3.5,0,0,1-3.85,3.48A3.61,3.61,0,0,1,7,15ZM29,41H19V29a2,2,0,0,1,2-2h6a2,2,0,0,1,2,2Zm2,0V29a4,4,0,0,0-4-4H21a4,4,0,0,0-4,4V41H11V20.51a5.43,5.43,0,0,0,4-2.31,5.49,5.49,0,0,0,9,0,5.49,5.49,0,0,0,9,0,5.37,5.37,0,0,0,4,2.3V41Zm6.85-22.47A3.5,3.5,0,0,1,34,15h7A3.61,3.61,0,0,1,37.85,18.53Z"/><path class="cls-1" d="M27,32a1,1,0,0,0-1,1v2a1,1,0,0,0,2,0V33A1,1,0,0,0,27,32Z"/></svg>