<svg id="Ebene_1" data-name="Ebene 1" xmlns="http://www.w3.org/2000/svg" viewBox="0 0 48 48"><defs><style>.cls-1{fill:#333;}</style></defs><title>is24_product_48px_apartment</title><path class="cls-1" d="M41,23H35V7a2,2,0,0,0-2-2H7A2,2,0,0,0,5,7V42a1,1,0,0,0,1,1H42a1,1,0,0,0,1-1V25A2,2,0,0,0,41,23ZM7,7H33V41H7ZM41,41H35V25h6Z"/><path class="cls-1" d="M38,31a1,1,0,0,0,1-1V29a1,1,0,1,0-2,0v1A1,1,0,0,0,38,31Z"/><path class="cls-1" d="M38,37a1,1,0,0,0,1-1V35a1,1,0,1,0-2,0v1A1,1,0,0,0,38,37Z"/><path class="cls-1" d="M17,21H11a1,1,0,0,0-1,1v4a1,1,0,0,0,1,1h6a1,1,0,0,0,1-1V22A1,1,0,0,0,17,21Zm-1,4H12V23h4Z"/><path class="cls-1" d="M29,21H23a1,1,0,0,0-1,1v4a1,1,0,0,0,1,1h6a1,1,0,0,0,1-1V22A1,1,0,0,0,29,21Zm-1,4H24V23h4Z"/><path class="cls-1" d="M17,11H11a1,1,0,0,0-1,1v4a1,1,0,0,0,1,1h6a1,1,0,0,0,1-1V12A1,1,0,0,0,17,11Zm-1,4H12V13h4Z"/><path class="cls-1" d="M29,11H23a1,1,0,0,0-1,1v4a1,1,0,0,0,1,1h6a1,1,0,0,0,1-1V12A1,1,0,0,0,29,11Zm-1,4H24V13h4Z"/><path class="cls-1" d="M17,31H11a1,1,0,0,0-1,1v4a1,1,0,0,0,1,1h6a1,1,0,0,0,1-1V32A1,1,0,0,0,17,31Zm-1,4H12V33h4Z"/><path class="cls-1" d="M29,31H23a1,1,0,0,0-1,1v4a1,1,0,0,0,1,1h6a1,1,0,0,0,1-1V32A1,1,0,0,0,29,31Zm-1,4H24V33h4Z"/></svg>