<svg id="Ebene_1" data-name="Ebene 1" xmlns="http://www.w3.org/2000/svg" viewBox="0 0 48 48"><defs><style>.cls-1{fill:#333;}</style></defs><title>is24_product_48px_home_dwelling</title><path class="cls-1" d="M40,35a1,1,0,0,0-1,1v3H36a1,1,0,0,0,0,2h3a2,2,0,0,0,2-2V36A1,1,0,0,0,40,35Z"/><path class="cls-1" d="M12,39H9V36a1,1,0,0,0-2,0v3a2,2,0,0,0,2,2h3a1,1,0,0,0,0-2Z"/><path class="cls-1" d="M39,7H36a1,1,0,0,0,0,2h3v3a1,1,0,0,0,2,0V9A2,2,0,0,0,39,7Z"/><path class="cls-1" d="M8,22a1,1,0,0,0,1-1V18a1,1,0,0,0-2,0v3A1,1,0,0,0,8,22Z"/><path class="cls-1" d="M8,31a1,1,0,0,0,1-1V27a1,1,0,0,0-2,0v3A1,1,0,0,0,8,31Z"/><path class="cls-1" d="M40,17a1,1,0,0,0-1,1v3a1,1,0,0,0,2,0V18A1,1,0,0,0,40,17Z"/><path class="cls-1" d="M40,26a1,1,0,0,0-1,1v3a1,1,0,0,0,2,0V27A1,1,0,0,0,40,26Z"/><path class="cls-1" d="M30,7H27a1,1,0,0,0,0,2h3a1,1,0,0,0,0-2Z"/><path class="cls-1" d="M21,7H18a1,1,0,0,0,0,2h3a1,1,0,0,0,0-2Z"/><path class="cls-1" d="M30,39H27a1,1,0,0,0,0,2h3a1,1,0,0,0,0-2Z"/><path class="cls-1" d="M21,39H18a1,1,0,0,0,0,2h3a1,1,0,0,0,0-2Z"/><path class="cls-1" d="M12,7H9A2,2,0,0,0,7,9v3a1,1,0,0,0,2,0V9h3a1,1,0,0,0,0-2Z"/></svg>