<svg id="Ebene_1" data-name="Ebene 1" xmlns="http://www.w3.org/2000/svg" viewBox="0 0 48 48"><defs><style>.cls-1{fill:#333;}</style></defs><title>is24_product_48px_bakeries</title><path class="cls-1" d="M39.78,10.48A9.81,9.81,0,0,0,32.26,8,10.07,10.07,0,0,0,24,13.69,10.07,10.07,0,0,0,15.78,8a9.85,9.85,0,0,0-7.53,2.42C6.14,12.4,5,15.35,5,19v1A19,19,0,0,0,24,39h.67c10.1-.34,18.32-9,18.34-19.39V19C43,15.4,41.9,12.45,39.78,10.48ZM7,20V19c0-3.05.91-5.5,2.61-7.07A7.64,7.64,0,0,1,14.89,10l.74,0A8.08,8.08,0,0,1,23,18.32a6.38,6.38,0,0,1-1.94,4.21l-9.3,9.27A16.85,16.85,0,0,1,7,20ZM24.6,37a16.86,16.86,0,0,1-11.37-3.84l9.24-9.21a9,9,0,0,0,1.53-2,9,9,0,0,0,1.53,2L34.6,33A16.48,16.48,0,0,1,24.6,37ZM41,19.59a17.65,17.65,0,0,1-4.95,12.08l-9.11-9.14A6.42,6.42,0,0,1,25,18.24c0-.06,0-.13,0-.19s0-.07,0-.11A8.07,8.07,0,0,1,32.41,10a7.86,7.86,0,0,1,6,1.91C40.12,13.52,41,16,41,19Z"/></svg>