<svg id="Ebene_1" data-name="Ebene 1" xmlns="http://www.w3.org/2000/svg" viewBox="0 0 48 48"><defs><style>.cls-1{fill:#333;}</style></defs><title>is24_product_48px_smiley_icon_maybe</title><path class="cls-1" d="M24,5A19,19,0,1,0,43,24,19,19,0,0,0,24,5Zm0,36A17,17,0,1,1,41,24,17,17,0,0,1,24,41Z"/><path class="cls-1" d="M19,23a1,1,0,0,0,1-1V18a1,1,0,0,0-2,0v4A1,1,0,0,0,19,23Z"/><path class="cls-1" d="M29,23a1,1,0,0,0,1-1V18a1,1,0,0,0-2,0v4A1,1,0,0,0,29,23Z"/><path class="cls-1" d="M33,30H15a1,1,0,0,0,0,2H33a1,1,0,0,0,0-2Z"/></svg>