<svg id="Ebene_1" data-name="Ebene 1" xmlns="http://www.w3.org/2000/svg" viewBox="0 0 48 48"><defs><style>.cls-1{fill:#333;}</style></defs><title>is24_product_48px_ground_floor</title><rect class="cls-1" x="7" y="19.99" width="2" height="5" rx="1" ry="1"/><rect class="cls-1" x="39" y="20.01" width="2" height="5" rx="1" ry="1"/><path class="cls-1" d="M20,9.41a1,1,0,0,0,.51-.14L24,7.17l3.48,2.09a1,1,0,0,0,1-1.71L25,5.45a2,2,0,0,0-2.06,0l-3.51,2.1A1,1,0,0,0,20,9.41Z"/><path class="cls-1" d="M12,14.22a1,1,0,0,0,.51-.14l4-2.4a1,1,0,1,0-1-1.71l-4,2.4A1,1,0,0,0,12,14.22Z"/><path class="cls-1" d="M8.87,15.07a1,1,0,0,0-1.37-.34l-4,2.4a1,1,0,1,0,1,1.71l4-2.4A1,1,0,0,0,8.87,15.07Z"/><path class="cls-1" d="M31.52,11.68l4,2.41a1,1,0,0,0,1-1.71l-4-2.41a1,1,0,0,0-1,1.71Z"/><path class="cls-1" d="M44.52,17.16l-4-2.41a1,1,0,0,0-1,1.71l4,2.41a1,1,0,0,0,1-1.71Z"/><path class="cls-1" d="M40,28.84h0a1,1,0,0,0-1,1V41L9,41V29.82a1,1,0,0,0-1-1H8a1,1,0,0,0-1,1V41a2,2,0,0,0,2,2l30,0h0a2,2,0,0,0,2-2V29.85A1,1,0,0,0,40,28.84Z"/></svg>