<svg id="Ebene_1" data-name="Ebene 1" xmlns="http://www.w3.org/2000/svg" viewBox="0 0 48 48"><defs><style>.cls-1{fill:#333;}</style></defs><title>is24_product_48px_public_transport</title><path class="cls-1" d="M12,39H6a1,1,0,0,0,0,2h6a1,1,0,0,0,0-2Z"/><path class="cls-1" d="M26,39H20a1,1,0,0,0,0,2h6a1,1,0,0,0,0-2Z"/><path class="cls-1" d="M40,39H34a1,1,0,0,0,0,2h6a1,1,0,0,0,0-2Z"/><path class="cls-1" d="M39.81,16.39,32.46,9.05a7,7,0,0,0-5-2.05H6A1,1,0,0,0,5,8V34a1,1,0,0,0,1,1H32.29A10.71,10.71,0,0,0,43,24.29v-.16A10.87,10.87,0,0,0,39.81,16.39Zm-8.76-5.93,7.34,7.34a8.84,8.84,0,0,1,2,3.19H28a5,5,0,0,1-5-5V9h4.51A5,5,0,0,1,31.05,10.46ZM21,9v7a7,7,0,0,0,7,7H40.92A9.16,9.16,0,0,1,41,24.13v.16A8.72,8.72,0,0,1,40.56,27H7V23H9a7,7,0,0,0,7-7V9ZM14,9v7a5,5,0,0,1-5,5H7V9ZM32.29,33H7V29H39.61a8.78,8.78,0,0,1-1.16,1.45A8.65,8.65,0,0,1,32.29,33Z"/></svg>