<svg id="Ebene_1" data-name="Ebene 1" xmlns="http://www.w3.org/2000/svg" viewBox="0 0 48 48"><defs><style>.cls-1{fill:#333;}</style></defs><title>is24_product_48px_single_family_house</title><path class="cls-1" d="M20,33v2a1,1,0,0,0,2,0V33a1,1,0,0,0-2,0Z"/><path class="cls-1" d="M42.71,19.09h0l-3.53-8.83A2,2,0,0,0,37.32,9H33V6a1,1,0,0,0-2,0V9H10.68a2,2,0,0,0-1.86,1.26L5.29,19.09A4,4,0,0,0,5,20.58V42a1,1,0,0,0,1,1H42a1,1,0,0,0,1-1V20.58A4,4,0,0,0,42.71,19.09ZM10.68,11H37.32l3.2,8h-33ZM23,41H13V32a5,5,0,0,1,10,0Zm18,0H25V32a7,7,0,0,0-14,0v9H7V21H41Z"/><path class="cls-1" d="M30,34h6a1,1,0,0,0,1-1V27a1,1,0,0,0-1-1H30a1,1,0,0,0-1,1v6A1,1,0,0,0,30,34Zm1-6h4v4H31Z"/></svg>