<svg id="Ebene_1" data-name="Ebene 1" xmlns="http://www.w3.org/2000/svg" viewBox="0 0 48 48"><defs><style>.cls-1{fill:#333;}</style></defs><title>is24_product_48px_solid_construction</title><path class="cls-1" d="M13.29,37.71a1,1,0,0,0,1.41-1.41L11,32.59V25.41l6.29,6.29A1,1,0,0,0,19,31V13H29v5a1,1,0,0,0,2,0V13h5a1,1,0,0,0,0-2H28.63l-9.9-5.73a2,2,0,0,0-1-.27H10a1,1,0,1,0,0,2h7v4H12.82a3,3,0,0,0-5.63,0H6a1,1,0,0,0,0,2H7.18A3,3,0,0,0,9,14.82V41H6a1,1,0,0,0,0,2h8a1,1,0,0,0,0-2H11V35.41ZM11,15.41l6,6v7.17l-6-6Zm8-7.68L24.64,11H19ZM17,18.59l-4.69-4.69a3,3,0,0,0,.51-.89H17ZM10,11a1,1,0,1,1-1,1A1,1,0,0,1,10,11Z"/><path class="cls-1" d="M41,33H37V27a2,2,0,0,0-2-2H25a2,2,0,0,0-2,2v6H19a2,2,0,0,0-2,2v6a2,2,0,0,0,2,2H29a2,2,0,0,0,1-.28A2,2,0,0,0,31,43H41a2,2,0,0,0,2-2V35A2,2,0,0,0,41,33ZM25,27H35v6H25ZM19,41V35H29v6Zm12,0V35H41v6Z"/></svg>