<svg id="Ebene_1" data-name="Ebene 1" xmlns="http://www.w3.org/2000/svg" viewBox="0 0 48 48"><defs><style>.cls-1{fill:#333;}</style></defs><title>is24_product_48px_attic</title><path class="cls-1" d="M44.51,17.14,25,5.45a2,2,0,0,0-2.06,0L3.49,17.14a1,1,0,0,0,1,1.71L7,17.37V23a1,1,0,0,0,2,0V16.17l15-9,15,9V23a1,1,0,0,0,2,0V17.37l2.49,1.49a1,1,0,1,0,1-1.71Z"/><path class="cls-1" d="M40,37a1,1,0,0,0-1,1v3H36a1,1,0,0,0,0,2h3a2,2,0,0,0,2-2V38A1,1,0,0,0,40,37Z"/><path class="cls-1" d="M12,41H9V38a1,1,0,0,0-2,0v3a2,2,0,0,0,2,2h3a1,1,0,0,0,0-2Z"/><path class="cls-1" d="M8,33a1,1,0,0,0,1-1V29a1,1,0,0,0-2,0v3A1,1,0,0,0,8,33Z"/><path class="cls-1" d="M40,28a1,1,0,0,0-1,1v3a1,1,0,0,0,2,0V29A1,1,0,0,0,40,28Z"/><path class="cls-1" d="M30,41H27a1,1,0,0,0,0,2h3a1,1,0,0,0,0-2Z"/><path class="cls-1" d="M21,41H18a1,1,0,0,0,0,2h3a1,1,0,0,0,0-2Z"/></svg>