<svg id="Ebene_1" data-name="Ebene 1" xmlns="http://www.w3.org/2000/svg" viewBox="0 0 48 48"><defs><style>.cls-1{fill:#333;}</style></defs><title>is24_product_48px_person_with_a_checkmark</title><path class="cls-1" d="M33,17a9,9,0,1,0-13.66,7.69A14.61,14.61,0,0,0,9,39a1,1,0,0,0,2,0A12.71,12.71,0,0,1,24,26,9,9,0,0,0,33,17ZM17,17a7,7,0,1,1,7,7A7,7,0,0,1,17,17Z"/><path class="cls-1" d="M43.71,26.29a1,1,0,0,0-1.41,0L31,37.59l-5.29-5.29a1,1,0,0,0-1.41,1.41l6,6a1,1,0,0,0,1.41,0l12-12A1,1,0,0,0,43.71,26.29Z"/></svg>