<svg id="Ebene_1" data-name="Ebene 1" xmlns="http://www.w3.org/2000/svg" viewBox="0 0 48 48"><defs><style>.cls-1{fill:#333;}</style></defs><title>is24_product_48px_property_developer</title><path class="cls-1" d="M41,11H29.63l-9.9-5.73a2,2,0,0,0-1-.27H11a1,1,0,0,0,0,2h7v4H13.82a3,3,0,0,0-5.63,0H7a1,1,0,0,0,0,2H8.18A3,3,0,0,0,10,14.82V41H7a1,1,0,0,0,0,2H23a1,1,0,0,0,0-2H20V13H33v4.59A2,2,0,0,0,33.59,19L36,21.41V23a2,2,0,0,1-4,0,1,1,0,0,0-2,0,4,4,0,0,0,8,0V21.41A2,2,0,0,0,37.41,20L35,17.59V13h6a1,1,0,0,0,0-2ZM12,25.41l6,6v7.17l-6-6Zm6,3.17-6-6V15.41l6,6ZM11,11a1,1,0,1,1-1,1A1,1,0,0,1,11,11Zm1,24.41L17.59,41H12Zm6-16.83-4.69-4.69a3,3,0,0,0,.51-.89H18ZM20,7.73,25.64,11H20Z"/></svg>