<svg id="Ebene_1" data-name="Ebene 1" xmlns="http://www.w3.org/2000/svg" viewBox="0 0 48 48"><defs><style>.cls-1{fill:#333;}</style></defs><title>is24_product_48px_list_view_compare</title><path class="cls-1" d="M6,9a1,1,0,0,0-1,1v2a1,1,0,0,0,2,0V10A1,1,0,0,0,6,9Z"/><path class="cls-1" d="M28,9a1,1,0,0,0-1,1v2a1,1,0,0,0,2,0V10A1,1,0,0,0,28,9Z"/><path class="cls-1" d="M20,11H11a1,1,0,0,0,0,2h9a1,1,0,0,0,0-2Z"/><path class="cls-1" d="M33,13h9a1,1,0,0,0,0-2H33a1,1,0,0,0,0,2Z"/><path class="cls-1" d="M6,21a1,1,0,0,0-1,1v2a1,1,0,0,0,2,0V22A1,1,0,0,0,6,21Z"/><path class="cls-1" d="M28,21a1,1,0,0,0-1,1v2a1,1,0,0,0,2,0V22A1,1,0,0,0,28,21Z"/><path class="cls-1" d="M20,23H11a1,1,0,0,0,0,2h9a1,1,0,0,0,0-2Z"/><path class="cls-1" d="M42,23H33a1,1,0,0,0,0,2h9a1,1,0,0,0,0-2Z"/><path class="cls-1" d="M6,33a1,1,0,0,0-1,1v2a1,1,0,0,0,2,0V34A1,1,0,0,0,6,33Z"/><path class="cls-1" d="M28,33a1,1,0,0,0-1,1v2a1,1,0,0,0,2,0V34A1,1,0,0,0,28,33Z"/><path class="cls-1" d="M20,35H11a1,1,0,0,0,0,2h9a1,1,0,0,0,0-2Z"/><path class="cls-1" d="M42,35H33a1,1,0,0,0,0,2h9a1,1,0,0,0,0-2Z"/></svg>