<svg id="Ebene_1" data-name="Ebene 1" xmlns="http://www.w3.org/2000/svg" viewBox="0 0 48 48"><defs><style>.cls-1{fill:#333;}</style></defs><title>is24_product_48px_documents_with_plus_symbol</title><path class="cls-1" d="M40.41,15,31,5.59A2,2,0,0,0,29.59,5H12a1,1,0,0,0-1,1V20a1,1,0,0,0,2,0V7H29v8a2,2,0,0,0,2,2h8V41H18a1,1,0,0,0,0,2H40a1,1,0,0,0,1-1V16.41A2,2,0,0,0,40.41,15ZM31,8.41,37.59,15H31Z"/><path class="cls-1" d="M20,35a1,1,0,0,0,0-2H13V26a1,1,0,0,0-2,0v7H4a1,1,0,0,0,0,2h7v7a1,1,0,0,0,2,0V35Z"/></svg>