<svg id="Ebene_1" data-name="Ebene 1" xmlns="http://www.w3.org/2000/svg" viewBox="0 0 48 48"><defs><style>.cls-1{fill:#333;}</style></defs><title>is24_product_48px_internet</title><path class="cls-1" d="M42.65,14.23c-9.41-8.34-27.89-8.33-37.32,0a1,1,0,1,0,1.33,1.5c8.6-7.62,26.09-7.63,34.66,0a1,1,0,0,0,1.33-1.5Z"/><path class="cls-1" d="M11.34,21.25a1,1,0,1,0,1.33,1.5c5.62-5,17.06-5,22.66,0a1,1,0,0,0,1.33-1.5C30.27,15.57,17.73,15.58,11.34,21.25Z"/><path class="cls-1" d="M17.34,28.25a1,1,0,1,0,1.33,1.5c2.65-2.34,8-2.35,10.66,0a1,1,0,0,0,1.33-1.5C27.3,25.26,20.7,25.27,17.34,28.25Z"/><path class="cls-1" d="M24,34a3,3,0,1,0,3,3A3,3,0,0,0,24,34Zm0,4a1,1,0,1,1,1-1A1,1,0,0,1,24,38Z"/></svg>