<svg id="Ebene_1" data-name="Ebene 1" xmlns="http://www.w3.org/2000/svg" viewBox="0 0 48 48"><defs><style>.cls-1{fill:#333;}</style></defs><title>is24_product_48px_maisonette</title><path class="cls-1" d="M38,25H30a1,1,0,0,0,0,2h8a1,1,0,0,0,0-2Z"/><path class="cls-1" d="M30,33H22a1,1,0,0,0,0,2h8a1,1,0,0,0,0-2Z"/><path class="cls-1" d="M22,41H14a1,1,0,0,0,0,2h8a1,1,0,0,0,0-2Z"/><path class="cls-1" d="M42,5H6A1,1,0,0,0,6,7H9V17H6a1,1,0,0,0-1,1V42a1,1,0,0,0,2,0V19H42a1,1,0,0,0,1-1V6A1,1,0,0,0,42,5ZM27,7h6V17H27ZM25,17H19V7h6ZM11,7h6V17H11ZM41,17H35V7h6Z"/></svg>