<svg id="Ebene_1" data-name="Ebene 1" xmlns="http://www.w3.org/2000/svg" viewBox="0 0 48 48"><defs><style>.cls-1{fill:#333;}</style></defs><title>is24_product_48px_balcony</title><path class="cls-1" d="M40,29H29V19H40a1,1,0,0,0,1-1A13,13,0,0,0,28,5h0A13,13,0,0,0,15,18a1,1,0,0,0,1,1H27V29H8a1,1,0,0,0-1,1V41a2,2,0,0,0,2,2H39a2,2,0,0,0,2-2V30A1,1,0,0,0,40,29ZM39,17H33a19.67,19.67,0,0,0-2.72-9.72A11,11,0,0,1,39,17ZM25.76,7.28A19.67,19.67,0,0,0,23,17H17A11,11,0,0,1,25.76,7.28ZM25,17c.2-5.07,1.88-8,3-9.45C29.1,9,30.77,11.93,31,17Zm0,14h6V41H25ZM23,41H17V31h6ZM9,31h6V41H9ZM39,41H33V31h6Z"/><path class="cls-1" d="M10,27h8a1,1,0,0,0,0-2H10a1,1,0,0,0,0,2Z"/></svg>