<svg id="Ebene_1" data-name="Ebene 1" xmlns="http://www.w3.org/2000/svg" viewBox="0 0 48 48"><defs><style>.cls-1{fill:#333;}</style></defs><title>is24_product_48px_find_location</title><path class="cls-1" d="M24,5A14.67,14.67,0,0,0,9,20a1,1,0,0,0,2,0A12.71,12.71,0,0,1,24,7,12.71,12.71,0,0,1,37,20c0,9.42-13.51,21.12-13.65,21.24a1,1,0,1,0,1.3,1.52C25.24,42.26,39,30.34,39,20A14.67,14.67,0,0,0,24,5Z"/><path class="cls-1" d="M26.48,24.34a1,1,0,0,0,1,1.74A7,7,0,1,0,17,20a1,1,0,0,0,2,0,5,5,0,1,1,7.48,4.34Z"/><path class="cls-1" d="M17,23A8,8,0,0,0,10.69,35.9l-5.4,5.4A1,1,0,1,0,6.7,42.72l5.4-5.4A8,8,0,1,0,17,23Zm0,14a6,6,0,1,1,6-6A6,6,0,0,1,17,37Z"/></svg>