<svg id="Ebene_1" data-name="Ebene 1" xmlns="http://www.w3.org/2000/svg" viewBox="0 0 48 48"><defs><style>.cls-1{fill:#333;}</style></defs><title>is24_product_48px_statistics_2.0</title><path class="cls-1" d="M30,9H7a2,2,0,0,0-2,2v2a2,2,0,0,0,2,2H30a2,2,0,0,0,2-2V11A2,2,0,0,0,30,9Zm0,4H7V11H30Z"/><path class="cls-1" d="M25,17H7a2,2,0,0,0-2,2v2a2,2,0,0,0,2,2H25a2,2,0,0,0,2-2V19A2,2,0,0,0,25,17Zm0,4H7V19H25Z"/><path class="cls-1" d="M20,25H7a2,2,0,0,0-2,2v2a2,2,0,0,0,2,2H20a2,2,0,0,0,2-2V27A2,2,0,0,0,20,25Zm0,4H7V27H20Z"/><path class="cls-1" d="M15,33H7a2,2,0,0,0-2,2v2a2,2,0,0,0,2,2h8a2,2,0,0,0,2-2V35A2,2,0,0,0,15,33Zm0,4H7V35h8Z"/><path class="cls-1" d="M38,13h4a1,1,0,0,0,0-2H38a1,1,0,0,0,0,2Z"/><path class="cls-1" d="M42,27H38a1,1,0,0,0,0,2h4a1,1,0,0,0,0-2Z"/><path class="cls-1" d="M42,19H38a1,1,0,0,0,0,2h4a1,1,0,0,0,0-2Z"/><path class="cls-1" d="M42,35H38a1,1,0,0,0,0,2h4a1,1,0,0,0,0-2Z"/></svg>