<svg id="Ebene_1" data-name="Ebene 1" xmlns="http://www.w3.org/2000/svg" viewBox="0 0 48 48"><defs><style>.cls-1{fill:#333;}</style></defs><title>is24_product_48px_household_size</title><path class="cls-1" d="M40,35h0a1,1,0,0,0-1,1v3H37a1,1,0,0,0,0,2h2a2,2,0,0,0,2-2V36A1,1,0,0,0,40,35Z"/><path class="cls-1" d="M40.43,7.6A2,2,0,0,0,39,7H36a1,1,0,0,0,0,2h3v3a1,1,0,0,0,1,1h0a1,1,0,0,0,1-1V9A2,2,0,0,0,40.43,7.6Z"/><rect class="cls-1" x="39" y="17.01" width="2" height="5" rx="1" ry="1"/><rect class="cls-1" x="7" y="17" width="2" height="5" rx="1" ry="1"/><rect class="cls-1" x="39" y="26.01" width="2" height="5" rx="1" ry="1"/><rect class="cls-1" x="7" y="26" width="2" height="5" rx="1" ry="1"/><path class="cls-1" d="M27,9h3a1,1,0,0,0,0-2H27a1,1,0,0,0,0,2Z"/><path class="cls-1" d="M18,9h3a1,1,0,0,0,0-2H18a1,1,0,0,0,0,2Z"/><path class="cls-1" d="M8,13H8a1,1,0,0,0,1-1V9h3a1,1,0,0,0,0-2H9A2,2,0,0,0,7,9v3A1,1,0,0,0,8,13Z"/><path class="cls-1" d="M24,27.71a7,7,0,1,0-8.07,0A13.06,13.06,0,0,0,7,40a1,1,0,0,0,2,0A11.16,11.16,0,0,1,20,29,11.16,11.16,0,0,1,31,40a1,1,0,0,0,2,0A13.06,13.06,0,0,0,24,27.71ZM15,22a5,5,0,1,1,5,5A5,5,0,0,1,15,22Z"/></svg>