<svg id="Ebene_1" data-name="Ebene 1" xmlns="http://www.w3.org/2000/svg" viewBox="0 0 48 48"><defs><style>.cls-1{fill:#333;}</style></defs><title>is24_product_48px_move_out</title><path class="cls-1" d="M44.71,11.29a1,1,0,0,0-1.41,0l-6,6A1,1,0,0,0,37,18V41H11V18a1,1,0,0,0-.29-.71l-6-6a1,1,0,0,0-1.41,1.41L9,18.41V41a2,2,0,0,0,2,2H37a2,2,0,0,0,2-2V18.41l5.71-5.71A1,1,0,0,0,44.71,11.29Z"/><path class="cls-1" d="M18,33a1,1,0,0,0,0,2H30a1,1,0,0,0,0-2Z"/><path class="cls-1" d="M22.59,26a2,2,0,0,0,2.83,0l9.29-9.29a1,1,0,0,0-1.41-1.41L25,23.59V6a1,1,0,0,0-2,0V23.59l-8.29-8.29a1,1,0,0,0-1.41,1.41Z"/></svg>