<svg id="Ebene_1" data-name="Ebene 1" xmlns="http://www.w3.org/2000/svg" viewBox="0 0 48 48"><defs><style>.cls-1{fill:#333;}</style></defs><title>is24_product_48px_apartment_option_2</title><path class="cls-1" d="M43,12a2,2,0,0,1-2-2,1,1,0,0,0-1-1H22a1,1,0,0,0-1,1,2,2,0,0,1-2,2,1,1,0,0,0-1,1v4a1,1,0,0,0,1,1,2,2,0,0,1,2,2,1,1,0,0,0,1,1H40a1,1,0,0,0,1-1,2,2,0,0,1,2-2,1,1,0,0,0,1-1V13A1,1,0,0,0,43,12Zm-1,4.13A4,4,0,0,0,39.13,19H22.87A4,4,0,0,0,20,16.13V13.87A4,4,0,0,0,22.87,11H39.13A4,4,0,0,0,42,13.87Z"/><path class="cls-1" d="M9,10a5,5,0,1,0,5,5A5,5,0,0,0,9,10Zm0,8a3,3,0,1,1,3-3A3,3,0,0,1,9,18Z"/><path class="cls-1" d="M43,30a2,2,0,0,1-2-2,1,1,0,0,0-1-1H22a1,1,0,0,0-1,1,2,2,0,0,1-2,2,1,1,0,0,0-1,1v4a1,1,0,0,0,1,1,2,2,0,0,1,2,2,1,1,0,0,0,1,1H40a1,1,0,0,0,1-1,2,2,0,0,1,2-2,1,1,0,0,0,1-1V31A1,1,0,0,0,43,30Zm-1,4.13A4,4,0,0,0,39.13,37H22.87A4,4,0,0,0,20,34.13V31.87A4,4,0,0,0,22.87,29H39.13A4,4,0,0,0,42,31.87Z"/><path class="cls-1" d="M9,28a5,5,0,1,0,5,5A5,5,0,0,0,9,28Zm0,8a3,3,0,1,1,3-3A3,3,0,0,1,9,36Z"/><path class="cls-1" d="M37,14H25a1,1,0,0,0,0,2H37a1,1,0,0,0,0-2Z"/><path class="cls-1" d="M37,32H25a1,1,0,0,0,0,2H37a1,1,0,0,0,0-2Z"/></svg>