<svg id="Ebene_1" data-name="Ebene 1" xmlns="http://www.w3.org/2000/svg" viewBox="0 0 48 48"><defs><style>.cls-1{fill:#333;}</style></defs><title>is24_product_48px_travel_time</title><path class="cls-1" d="M39,12H36V11a1,1,0,0,0-2,0v1H30V8a2,2,0,0,0-2-2H20a2,2,0,0,0-2,2v4H14V11a1,1,0,1,0-2,0v1H9a4,4,0,0,0-4,4V36a4,4,0,0,0,4,4H39a4,4,0,0,0,4-4V16A4,4,0,0,0,39,12ZM20,8h8v4H20ZM41,36a2,2,0,0,1-2,2H9a2,2,0,0,1-2-2V16a2,2,0,0,1,2-2H39a2,2,0,0,1,2,2Z"/><path class="cls-1" d="M16,18a5,5,0,1,0,5,5A5,5,0,0,0,16,18Zm0,8a3,3,0,1,1,3-3A3,3,0,0,1,16,26Z"/><path class="cls-1" d="M33.71,18.29a1,1,0,0,0-1.41,1.41l4,4a1,1,0,0,0,1.41-1.41Z"/></svg>