<svg id="Ebene_1" data-name="Ebene 1" xmlns="http://www.w3.org/2000/svg" viewBox="0 0 48 48"><defs><style>.cls-1{fill:#333;}</style></defs><title>is24_product_48px_property</title><path class="cls-1" d="M42,22a1,1,0,0,0,0-2H38V16h4a1,1,0,0,0,0-2H38V10a1,1,0,0,0-.29-.71l-4-4a1,1,0,0,0-1.41,0l-4,4A1,1,0,0,0,28,10v4H19V10a1,1,0,0,0-.29-.71l-4-4a1,1,0,0,0-1.41,0l-4,4A1,1,0,0,0,9,10v4H6a1,1,0,0,0,0,2H9v4H6a1,1,0,0,0,0,2H9v6H6a1,1,0,0,0,0,2H9v4H6a1,1,0,0,0,0,2H9v5a2,2,0,0,0,2,2h6a2,2,0,0,0,2-2V36h9v5a2,2,0,0,0,2,2h6a2,2,0,0,0,2-2V36h4a1,1,0,0,0,0-2H38V30h4a1,1,0,0,0,0-2H38V22ZM19,22h9v6H19Zm9-6v4H19V16ZM11,41V10.41l3-3,3,3V15h0v6h0v8h0v6h0v6Zm8-7V30h9v4Zm11,7V10.41l3-3,3,3V15h0v6h0v8h0v6h0v6Z"/><path class="cls-1" d="M14,16a1,1,0,0,0-1,1v2a1,1,0,0,0,2,0V17A1,1,0,0,0,14,16Z"/><path class="cls-1" d="M14,30a1,1,0,0,0-1,1v2a1,1,0,0,0,2,0V31A1,1,0,0,0,14,30Z"/><path class="cls-1" d="M33,16a1,1,0,0,0-1,1v2a1,1,0,0,0,2,0V17A1,1,0,0,0,33,16Z"/><path class="cls-1" d="M33,30a1,1,0,0,0-1,1v2a1,1,0,0,0,2,0V31A1,1,0,0,0,33,30Z"/></svg>