<svg id="Ebene_1" data-name="Ebene 1" xmlns="http://www.w3.org/2000/svg" viewBox="0 0 48 48"><defs><style>.cls-1{fill:#333;}</style></defs><title>is24_product_48px_elevator</title><path class="cls-1" d="M32,5H6A2,2,0,0,0,4,7V41a2,2,0,0,0,2,2H32a2,2,0,0,0,2-2V7A2,2,0,0,0,32,5ZM6,7H18V41H6ZM32,41H20V7H32Z"/><path class="cls-1" d="M37.71,21.71,40,19.41l2.29,2.29a1,1,0,0,0,1.41-1.41l-3-3a1,1,0,0,0-1.41,0l-3,3a1,1,0,0,0,1.41,1.41Z"/><path class="cls-1" d="M42.29,26.29,40,28.59l-2.29-2.29a1,1,0,0,0-1.41,1.41l3,3a1,1,0,0,0,1.41,0l3-3a1,1,0,0,0-1.41-1.41Z"/></svg>