<svg id="Ebene_1" data-name="Ebene 1" xmlns="http://www.w3.org/2000/svg" viewBox="0 0 48 48"><defs><style>.cls-1{fill:#333;}</style></defs><title>is24_product_48px_geo_location</title><path class="cls-1" d="M24,5A14.67,14.67,0,0,0,9,20C9,30.34,22.76,42.26,23.35,42.76a1,1,0,0,0,1.3,0C25.24,42.26,39,30.34,39,20A14.67,14.67,0,0,0,24,5Zm0,35.66C21.28,38.17,11,28.22,11,20A12.71,12.71,0,0,1,24,7,12.71,12.71,0,0,1,37,20C37,28.22,26.72,38.17,24,40.66Z"/><path class="cls-1" d="M24,13a7,7,0,1,0,7,7A7,7,0,0,0,24,13Zm0,12a5,5,0,1,1,5-5A5,5,0,0,1,24,25Z"/></svg>