<svg id="Ebene_1" data-name="Ebene 1" xmlns="http://www.w3.org/2000/svg" viewBox="0 0 48 48"><defs><style>.cls-1{fill:#333;}</style></defs><title>is24_product_48px_car_as24</title><path class="cls-1" d="M38,19H34.57l-4.83-8.06A4,4,0,0,0,26.3,9H13.4a7,7,0,0,0-6,3.4L3.57,18.77A4,4,0,0,0,3,20.83V33a2,2,0,0,0,2,2H9.1a5,5,0,0,0,9.8,0H29.1a5,5,0,0,0,9.8,0H43a2,2,0,0,0,2-2V26A7,7,0,0,0,38,19ZM28,12l4.22,7H25V11h1.3A2,2,0,0,1,28,12ZM9.11,13.43A5,5,0,0,1,13.4,11H19v8H5.77ZM14,37a3,3,0,1,1,3-3A3,3,0,0,1,14,37Zm20,0a3,3,0,1,1,3-3A3,3,0,0,1,34,37Zm9-4H38.9a5,5,0,0,0-9.8,0H18.9a5,5,0,0,0-9.8,0H5V21H20a1,1,0,0,0,1-1V11h2v9a1,1,0,0,0,1,1H38a5,5,0,0,1,5,5Z"/><path class="cls-1" d="M28,23H26a1,1,0,0,0,0,2h2a1,1,0,0,0,0-2Z"/></svg>