<svg id="Ebene_1" data-name="Ebene 1" xmlns="http://www.w3.org/2000/svg" viewBox="0 0 48 48"><defs><style>.cls-1{fill:#333;}</style></defs><title>is24_product_48px_new_building</title><path class="cls-1" d="M41,14H23V6.8a2,2,0,0,0-3.06-1.7h0L6.88,13.27A4,4,0,0,0,5,16.66V42a1,1,0,0,0,1,1H42a1,1,0,0,0,1-1V16A2,2,0,0,0,41,14ZM33,41H23V27H33Zm8,0H35V27a2,2,0,0,0-2-2H23a2,2,0,0,0-2,2V41H7V16.66A2,2,0,0,1,7.94,15L21,6.8V15a1,1,0,0,0,1,1H41Z"/><path class="cls-1" d="M14,16a3,3,0,1,0,3,3A3,3,0,0,0,14,16Zm0,4a1,1,0,1,1,1-1A1,1,0,0,1,14,20Z"/><path class="cls-1" d="M31,36a1,1,0,0,0,1-1V33a1,1,0,0,0-2,0v2A1,1,0,0,0,31,36Z"/></svg>