<svg id="Ebene_1" data-name="Ebene 1" xmlns="http://www.w3.org/2000/svg" viewBox="0 0 48 48"><defs><style>.cls-1{fill:#333;}</style></defs><title>is24_product_48px_statistic_with_arrow_up</title><path class="cls-1" d="M42,39H9a2,2,0,0,1-2-2V8A1,1,0,0,0,5,8V37a4,4,0,0,0,4,4H42a1,1,0,0,0,0-2Z"/><path class="cls-1" d="M11,32a1,1,0,0,0,.71-.29L21,22.41l5.29,5.29a1,1,0,0,0,1.41,0L38,17.41V25a1,1,0,0,0,2,0V16a2,2,0,0,0-2-2H29a1,1,0,0,0,0,2h7.59L27,25.59l-5.29-5.29a1,1,0,0,0-1.41,0l-10,10A1,1,0,0,0,11,32Z"/></svg>