<svg id="Ebene_1" data-name="Ebene 1" xmlns="http://www.w3.org/2000/svg" viewBox="0 0 48 48"><defs><style>.cls-1{fill:#333;}</style></defs><title>is24_product_48px_bicycle_as24</title><path class="cls-1" d="M37,21a8,8,0,0,0-1.67.18l-2-8.18H37a2,2,0,0,1,2,2v2H37a1,1,0,0,0,0,2h2a2,2,0,0,0,2-2V15a4,4,0,0,0-4-4H32a1,1,0,0,0-1,1.24l1.2,4.8A1,1,0,0,0,32,17H19.28l-1-4H20a1,1,0,0,0,0-2H13a1,1,0,0,0,0,2h3.22l1.07,4.29a1,1,0,0,0-.07.11.94.94,0,0,0-.08.09l-2.61,4.35A8,8,0,1,0,19,29h3.76a4,4,0,0,0,2.83-1.17l7.47-7.47.37,1.49A8,8,0,1,0,37,21ZM11,35a6,6,0,1,1,2.5-11.45l-2.36,3.93A1,1,0,0,0,12,29h5A6,6,0,0,1,11,35Zm5.65-8H13.77l1.39-2.32A6,6,0,0,1,16.65,27Zm2.09,0a8,8,0,0,0-2.53-4.06L18,20l1.75,7Zm5.44-.59a2,2,0,0,1-1.41.59h-1l-2-8H31.59ZM37,35a6,6,0,0,1-3.07-11.15L35,28.24A1,1,0,0,0,37,27.76l-1.16-4.64A6,6,0,1,1,37,35Z"/><path class="cls-1" d="M24,31H21a1,1,0,0,0,0,2h3a1,1,0,0,0,0-2Z"/></svg>