<svg id="Ebene_1" data-name="Ebene 1" xmlns="http://www.w3.org/2000/svg" viewBox="0 0 48 48"><defs><style>.cls-1{fill:#333;}</style></defs><title>is24_product_48px_new_apartment_building</title><path class="cls-1" d="M42,17H35V7a2,2,0,0,0-2-2H19a2,2,0,0,0-2,2v4H6a1,1,0,0,0,0,2H17v4H6a1,1,0,0,0-1,1V42a1,1,0,0,0,1,1H42a1,1,0,0,0,1-1V18A1,1,0,0,0,42,17ZM35,27h6v6H35Zm6-8v6H35V19ZM7,27H17v6H7Zm10-8v6H7V19ZM7,35H17v6H7Zm12,6V7H33V41Zm16,0V35h6v6Z"/><path class="cls-1" d="M26,9a3,3,0,1,0,3,3A3,3,0,0,0,26,9Zm0,4a1,1,0,1,1,1-1A1,1,0,0,1,26,13Z"/><path class="cls-1" d="M26,19a3,3,0,1,0,3,3A3,3,0,0,0,26,19Zm0,4a1,1,0,1,1,1-1A1,1,0,0,1,26,23Z"/></svg>