<svg id="Ebene_1" data-name="Ebene 1" xmlns="http://www.w3.org/2000/svg" viewBox="0 0 48 48"><defs><style>.cls-1{fill:#333;}</style></defs><title>is24_product_48px_moving_planner</title><path class="cls-1" d="M36,7H31V5a1,1,0,0,0-1-1H18a1,1,0,0,0-1,1V7H12a3,3,0,0,0-3,3V41a3,3,0,0,0,3,3H36a3,3,0,0,0,3-3V10A3,3,0,0,0,36,7ZM19,6H29v4H19ZM37,41a1,1,0,0,1-1,1H12a1,1,0,0,1-1-1V10a1,1,0,0,1,1-1h5v2a1,1,0,0,0,1,1H30a1,1,0,0,0,1-1V9h5a1,1,0,0,1,1,1Z"/><path class="cls-1" d="M15,17a1,1,0,0,0-1,1v2a1,1,0,0,0,2,0V18A1,1,0,0,0,15,17Z"/><path class="cls-1" d="M15,25a1,1,0,0,0-1,1v2a1,1,0,0,0,2,0V26A1,1,0,0,0,15,25Z"/><path class="cls-1" d="M15,33a1,1,0,0,0-1,1v2a1,1,0,0,0,2,0V34A1,1,0,0,0,15,33Z"/><path class="cls-1" d="M33,18H20a1,1,0,0,0,0,2H33a1,1,0,0,0,0-2Z"/><path class="cls-1" d="M33,26H20a1,1,0,0,0,0,2H33a1,1,0,0,0,0-2Z"/><path class="cls-1" d="M33,34H20a1,1,0,0,0,0,2H33a1,1,0,0,0,0-2Z"/></svg>