<svg id="Ebene_1" data-name="Ebene 1" xmlns="http://www.w3.org/2000/svg" viewBox="0 0 48 48"><defs><style>.cls-1{fill:#333;}</style></defs><title>is24_product_48px_assembled_house</title><path class="cls-1" d="M42.51,28.2,31,21.44a2,2,0,0,0-2,0L17.49,28.2a1,1,0,0,0,1,1.72L21,28.45V32a1,1,0,0,0,2,0V27.28l7-4.12,7,4.12V32a1,1,0,0,0,2,0V28.45l2.49,1.47a1,1,0,0,0,1-1.72Z"/><path class="cls-1" d="M22,41H19V34a1,1,0,0,0-2,0v4.59l-6-6V25.41l2.29,2.29a1,1,0,0,0,1.41-1.41L11,22.59V15.41l6,6V24a1,1,0,0,0,2,0V13H29v5a1,1,0,0,0,2,0V13h5a1,1,0,0,0,0-2H28.63l-9.9-5.73a2,2,0,0,0-1-.27H10a1,1,0,0,0,0,2h7v4H12.82a3,3,0,0,0-5.63,0H6a1,1,0,0,0,0,2H7.18A3,3,0,0,0,9,14.82V41H6a1,1,0,0,0,0,2H22a1,1,0,0,0,0-2ZM19,7.73,24.64,11H19ZM17,18.59l-4.69-4.69a3,3,0,0,0,.51-.89H17ZM10,11a1,1,0,1,1-1,1A1,1,0,0,1,10,11Zm1,24.41L16.59,41H11Z"/></svg>