<svg id="Ebene_1" data-name="Ebene 1" xmlns="http://www.w3.org/2000/svg" viewBox="0 0 48 48"><defs><style>.cls-1{fill:#333;}</style></defs><title>is24_product_48px_house_with_euro_sign</title><path class="cls-1" d="M15,25h2a1,1,0,0,0,0-2H15c-4.93,0-8.13,2.58-8.84,7H5a1,1,0,0,0,0,2H6v2H5a1,1,0,0,0,0,2H6.16c.72,4.42,3.91,7,8.84,7h2a1,1,0,0,0,0-2H15c-2.3,0-6-.7-6.81-5H13a1,1,0,0,0,0-2H8V32h5a1,1,0,0,0,0-2H8.19C9,25.7,12.7,25,15,25Z"/><path class="cls-1" d="M44.51,17.14,25,5.45a2,2,0,0,0-2.06,0L3.49,17.14a1,1,0,0,0,1,1.71L7,17.37V21a1,1,0,0,0,2,0V16.17l15-9,15,9V41H31V32a7,7,0,0,0-9.34-6.6,1,1,0,1,0,.67,1.88A5,5,0,0,1,29,32v9H22a1,1,0,0,0,0,2H39a2,2,0,0,0,2-2V17.37l2.49,1.49a1,1,0,1,0,1-1.71Z"/><path class="cls-1" d="M24,20a3,3,0,1,0-3-3A3,3,0,0,0,24,20Zm0-4a1,1,0,1,1-1,1A1,1,0,0,1,24,16Z"/></svg>