<svg id="Ebene_1" data-name="Ebene 1" xmlns="http://www.w3.org/2000/svg" viewBox="0 0 48 48"><defs><style>.cls-1{fill:#333;}</style></defs><title>is24_product_48px_price_map</title><path class="cls-1" d="M15,25h2a1,1,0,0,0,0-2H15c-4.93,0-8.13,2.58-8.84,7H5a1,1,0,0,0,0,2H6v2H5a1,1,0,0,0,0,2H6.16c.72,4.42,3.91,7,8.84,7h2a1,1,0,0,0,0-2H15c-2.3,0-6-.7-6.81-5H13a1,1,0,0,0,0-2H8V32h5a1,1,0,0,0,0-2H8.19C9,25.7,12.7,25,15,25Z"/><path class="cls-1" d="M43.55,13.17,32.11,5.54a2,2,0,0,0-2.22,0L19,12.8,7.55,5.17A1,1,0,0,0,6,6V21a1,1,0,0,0,2,0V7.87l10,6.67V20a1,1,0,0,0,2,0V14.54L30,7.87v25.6l-8.55,5.7a1,1,0,1,0,1.11,1.66L31,35.2l11.45,7.63A1,1,0,0,0,44,42V14A1,1,0,0,0,43.55,13.17ZM42,40.13,32,33.46V7.87l10,6.67Z"/></svg>