<svg id="Ebene_1" data-name="Ebene 1" xmlns="http://www.w3.org/2000/svg" viewBox="0 0 48 48"><defs><style>.cls-1{fill:#333;}</style></defs><title>additional_icons_48px_chat</title><path class="cls-1" d="M39,5H9A4,4,0,0,0,5,9V31a4,4,0,0,0,4,4h4v7a1,1,0,0,0,1.71.71L22.41,35H39a4,4,0,0,0,4-4V9A4,4,0,0,0,39,5Zm2,26a2,2,0,0,1-2,2H22a1,1,0,0,0-.71.29L15,39.59V34a1,1,0,0,0-1-1H9a2,2,0,0,1-2-2V9A2,2,0,0,1,9,7H39a2,2,0,0,1,2,2Z"/><path class="cls-1" d="M36,15H12a1,1,0,0,0,0,2H36a1,1,0,0,0,0-2Z"/><path class="cls-1" d="M26,23H12a1,1,0,0,0,0,2H26a1,1,0,0,0,0-2Z"/></svg>