<?xml version="1.0" encoding="utf-8"?>
<!-- Generator: Adobe Illustrator 23.0.3, SVG Export Plug-In . SVG Version: 6.00 Build 0)  -->
<svg version="1.1" xmlns="http://www.w3.org/2000/svg" xmlns:xlink="http://www.w3.org/1999/xlink" x="0px" y="0px"
	 viewBox="0 0 48 48" style="enable-background:new 0 0 48 48;" xml:space="preserve">
<style type="text/css">
	
		.st0{fill-rule:evenodd;clip-rule:evenodd;fill:none;stroke:#333333;stroke-width:2;stroke-linecap:round;stroke-linejoin:round;stroke-miterlimit:10;}
	.st1{fill:none;stroke:#333333;stroke-width:2;stroke-linecap:round;stroke-linejoin:round;stroke-miterlimit:10;}
	.st2{fill-rule:evenodd;clip-rule:evenodd;fill:#333333;}
	
		.st3{fill-rule:evenodd;clip-rule:evenodd;fill:none;stroke:#C6C6C6;stroke-width:2;stroke-linecap:round;stroke-linejoin:round;stroke-miterlimit:10;}
	
		.st4{fill-rule:evenodd;clip-rule:evenodd;fill:#333333;stroke:#333333;stroke-width:2;stroke-linecap:round;stroke-linejoin:round;stroke-miterlimit:10;}
	.st5{fill:#333333;}
	.st6{fill:none;stroke:#333333;stroke-width:2;stroke-linecap:round;stroke-linejoin:round;}
</style>
<g id="Icons">
</g>
<g id="Title">
</g>
<g id="Glenda_Icons">
</g>
<g id="Glenda_AS24_Icons">
	<g>
		<path class="st5" d="M39.414,15L30,5.586C29.628,5.214,29.112,5,28.586,5H11c-0.553,0-1,0.447-1,1v36c0,0.553,0.447,1,1,1h28
			c0.553,0,1-0.447,1-1V16.414C40,15.888,39.786,15.372,39.414,15z M36.586,15H30V8.414L36.586,15z M38,41H12V7h16v8
			c0,1.103,0.897,2,2,2h8V41z"/>
		<path class="st5" d="M30,33H15.998c-0.553,0-1,0.447-1,1s0.447,1,1,1H30c0.553,0,1-0.447,1-1S30.553,33,30,33z"/>
		<path class="st5" d="M14.998,22c0,0.553,0.447,1,1,1h17.997c0.553,0,1-0.447,1-1s-0.447-1-1-1H15.998
			C15.445,21,14.998,21.447,14.998,22z"/>
		<path class="st5" d="M15.998,29H25c0.553,0,1-0.447,1-1s-0.447-1-1-1h-9.002c-0.553,0-1,0.447-1,1S15.445,29,15.998,29z"/>
	</g>
</g>
</svg>
