<?xml version="1.0" encoding="utf-8"?>
<!-- Generator: Adobe Illustrator 23.0.3, SVG Export Plug-In . SVG Version: 6.00 Build 0)  -->
<svg version="1.1" xmlns="http://www.w3.org/2000/svg" xmlns:xlink="http://www.w3.org/1999/xlink" x="0px" y="0px"
	 viewBox="0 0 48 48" style="enable-background:new 0 0 48 48;" xml:space="preserve">
<style type="text/css">
	
		.st0{fill-rule:evenodd;clip-rule:evenodd;fill:none;stroke:#333333;stroke-width:2;stroke-linecap:round;stroke-linejoin:round;stroke-miterlimit:10;}
	.st1{fill:none;stroke:#333333;stroke-width:2;stroke-linecap:round;stroke-linejoin:round;stroke-miterlimit:10;}
	.st2{fill-rule:evenodd;clip-rule:evenodd;fill:#333333;}
	
		.st3{fill-rule:evenodd;clip-rule:evenodd;fill:none;stroke:#C6C6C6;stroke-width:2;stroke-linecap:round;stroke-linejoin:round;stroke-miterlimit:10;}
	
		.st4{fill-rule:evenodd;clip-rule:evenodd;fill:#333333;stroke:#333333;stroke-width:2;stroke-linecap:round;stroke-linejoin:round;stroke-miterlimit:10;}
	.st5{fill:#333333;}
	.st6{fill:none;stroke:#333333;stroke-width:2;stroke-linecap:round;stroke-linejoin:round;}
</style>
<g id="Icons">
</g>
<g id="Title">
</g>
<g id="Glenda_Icons">
</g>
<g id="Glenda_AS24_Icons">
	<g>
		<g>
			<path class="st5" d="M15,42.48c-2.429,0-4.858-0.924-6.707-2.773c-3.698-3.698-3.698-9.716,0-13.414l10-10
				c2.045-2.043,5.369-2.043,7.414,0c2.044,2.044,2.044,5.37,0,7.414l-7,7c-0.391,0.391-1.023,0.391-1.414,0s-0.391-1.023,0-1.414
				l7-7c1.265-1.265,1.265-3.321,0-4.586c-1.264-1.264-3.322-1.264-4.586,0l-10,10c-2.918,2.919-2.918,7.667,0,10.586
				c2.918,2.918,7.668,2.918,10.586,0l18-18c2.918-2.919,2.918-7.667,0-10.586c-2.918-2.918-7.668-2.918-10.586,0l-2,2
				c-0.391,0.391-1.023,0.391-1.414,0s-0.391-1.023,0-1.414l2-2c3.697-3.699,9.717-3.699,13.414,0c3.698,3.698,3.698,9.716,0,13.414
				l-18,18C19.858,41.557,17.429,42.48,15,42.48z"/>
		</g>
	</g>
</g>
</svg>
