<svg id="Ebene_1" data-name="Ebene 1" xmlns="http://www.w3.org/2000/svg" viewBox="0 0 48 48"><defs><style>.cls-1{fill:#333;}</style></defs><title>additional_icons_48px_armchair</title><path class="cls-1" d="M39,18V12a7,7,0,0,0-7-7H16a7,7,0,0,0-7,7v6a4,4,0,0,0-4,4V33a7,7,0,0,0,7,7h1v2a1,1,0,0,0,2,0V40H33v2a1,1,0,0,0,2,0V40h1a7,7,0,0,0,7-7V22A4,4,0,0,0,39,18ZM11,12a5,5,0,0,1,5-5H32a5,5,0,0,1,5,5v6a4,4,0,0,0-4,4v3.56A4,4,0,0,0,31,25H17a4,4,0,0,0-2,.56V22a4,4,0,0,0-4-4ZM33,29a2,2,0,0,1-2,2H17a2,2,0,0,1,0-4H31A2,2,0,0,1,33,29Zm8,4a5,5,0,0,1-5,5H12a5,5,0,0,1-5-5V22a2,2,0,0,1,2-2h2a2,2,0,0,1,2,2v7a4,4,0,0,0,4,4H31a4,4,0,0,0,4-4V22a2,2,0,0,1,2-2h2a2,2,0,0,1,2,2Z"/></svg>