<svg id="Ebene_1" data-name="Ebene 1" xmlns="http://www.w3.org/2000/svg" viewBox="0 0 48 48"><defs><style>.cls-1{fill:#333;}</style></defs><title>additional_icons_48px_camera</title><path class="cls-1" d="M36,13H32a1,1,0,0,0,0-.24L31.54,11a4,4,0,0,0-3.88-3H20.34a4,4,0,0,0-3.88,3L16,12.76A1,1,0,0,0,16,13H12a7,7,0,0,0-7,7V36a7,7,0,0,0,7,7H36a7,7,0,0,0,7-7V20A7,7,0,0,0,36,13ZM18.4,11.51A2,2,0,0,1,20.34,10h7.31a2,2,0,0,1,1.94,1.51L30,13H18ZM41,36a5,5,0,0,1-5,5H12a5,5,0,0,1-5-5V20a5,5,0,0,1,5-5H36a5,5,0,0,1,5,5Z"/><path class="cls-1" d="M24,19a9,9,0,1,0,9,9A9,9,0,0,0,24,19Zm0,16a7,7,0,1,1,7-7A7,7,0,0,1,24,35Z"/><path class="cls-1" d="M37,19H35a1,1,0,0,0,0,2h2a1,1,0,0,0,0-2Z"/></svg>