<svg id="Ebene_1" data-name="Ebene 1" xmlns="http://www.w3.org/2000/svg" viewBox="0 0 48 48"><defs><style>.cls-1{fill:#333;}</style></defs><title>additional_icons_48px_picture</title><path class="cls-1" d="M39,7H9a4,4,0,0,0-4,4V37a4,4,0,0,0,4,4H39a4,4,0,0,0,4-4V11A4,4,0,0,0,39,7ZM9,9H39a2,2,0,0,1,2,2V31.59L33.46,24a2,2,0,0,0-2.83,0L26,28.59,17.46,20a2,2,0,0,0-2.83,0L7,27.59V11A2,2,0,0,1,9,9ZM7,37V30.41l9-9L33.63,39H9A2,2,0,0,1,7,37Zm32,2H36.46l-9-9L32,25.41l9,9V37A2,2,0,0,1,39,39Z"/><path class="cls-1" d="M32,19a3,3,0,1,0-3-3A3,3,0,0,0,32,19Zm0-4a1,1,0,1,1-1,1A1,1,0,0,1,32,15Z"/></svg>