<?xml version="1.0" encoding="utf-8"?>
<!-- Generator: Adobe Illustrator 23.0.3, SVG Export Plug-In . SVG Version: 6.00 Build 0)  -->
<svg version="1.1" xmlns="http://www.w3.org/2000/svg" xmlns:xlink="http://www.w3.org/1999/xlink" x="0px" y="0px"
	 viewBox="0 0 48 48" style="enable-background:new 0 0 48 48;" xml:space="preserve">
<style type="text/css">
	
		.st0{fill-rule:evenodd;clip-rule:evenodd;fill:none;stroke:#333333;stroke-width:2;stroke-linecap:round;stroke-linejoin:round;stroke-miterlimit:10;}
	.st1{fill:none;stroke:#333333;stroke-width:2;stroke-linecap:round;stroke-linejoin:round;stroke-miterlimit:10;}
	.st2{fill-rule:evenodd;clip-rule:evenodd;fill:#333333;}
	
		.st3{fill-rule:evenodd;clip-rule:evenodd;fill:none;stroke:#C6C6C6;stroke-width:2;stroke-linecap:round;stroke-linejoin:round;stroke-miterlimit:10;}
	
		.st4{fill-rule:evenodd;clip-rule:evenodd;fill:#333333;stroke:#333333;stroke-width:2;stroke-linecap:round;stroke-linejoin:round;stroke-miterlimit:10;}
	.st5{fill:#333333;}
	.st6{fill:none;stroke:#333333;stroke-width:2;stroke-linecap:round;stroke-linejoin:round;}
</style>
<g id="Icons">
</g>
<g id="Title">
</g>
<g id="Glenda_Icons">
</g>
<g id="Glenda_AS24_Icons">
	<g>
		<path class="st5" d="M20,10H8c-1.103,0-2,0.897-2,2v12c0,1.103,0.897,2,2,2h6c0,2.206-1.794,4-4,4c-0.553,0-1,0.447-1,1v6
			c0,0.553,0.447,1,1,1c6.617,0,12-5.383,12-12V12C22,10.897,21.103,10,20,10z M20,26c0,5.177-3.954,9.447-9,9.95v-4.033
			c2.834-0.478,5-2.949,5-5.917v-1c0-0.553-0.447-1-1-1H8V12h12V26z"/>
		<path class="st5" d="M40,10H28c-1.103,0-2,0.897-2,2v12c0,1.103,0.897,2,2,2h6c0,2.206-1.794,4-4,4c-0.553,0-1,0.447-1,1v6
			c0,0.553,0.447,1,1,1c6.617,0,12-5.383,12-12V12C42,10.897,41.103,10,40,10z M40,26c0,5.177-3.954,9.447-9,9.95v-4.033
			c2.834-0.478,5-2.949,5-5.917v-1c0-0.553-0.447-1-1-1h-7V12h12V26z"/>
	</g>
</g>
</svg>
