<?xml version="1.0" encoding="utf-8"?>
<!-- Generator: Adobe Illustrator 23.0.3, SVG Export Plug-In . SVG Version: 6.00 Build 0)  -->
<svg version="1.1" xmlns="http://www.w3.org/2000/svg" xmlns:xlink="http://www.w3.org/1999/xlink" x="0px" y="0px"
	 viewBox="0 0 48 48" style="enable-background:new 0 0 48 48;" xml:space="preserve">
<style type="text/css">
	
		.st0{fill-rule:evenodd;clip-rule:evenodd;fill:none;stroke:#333333;stroke-width:2;stroke-linecap:round;stroke-linejoin:round;stroke-miterlimit:10;}
	.st1{fill:none;stroke:#333333;stroke-width:2;stroke-linecap:round;stroke-linejoin:round;stroke-miterlimit:10;}
	.st2{fill-rule:evenodd;clip-rule:evenodd;fill:#333333;}
	
		.st3{fill-rule:evenodd;clip-rule:evenodd;fill:none;stroke:#C6C6C6;stroke-width:2;stroke-linecap:round;stroke-linejoin:round;stroke-miterlimit:10;}
	
		.st4{fill-rule:evenodd;clip-rule:evenodd;fill:#333333;stroke:#333333;stroke-width:2;stroke-linecap:round;stroke-linejoin:round;stroke-miterlimit:10;}
	.st5{fill:#333333;}
	.st6{fill:none;stroke:#333333;stroke-width:2;stroke-linecap:round;stroke-linejoin:round;}
</style>
<g id="Icons">
</g>
<g id="Title">
</g>
<g id="Glenda_Icons">
</g>
<g id="Glenda_AS24_Icons">
	<g>
		<path class="st5" d="M43.707,27.293c-0.391-0.391-1.023-0.391-1.414,0L31,38.586l-5.293-5.293c-0.391-0.391-1.023-0.391-1.414,0
			s-0.391,1.023,0,1.414l6,6C30.488,40.902,30.744,41,31,41s0.512-0.098,0.707-0.293l12-12
			C44.098,28.316,44.098,27.684,43.707,27.293z"/>
		<path class="st5" d="M24,39H10c-1.103,0-2-0.897-2-2l0.002-18h31.996L40,24c0,0.553,0.448,1,1,1c0.553,0,1-0.448,1-1
			l-0.003-10.996c0.001-1.069-0.414-2.074-1.17-2.831C40.071,9.417,39.066,9,37.997,9H33V7c0-0.553-0.447-1-1-1s-1,0.447-1,1v2H17V7
			c0-0.553-0.447-1-1-1s-1,0.447-1,1v2h-4.997c-1.069,0-2.074,0.417-2.83,1.173c-0.756,0.757-1.171,1.762-1.17,2.83L6,37
			c0,2.206,1.794,4,4,4h14c0.553,0,1-0.447,1-1S24.553,39,24,39z M8.588,11.587C8.966,11.208,9.468,11,10.003,11H15v2
			c0,0.553,0.447,1,1,1s1-0.447,1-1v-2h14v2c0,0.553,0.447,1,1,1s1-0.447,1-1v-2h4.997c0.535,0,1.037,0.208,1.415,0.587
			c0.378,0.378,0.586,0.881,0.585,1.416L39.998,17H8.002l0-3.998C8.002,12.468,8.21,11.965,8.588,11.587z"/>
	</g>
</g>
</svg>
