<svg id="Ebene_1" data-name="Ebene 1" xmlns="http://www.w3.org/2000/svg" viewBox="0 0 48 48"><defs><style>.cls-1{fill:#333;}</style></defs><title>additional_icons_48px_id</title><path class="cls-1" d="M36,26H26a1,1,0,0,0,0,2H36a1,1,0,0,0,0-2Z"/><path class="cls-1" d="M36,32H26a1,1,0,0,0,0,2H36a1,1,0,0,0,0-2Z"/><path class="cls-1" d="M39,14H28V6a1,1,0,0,0-1-1H21a1,1,0,0,0-1,1v8H9a4,4,0,0,0-4,4V39a4,4,0,0,0,4,4H39a4,4,0,0,0,4-4V18A4,4,0,0,0,39,14ZM22,7h4V18H22ZM41,39a2,2,0,0,1-2,2H9a2,2,0,0,1-2-2V18a2,2,0,0,1,2-2H20v2H19a1,1,0,0,0,0,2H29a1,1,0,0,0,0-2H28V16H39a2,2,0,0,1,2,2Z"/><path class="cls-1" d="M16,25a5,5,0,1,0,5,5A5,5,0,0,0,16,25Zm0,8a3,3,0,1,1,3-3A3,3,0,0,1,16,33Z"/></svg>