<svg id="Ebene_1" data-name="Ebene 1" xmlns="http://www.w3.org/2000/svg" viewBox="0 0 48 48"><defs><style>.cls-1{fill:#333;}</style></defs><title>additional_icons_48px_location_pin_option</title><path class="cls-1" d="M23,22.94V34a1,1,0,0,0,2,0V22.94a9,9,0,1,0-2,0ZM24,7a7,7,0,1,1-7,7A7,7,0,0,1,24,7Z"/><path class="cls-1" d="M34.22,30a1,1,0,1,0-.44,2c5,1.11,7.22,2.82,7.22,4,0,2.09-6.47,5-17,5S7,38.09,7,36c0-1.2,2.23-2.9,7.22-4a1,1,0,1,0-.44-2C8.12,31.3,5,33.42,5,36c0,4.55,9.79,7,19,7s19-2.45,19-7C43,33.42,39.88,31.3,34.22,30Z"/></svg>