<svg id="Ebene_1" data-name="Ebene 1" xmlns="http://www.w3.org/2000/svg" viewBox="0 0 48 48"><defs><style>.cls-1{fill:#333;}</style></defs><title>additional_icons_48px_enlarge</title><path class="cls-1" d="M18,7H9A2,2,0,0,0,7,9v9a1,1,0,0,0,2,0V9h9a1,1,0,0,0,0-2Z"/><path class="cls-1" d="M18,39H9V30a1,1,0,0,0-2,0v9a2,2,0,0,0,2,2h9a1,1,0,0,0,0-2Z"/><path class="cls-1" d="M39,7H30a1,1,0,0,0,0,2h9v9a1,1,0,0,0,2,0V9A2,2,0,0,0,39,7Z"/><path class="cls-1" d="M40,29a1,1,0,0,0-1,1v9H30a1,1,0,0,0,0,2h9a2,2,0,0,0,2-2V30A1,1,0,0,0,40,29Z"/></svg>