<?xml version="1.0" encoding="utf-8"?>
<!-- Generator: Adobe Illustrator 23.0.3, SVG Export Plug-In . SVG Version: 6.00 Build 0)  -->
<svg version="1.1" xmlns="http://www.w3.org/2000/svg" xmlns:xlink="http://www.w3.org/1999/xlink" x="0px" y="0px"
	 viewBox="0 0 48 48" style="enable-background:new 0 0 48 48;" xml:space="preserve">
<style type="text/css">
	
		.st0{fill-rule:evenodd;clip-rule:evenodd;fill:none;stroke:#333333;stroke-width:2;stroke-linecap:round;stroke-linejoin:round;stroke-miterlimit:10;}
	.st1{fill:none;stroke:#333333;stroke-width:2;stroke-linecap:round;stroke-linejoin:round;stroke-miterlimit:10;}
	.st2{fill-rule:evenodd;clip-rule:evenodd;fill:#333333;}
	
		.st3{fill-rule:evenodd;clip-rule:evenodd;fill:none;stroke:#C6C6C6;stroke-width:2;stroke-linecap:round;stroke-linejoin:round;stroke-miterlimit:10;}
	
		.st4{fill-rule:evenodd;clip-rule:evenodd;fill:#333333;stroke:#333333;stroke-width:2;stroke-linecap:round;stroke-linejoin:round;stroke-miterlimit:10;}
	.st5{fill:#333333;}
	.st6{fill:none;stroke:#333333;stroke-width:2;stroke-linecap:round;stroke-linejoin:round;}
</style>
<g id="Icons">
</g>
<g id="Title">
</g>
<g id="Glenda_Icons">
</g>
<g id="Glenda_AS24_Icons">
	<path class="st5" d="M41.997,13.004c0.001-1.069-0.414-2.074-1.17-2.831C40.071,9.417,39.066,9,37.997,9H33V7c0-0.553-0.447-1-1-1
		s-1,0.447-1,1v2H17V7c0-0.553-0.447-1-1-1s-1,0.447-1,1v2h-4.997c-1.069,0-2.074,0.417-2.83,1.173
		c-0.756,0.757-1.171,1.762-1.17,2.83L6,37c0,2.206,1.794,4,4,4h28c2.206,0,4-1.794,4-4L41.997,13.004z M8.588,11.587
		C8.966,11.208,9.468,11,10.003,11H15v2c0,0.553,0.447,1,1,1s1-0.447,1-1v-2h14v2c0,0.553,0.447,1,1,1s1-0.447,1-1v-2h4.997
		c0.535,0,1.037,0.208,1.415,0.587c0.378,0.378,0.586,0.881,0.585,1.415v0.001l0,3.997H8.002l0-3.998
		C8.002,12.468,8.21,11.965,8.588,11.587z M38,39H10c-1.103,0-2-0.897-2-2l0.002-18h31.996L40,37C40,38.103,39.103,39,38,39z"/>
</g>
</svg>
