<?xml version="1.0" encoding="utf-8"?>
<!-- Generator: Adobe Illustrator 21.0.0, SVG Export Plug-In . SVG Version: 6.00 Build 0)  -->
<svg version="1.1" id="Ebene_1" xmlns="http://www.w3.org/2000/svg" xmlns:xlink="http://www.w3.org/1999/xlink" x="0px" y="0px"
	 viewBox="0 0 48 48" style="enable-background:new 0 0 48 48;" xml:space="preserve">
<style type="text/css">
	.st0{fill:#333333;}
	
		.st1{fill-rule:evenodd;clip-rule:evenodd;fill:none;stroke:#333333;stroke-width:2;stroke-linecap:round;stroke-linejoin:round;stroke-miterlimit:10;}
	.st2{fill-rule:evenodd;clip-rule:evenodd;fill:#333333;}
	.st3{fill:none;stroke:#333333;stroke-width:2;stroke-linecap:round;stroke-linejoin:round;stroke-miterlimit:10;}
	.st4{fill:none;stroke:#C6C6C6;stroke-width:2;stroke-linecap:round;stroke-linejoin:round;stroke-miterlimit:10;}
	
		.st5{fill-rule:evenodd;clip-rule:evenodd;fill:none;stroke:#C6C6C6;stroke-width:2;stroke-linecap:round;stroke-linejoin:round;stroke-miterlimit:10;}
	.st6{fill:#FC0606;}
</style>
<path class="st0" d="M41.7,6.3C41.4,6,41,5.9,40.6,6.1l-34,14c-0.4,0.2-0.7,0.6-0.6,1.1c0.1,0.5,0.4,0.8,0.9,0.9l17.2,1.9L26,41.1
	c0.1,0.5,0.4,0.8,0.9,0.9c0,0,0.1,0,0.1,0c0.4,0,0.8-0.2,0.9-0.6l14-34C42.1,7,42,6.6,41.7,6.3z M27.6,37L26,22.9
	c-0.1-0.5-0.4-0.8-0.9-0.9L11,20.4L39.2,8.8L27.6,37z"/>
</svg>
