<svg id="Ebene_1" data-name="Ebene 1" xmlns="http://www.w3.org/2000/svg" viewBox="0 0 48 48"><defs><style>.cls-1{fill:#333;}</style></defs><title>additional_icons_48px_advertising</title><path class="cls-1" d="M30.38,9.08a1,1,0,0,0-1.09.22L21.59,17H8a2,2,0,0,0-2,2V29a2,2,0,0,0,2,2h4.22l1.44,5.77a2.94,2.94,0,1,0,5.71-1.42L18.28,31h3.31l7.71,7.71A1,1,0,0,0,31,38V10A1,1,0,0,0,30.38,9.08ZM8,19h2V29H8Zm9.43,16.83a.94.94,0,0,1-1.82.46L14.28,31h1.94ZM29,35.59l-6.29-6.29A1,1,0,0,0,22,29H12V19H22a1,1,0,0,0,.71-.29L29,12.41Z"/><path class="cls-1" d="M35,19a1,1,0,0,0,.71-.29l2-2a1,1,0,0,0-1.41-1.41l-2,2A1,1,0,0,0,35,19Z"/><path class="cls-1" d="M35.71,29.29a1,1,0,0,0-1.41,1.41l2,2a1,1,0,0,0,1.41-1.41Z"/><path class="cls-1" d="M41,23H39a1,1,0,0,0,0,2h2a1,1,0,0,0,0-2Z"/></svg>