<svg id="Ebene_1" data-name="Ebene 1" xmlns="http://www.w3.org/2000/svg" viewBox="0 0 48 48"><defs><style>.cls-1{fill:#333;}</style></defs><title>additional_icons_48px_distance</title><path class="cls-1" d="M11,38H8V35a1,1,0,0,0-2,0v8a1,1,0,0,0,2,0V40h3a1,1,0,0,0,0-2Z"/><path class="cls-1" d="M21,38H17a1,1,0,0,0,0,2h4a1,1,0,0,0,0-2Z"/><path class="cls-1" d="M31,38H27a1,1,0,0,0,0,2h4a1,1,0,0,0,0-2Z"/><path class="cls-1" d="M41,34a1,1,0,0,0-1,1v3H37a1,1,0,0,0,0,2h3v3a1,1,0,0,0,2,0V35A1,1,0,0,0,41,34Z"/><path class="cls-1" d="M37,17A12.57,12.57,0,0,0,24,4,12.57,12.57,0,0,0,11,17c0,8.37,11.86,18.35,12.36,18.77a1,1,0,0,0,1.28,0C25.14,35.35,37,25.37,37,17ZM24,33.67C21.56,31.5,13,23.41,13,17S17.52,6,24,6s11,4.52,11,11S26.44,31.5,24,33.67Z"/><path class="cls-1" d="M24,10.67a6,6,0,1,0,6,6A6,6,0,0,0,24,10.67Zm0,10a4,4,0,1,1,4-4A4,4,0,0,1,24,20.67Z"/></svg>