<?xml version="1.0" encoding="utf-8"?>
<!-- Generator: Adobe Illustrator 23.0.3, SVG Export Plug-In . SVG Version: 6.00 Build 0)  -->
<svg version="1.1" xmlns="http://www.w3.org/2000/svg" xmlns:xlink="http://www.w3.org/1999/xlink" x="0px" y="0px"
	 viewBox="0 0 48 48" style="enable-background:new 0 0 48 48;" xml:space="preserve">
<style type="text/css">
	
		.st0{fill-rule:evenodd;clip-rule:evenodd;fill:none;stroke:#333333;stroke-width:2;stroke-linecap:round;stroke-linejoin:round;stroke-miterlimit:10;}
	.st1{fill:none;stroke:#333333;stroke-width:2;stroke-linecap:round;stroke-linejoin:round;stroke-miterlimit:10;}
	.st2{fill-rule:evenodd;clip-rule:evenodd;fill:#333333;}
	
		.st3{fill-rule:evenodd;clip-rule:evenodd;fill:none;stroke:#C6C6C6;stroke-width:2;stroke-linecap:round;stroke-linejoin:round;stroke-miterlimit:10;}
	
		.st4{fill-rule:evenodd;clip-rule:evenodd;fill:#333333;stroke:#333333;stroke-width:2;stroke-linecap:round;stroke-linejoin:round;stroke-miterlimit:10;}
	.st5{fill:#333333;}
	.st6{fill:none;stroke:#333333;stroke-width:2;stroke-linecap:round;stroke-linejoin:round;}
</style>
<g id="Icons">
</g>
<g id="Title">
</g>
<g id="Glenda_Icons">
</g>
<g id="Glenda_AS24_Icons">
	<g>
		<path class="st5" d="M5.414,20L15.707,9.707c0.391-0.391,0.391-1.023,0-1.414s-1.023-0.391-1.414,0L4,18.586
			c-0.78,0.779-0.78,2.049,0,2.828l10.293,10.293C14.488,31.902,14.744,32,15,32s0.512-0.098,0.707-0.293
			c0.391-0.391,0.391-1.023,0-1.414L5.414,20z"/>
		<path class="st5" d="M34,19H13.414l9.293-9.293c0.391-0.391,0.391-1.023,0-1.414s-1.023-0.391-1.414,0L11,18.586
			c-0.78,0.779-0.78,2.049,0,2.828l10.293,10.293C21.488,31.902,21.744,32,22,32s0.512-0.098,0.707-0.293
			c0.391-0.391,0.391-1.023,0-1.414L13.414,21H34c4.963,0,9,4.037,9,9s-4.037,9-9,9h-4c-0.553,0-1,0.447-1,1s0.447,1,1,1h4
			c6.065,0,11-4.935,11-11S40.065,19,34,19z"/>
	</g>
</g>
</svg>
