<svg id="Ebene_1" data-name="Ebene 1" xmlns="http://www.w3.org/2000/svg" viewBox="0 0 48 48"><defs><style>.cls-1{fill:#333;}</style></defs><title>additional_icons_48px_camera_option</title><path class="cls-1" d="M22,15a9,9,0,1,0,9,9A9,9,0,0,0,22,15Zm0,16a7,7,0,1,1,7-7A7,7,0,0,1,22,31Z"/><path class="cls-1" d="M36,9H12a7,7,0,0,0-7,7V32a7,7,0,0,0,7,7H36a7,7,0,0,0,7-7V16A7,7,0,0,0,36,9Zm5,23a5,5,0,0,1-5,5H12a5,5,0,0,1-5-5V16a5,5,0,0,1,5-5H36a5,5,0,0,1,5,5Z"/><path class="cls-1" d="M36,15H34a1,1,0,0,0,0,2h2a1,1,0,0,0,0-2Z"/></svg>