<svg enable-background="new 0 0 48 48" viewBox="0 0 48 48" xmlns="http://www.w3.org/2000/svg"><g fill="#333"><path d="m25.293 19.707c.195.195.451.293.707.293s.512-.098.707-.293c.391-.391.391-1.023 0-1.414l-10.293-10.293c-.779-.779-2.049-.779-2.828 0l-10.293 10.293c-.391.391-.391 1.023 0 1.414s1.023.391 1.414 0l9.293-9.293v26.586c0 .553.447 1 1 1s1-.447 1-1v-26.586z"/><path d="m44.707 27.293c-.391-.391-1.023-.391-1.414 0l-9.293 9.293v-26.586c0-.553-.447-1-1-1s-1 .447-1 1v26.586l-9.293-9.293c-.391-.391-1.023-.391-1.414 0s-.391 1.023 0 1.414l10.293 10.293c.39.39.902.585 1.414.585s1.024-.195 1.414-.585l10.293-10.293c.391-.391.391-1.023 0-1.414z"/></g></svg>