<svg id="Ebene_1" data-name="Ebene 1" xmlns="http://www.w3.org/2000/svg" viewBox="0 0 48 48"><defs><style>.cls-1{fill:#333;}</style></defs><title>additional_icons_48px_downsize</title><path class="cls-1" d="M18,7a1,1,0,0,0-1,1v9H8a1,1,0,0,0,0,2h9a2,2,0,0,0,2-2V8A1,1,0,0,0,18,7Z"/><path class="cls-1" d="M17,29H8a1,1,0,0,0,0,2h9v9a1,1,0,0,0,2,0V31A2,2,0,0,0,17,29Z"/><path class="cls-1" d="M31,19h9a1,1,0,0,0,0-2H31V8a1,1,0,0,0-2,0v9A2,2,0,0,0,31,19Z"/><path class="cls-1" d="M40,29H31a2,2,0,0,0-2,2v9a1,1,0,0,0,2,0V31h9a1,1,0,0,0,0-2Z"/></svg>