<?xml version="1.0" encoding="utf-8"?>
<!-- Generator: Adobe Illustrator 23.0.3, SVG Export Plug-In . SVG Version: 6.00 Build 0)  -->
<svg version="1.1" xmlns="http://www.w3.org/2000/svg" xmlns:xlink="http://www.w3.org/1999/xlink" x="0px" y="0px"
	 viewBox="0 0 48 48" style="enable-background:new 0 0 48 48;" xml:space="preserve">
<style type="text/css">
	
		.st0{fill-rule:evenodd;clip-rule:evenodd;fill:none;stroke:#333333;stroke-width:2;stroke-linecap:round;stroke-linejoin:round;stroke-miterlimit:10;}
	.st1{fill:none;stroke:#333333;stroke-width:2;stroke-linecap:round;stroke-linejoin:round;stroke-miterlimit:10;}
	.st2{fill-rule:evenodd;clip-rule:evenodd;fill:#333333;}
	
		.st3{fill-rule:evenodd;clip-rule:evenodd;fill:none;stroke:#C6C6C6;stroke-width:2;stroke-linecap:round;stroke-linejoin:round;stroke-miterlimit:10;}
	
		.st4{fill-rule:evenodd;clip-rule:evenodd;fill:#333333;stroke:#333333;stroke-width:2;stroke-linecap:round;stroke-linejoin:round;stroke-miterlimit:10;}
	.st5{fill:#333333;}
	.st6{fill:none;stroke:#333333;stroke-width:2;stroke-linecap:round;stroke-linejoin:round;}
</style>
<g id="Icons">
</g>
<g id="Title">
</g>
<g id="Glenda_Icons">
</g>
<g id="Glenda_AS24_Icons">
	<g>
		<g>
			<g>
				<path class="st5" d="M24,43C13.523,43,5,34.477,5,24S13.523,5,24,5s19,8.523,19,19S34.477,43,24,43z M24,7
					C14.626,7,7,14.626,7,24s7.626,17,17,17s17-7.626,17-17S33.374,7,24,7z"/>
			</g>
		</g>
		<g>
			<path class="st5" d="M19,23c-0.553,0-1-0.447-1-1v-4c0-0.553,0.447-1,1-1s1,0.447,1,1v4C20,22.553,19.553,23,19,23z"/>
		</g>
		<g>
			<path class="st5" d="M29,23c-0.553,0-1-0.447-1-1v-4c0-0.553,0.447-1,1-1s1,0.447,1,1v4C30,22.553,29.553,23,29,23z"/>
		</g>
		<g>
			<g>
				<path class="st5" d="M33,35c-0.389,0-0.759-0.229-0.92-0.608C30.687,31.116,27.474,29,23.895,29c-3.47,0-6.528,2.031-7.98,5.301
					c-0.224,0.503-0.812,0.735-1.32,0.508c-0.505-0.225-0.731-0.815-0.508-1.32C15.864,29.486,19.622,27,23.895,27
					c4.383,0,8.318,2.594,10.025,6.608c0.217,0.509-0.021,1.096-0.528,1.312C33.264,34.975,33.131,35,33,35z"/>
			</g>
		</g>
	</g>
</g>
</svg>
