<?xml version="1.0" encoding="utf-8"?>
<!-- Generator: Adobe Illustrator 23.0.3, SVG Export Plug-In . SVG Version: 6.00 Build 0)  -->
<svg version="1.1" xmlns="http://www.w3.org/2000/svg" xmlns:xlink="http://www.w3.org/1999/xlink" x="0px" y="0px"
	 viewBox="0 0 48 48" style="enable-background:new 0 0 48 48;" xml:space="preserve">
<style type="text/css">
	
		.st0{fill-rule:evenodd;clip-rule:evenodd;fill:none;stroke:#333333;stroke-width:2;stroke-linecap:round;stroke-linejoin:round;stroke-miterlimit:10;}
	.st1{fill:none;stroke:#333333;stroke-width:2;stroke-linecap:round;stroke-linejoin:round;stroke-miterlimit:10;}
	.st2{fill-rule:evenodd;clip-rule:evenodd;fill:#333333;}
	
		.st3{fill-rule:evenodd;clip-rule:evenodd;fill:none;stroke:#C6C6C6;stroke-width:2;stroke-linecap:round;stroke-linejoin:round;stroke-miterlimit:10;}
	
		.st4{fill-rule:evenodd;clip-rule:evenodd;fill:#333333;stroke:#333333;stroke-width:2;stroke-linecap:round;stroke-linejoin:round;stroke-miterlimit:10;}
	.st5{fill:#333333;}
	.st6{fill:none;stroke:#333333;stroke-width:2;stroke-linecap:round;stroke-linejoin:round;}
</style>
<g id="Icons">
</g>
<g id="Title">
</g>
<g id="Glenda_Icons">
</g>
<g id="Glenda_AS24_Icons">
	<path class="st5" d="M45.581,23.189l-21-14.997c-0.348-0.248-0.814-0.248-1.162,0l-21,14.997C2.156,23.377,2,23.68,2,24.003
		s0.156,0.626,0.419,0.813l21,15.003c0.174,0.124,0.377,0.187,0.581,0.187s0.407-0.062,0.581-0.187l21-15.003
		C45.844,24.629,46,24.326,46,24.003S45.844,23.377,45.581,23.189z M24,10.234l8.871,6.335L24,22.779l-8.871-6.21L24,10.234z
		 M13.407,17.799c0.008,0.006,0.011,0.015,0.019,0.02L22.256,24l-8.83,6.181c-0.01,0.007-0.014,0.018-0.024,0.025l-8.682-6.203
		L13.407,17.799z M24,37.777l-8.877-6.343L24,25.221l8.877,6.214L24,37.777z M34.597,30.206c-0.01-0.007-0.014-0.018-0.024-0.025
		L25.744,24l8.83-6.181c0.008-0.006,0.011-0.014,0.019-0.02l8.687,6.204L34.597,30.206z"/>
</g>
</svg>
