<?xml version="1.0" encoding="utf-8"?>
<!-- Generator: Adobe Illustrator 23.0.3, SVG Export Plug-In . SVG Version: 6.00 Build 0)  -->
<svg version="1.1" xmlns="http://www.w3.org/2000/svg" xmlns:xlink="http://www.w3.org/1999/xlink" x="0px" y="0px"
	 viewBox="0 0 48 48" style="enable-background:new 0 0 48 48;" xml:space="preserve">
<style type="text/css">
	
		.st0{fill-rule:evenodd;clip-rule:evenodd;fill:none;stroke:#333333;stroke-width:2;stroke-linecap:round;stroke-linejoin:round;stroke-miterlimit:10;}
	.st1{fill:none;stroke:#333333;stroke-width:2;stroke-linecap:round;stroke-linejoin:round;stroke-miterlimit:10;}
	.st2{fill-rule:evenodd;clip-rule:evenodd;fill:#333333;}
	
		.st3{fill-rule:evenodd;clip-rule:evenodd;fill:none;stroke:#C6C6C6;stroke-width:2;stroke-linecap:round;stroke-linejoin:round;stroke-miterlimit:10;}
	
		.st4{fill-rule:evenodd;clip-rule:evenodd;fill:#333333;stroke:#333333;stroke-width:2;stroke-linecap:round;stroke-linejoin:round;stroke-miterlimit:10;}
	.st5{fill:#333333;}
	.st6{fill:none;stroke:#333333;stroke-width:2;stroke-linecap:round;stroke-linejoin:round;}
</style>
<g id="Icons">
</g>
<g id="Title">
</g>
<g id="Glenda_Icons">
</g>
<g id="Glenda_AS24_Icons">
	<g>
		<path class="st5" d="M27,5c-8.822,0-16,7.178-16,16c0,4.052,1.526,7.746,4.018,10.568l-9.725,9.725
			c-0.391,0.391-0.391,1.023,0,1.414C5.488,42.902,5.744,43,6,43s0.512-0.098,0.707-0.293l9.725-9.725
			C19.254,35.474,22.948,37,27,37c8.822,0,16-7.178,16-16S35.822,5,27,5z M27,35c-7.72,0-14-6.28-14-14S19.28,7,27,7s14,6.28,14,14
			S34.72,35,27,35z"/>
		<path class="st5" d="M28,13h2c0.553,0,1-0.447,1-1s-0.447-1-1-1h-2c-4.933,0-8.125,2.578-8.845,7H18c-0.553,0-1,0.447-1,1
			s0.447,1,1,1h1v2h-1c-0.553,0-1,0.447-1,1s0.447,1,1,1h1.155c0.719,4.422,3.912,7,8.845,7h2c0.553,0,1-0.447,1-1s-0.447-1-1-1h-2
			c-2.296,0-5.956-0.704-6.814-5H26c0.553,0,1-0.447,1-1s-0.447-1-1-1h-5v-2h5c0.553,0,1-0.447,1-1s-0.447-1-1-1h-4.814
			C22.044,13.704,25.704,13,28,13z"/>
	</g>
</g>
</svg>
