<svg id="Ebene_1" data-name="Ebene 1" xmlns="http://www.w3.org/2000/svg" viewBox="0 0 48 48"><defs><style>.cls-1{fill:#333;}</style></defs><title>additional_icons_48px_house</title><path class="cls-1" d="M44.51,17.14,25,5.45a2,2,0,0,0-2.06,0L3.49,17.14a1,1,0,0,0,1,1.71L7,17.37V41a2,2,0,0,0,2,2H39a2,2,0,0,0,2-2V17.37l2.49,1.49a1,1,0,1,0,1-1.71ZM29,41H19V32a5,5,0,0,1,10,0Zm10,0H31V32a7,7,0,0,0-14,0v9H9V16.17l15-9,15,9Z"/><path class="cls-1" d="M21,17a3,3,0,1,0,3-3A3,3,0,0,0,21,17Zm4,0a1,1,0,1,1-1-1A1,1,0,0,1,25,17Z"/></svg>