<?xml version="1.0" encoding="utf-8"?>
<!-- Generator: Adobe Illustrator 23.0.3, SVG Export Plug-In . SVG Version: 6.00 Build 0)  -->
<svg version="1.1" xmlns="http://www.w3.org/2000/svg" xmlns:xlink="http://www.w3.org/1999/xlink" x="0px" y="0px"
	 viewBox="0 0 48 48" style="enable-background:new 0 0 48 48;" xml:space="preserve">
<style type="text/css">
	
		.st0{fill-rule:evenodd;clip-rule:evenodd;fill:none;stroke:#333333;stroke-width:2;stroke-linecap:round;stroke-linejoin:round;stroke-miterlimit:10;}
	.st1{fill:none;stroke:#333333;stroke-width:2;stroke-linecap:round;stroke-linejoin:round;stroke-miterlimit:10;}
	.st2{fill-rule:evenodd;clip-rule:evenodd;fill:#333333;}
	
		.st3{fill-rule:evenodd;clip-rule:evenodd;fill:none;stroke:#C6C6C6;stroke-width:2;stroke-linecap:round;stroke-linejoin:round;stroke-miterlimit:10;}
	
		.st4{fill-rule:evenodd;clip-rule:evenodd;fill:#333333;stroke:#333333;stroke-width:2;stroke-linecap:round;stroke-linejoin:round;stroke-miterlimit:10;}
	.st5{fill:#333333;}
	.st6{fill:none;stroke:#333333;stroke-width:2;stroke-linecap:round;stroke-linejoin:round;}
</style>
<g id="Icons">
</g>
<g id="Title">
</g>
<g id="Glenda_Icons">
</g>
<g id="Glenda_AS24_Icons">
	<g>
		<path class="st5" d="M24,29c0.553,0,1-0.447,1-1v-1.069v-8V16c0-0.553-0.447-1-1-1s-1,0.447-1,1v2.931v8V28
			C23,28.553,23.447,29,24,29z"/>
		<path class="st5" d="M24,31c-1.654,0-3,1.346-3,3s1.346,3,3,3s3-1.346,3-3S25.654,31,24,31z M24,35c-0.552,0-1-0.448-1-1
			s0.448-1,1-1s1,0.448,1,1S24.552,35,24,35z"/>
		<path class="st5" d="M27.468,6.025C26.745,4.769,25.449,4.019,24,4.019s-2.745,0.75-3.468,2.007L2.718,37.006
			C1.998,38.259,2,39.752,2.723,41.003C3.446,42.253,4.741,43,6.186,43h35.629c1.444,0,2.739-0.747,3.463-1.997
			c0.723-1.251,0.725-2.744,0.005-3.996L27.468,6.025z M43.546,40.001C43.184,40.627,42.537,41,41.814,41H6.186
			c-0.723,0-1.369-0.373-1.731-0.999c-0.361-0.625-0.362-1.372-0.002-1.998L22.267,7.021C22.628,6.394,23.275,6.019,24,6.019
			s1.372,0.375,1.733,1.003l17.814,30.982C43.908,38.629,43.907,39.376,43.546,40.001z"/>
	</g>
</g>
</svg>
