<svg id="Ebene_1" data-name="Ebene 1" xmlns="http://www.w3.org/2000/svg" viewBox="0 0 48 48"><defs><style>.cls-1{fill:#333;}</style></defs><title>additional_icons_48px_notebook</title><path class="cls-1" d="M38,5H12a2,2,0,0,0-2,2v4H8a1,1,0,0,0,0,2h2v6H8a1,1,0,0,0,0,2h2v6H8a1,1,0,0,0,0,2h2v6H8a1,1,0,0,0,0,2h2v4a2,2,0,0,0,2,2H38a2,2,0,0,0,2-2V7A2,2,0,0,0,38,5ZM12,41V37h2a1,1,0,0,0,0-2H12V29h2a1,1,0,0,0,0-2H12V21h2a1,1,0,0,0,0-2H12V13h2a1,1,0,0,0,0-2H12V7H38V41Z"/><path class="cls-1" d="M31,11H19a1,1,0,0,0-1,1v6a1,1,0,0,0,1,1H31a1,1,0,0,0,1-1V12A1,1,0,0,0,31,11Zm-1,6H20V13H30Z"/></svg>