<svg id="Ebene_1" data-name="Ebene 1" xmlns="http://www.w3.org/2000/svg" viewBox="0 0 48 48"><defs><style>.cls-1{fill:#333;}</style></defs><title>additional_icons_48px_construction_helmet</title><path class="cls-1" d="M17,25a1,1,0,0,0-1,1v1a1,1,0,0,0,2,0V26A1,1,0,0,0,17,25Z"/><path class="cls-1" d="M21,25a1,1,0,0,0-1,1v1a1,1,0,0,0,2,0V26A1,1,0,0,0,21,25Z"/><path class="cls-1" d="M42,29H35V24A14.67,14.67,0,0,0,20,9,14.67,14.67,0,0,0,5,24v5a2,2,0,0,0,2,2h8.59l-2,2H7a2,2,0,0,0-2,2v2a2,2,0,0,0,2,2H8.76a4,4,0,0,0,2.83-1.17L18.41,31H42a1,1,0,0,0,0-2ZM10.17,36.41A2,2,0,0,1,8.76,37H7V35h4.59ZM26,29H12V28a7,7,0,0,1,14,0Zm7,0H28V28a9,9,0,0,0-18,0v1H7V24A12.71,12.71,0,0,1,20,11,12.71,12.71,0,0,1,33,24Z"/></svg>