<?xml version="1.0" encoding="utf-8"?>
<!-- Generator: Adobe Illustrator 23.0.3, SVG Export Plug-In . SVG Version: 6.00 Build 0)  -->
<svg version="1.1" xmlns="http://www.w3.org/2000/svg" xmlns:xlink="http://www.w3.org/1999/xlink" x="0px" y="0px"
	 viewBox="0 0 48 48" style="enable-background:new 0 0 48 48;" xml:space="preserve">
<style type="text/css">
	
		.st0{fill-rule:evenodd;clip-rule:evenodd;fill:none;stroke:#333333;stroke-width:2;stroke-linecap:round;stroke-linejoin:round;stroke-miterlimit:10;}
	.st1{fill:none;stroke:#333333;stroke-width:2;stroke-linecap:round;stroke-linejoin:round;stroke-miterlimit:10;}
	.st2{fill-rule:evenodd;clip-rule:evenodd;fill:#333333;}
	
		.st3{fill-rule:evenodd;clip-rule:evenodd;fill:none;stroke:#C6C6C6;stroke-width:2;stroke-linecap:round;stroke-linejoin:round;stroke-miterlimit:10;}
	
		.st4{fill-rule:evenodd;clip-rule:evenodd;fill:#333333;stroke:#333333;stroke-width:2;stroke-linecap:round;stroke-linejoin:round;stroke-miterlimit:10;}
	.st5{fill:#333333;}
	.st6{fill:none;stroke:#333333;stroke-width:2;stroke-linecap:round;stroke-linejoin:round;}
</style>
<g id="Icons">
</g>
<g id="Title">
</g>
<g id="Glenda_Icons">
</g>
<g id="Glenda_AS24_Icons">
	<path class="st5" d="M39,9H9c-2.206,0-4,1.794-4,4v22c0,2.206,1.794,4,4,4h30c2.206,0,4-1.794,4-4V13C43,10.794,41.206,9,39,9z
		 M29.414,24l11.511-11.511C40.969,12.653,41,12.822,41,13v22c0,0.178-0.031,0.347-0.075,0.511L29.414,24z M39,11
		c0.178,0,0.347,0.031,0.511,0.075L24,26.586L8.489,11.075C8.653,11.031,8.822,11,9,11H39z M7.075,35.511
		C7.031,35.347,7,35.178,7,35V13c0-0.178,0.031-0.347,0.075-0.511L18.586,24L7.075,35.511z M9,37c-0.178,0-0.347-0.031-0.511-0.075
		L20,25.414L22.586,28c0.39,0.39,0.902,0.585,1.414,0.585S25.024,28.39,25.414,28L28,25.414l11.511,11.511
		C39.347,36.969,39.178,37,39,37H9z"/>
</g>
</svg>
