<svg id="Ebene_1" data-name="Ebene 1" xmlns="http://www.w3.org/2000/svg" viewBox="0 0 48 48"><defs><style>.cls-1{fill:#333;}</style></defs><title>additional_icons_48px_ball_pen</title><path class="cls-1" d="M43,8.07a3.08,3.08,0,0,0-1-2.21,3.12,3.12,0,0,0-4.34,0L34.93,8.69l-1.1-1.1a2,2,0,0,0-2.83,0l-3,3L26.83,9.41a4,4,0,0,0-5.66,0l-7.88,7.88a1,1,0,0,0,1.41,1.41l7.88-7.88a2,2,0,0,1,2.83,0L26.59,12l-17,17A2,2,0,0,0,9,30.41v7.17L6.29,40.29a1,1,0,1,0,1.41,1.41L10.41,39h7.17A2,2,0,0,0,19,38.41L40.41,17a2,2,0,0,0,0-2.83l-1.1-1.1,2.78-2.78A3.08,3.08,0,0,0,43,8.07ZM17.59,37H11V30.41l17-17L34.59,20ZM36,18.59,29.41,12l3-3L39,15.58Zm4.68-9.71L38,11.56,36.4,10l2.72-2.72a1.1,1.1,0,0,1,1.56,1.56Z"/></svg>