<?xml version="1.0" encoding="utf-8"?>
<!-- Generator: Adobe Illustrator 21.0.0, SVG Export Plug-In . SVG Version: 6.00 Build 0)  -->
<svg version="1.1" id="Ebene_1" xmlns="http://www.w3.org/2000/svg" xmlns:xlink="http://www.w3.org/1999/xlink" x="0px" y="0px"
	 viewBox="0 0 48 48" style="enable-background:new 0 0 48 48;" xml:space="preserve">
<style type="text/css">
	.st0{fill:#333333;}
	
		.st1{fill-rule:evenodd;clip-rule:evenodd;fill:none;stroke:#333333;stroke-width:2;stroke-linecap:round;stroke-linejoin:round;stroke-miterlimit:10;}
	.st2{fill-rule:evenodd;clip-rule:evenodd;fill:#333333;}
	.st3{fill:none;stroke:#333333;stroke-width:2;stroke-linecap:round;stroke-linejoin:round;stroke-miterlimit:10;}
	.st4{fill:none;stroke:#C6C6C6;stroke-width:2;stroke-linecap:round;stroke-linejoin:round;stroke-miterlimit:10;}
	
		.st5{fill-rule:evenodd;clip-rule:evenodd;fill:none;stroke:#C6C6C6;stroke-width:2;stroke-linecap:round;stroke-linejoin:round;stroke-miterlimit:10;}
	.st6{fill:#FC0606;}
</style>
<path class="st0" d="M42,21H28.9c-0.4-2-1.9-3.5-3.9-3.9V8c0-0.6-0.4-1-1-1s-1,0.4-1,1v9.1c-2,0.4-3.5,1.9-3.9,3.9H6
	c-0.6,0-1,0.4-1,1s0.4,1,1,1h3v16c0,2.2,1.8,4,4,4h22c2.2,0,4-1.8,4-4V23h3c0.6,0,1-0.4,1-1S42.6,21,42,21z M24,19c1.7,0,3,1.3,3,3
	s-1.3,3-3,3s-3-1.3-3-3S22.3,19,24,19z M37,39c0,1.1-0.9,2-2,2H13c-1.1,0-2-0.9-2-2V23h8.1c0.5,2.3,2.5,4,4.9,4s4.4-1.7,4.9-4H37V39
	z"/>
</svg>
