<svg id="Ebene_1" data-name="Ebene 1" xmlns="http://www.w3.org/2000/svg" viewBox="0 0 48 48"><defs><style>.cls-1{fill:#333;}</style></defs><title>additional_icons_48px_sos</title><path class="cls-1" d="M24,5A19,19,0,1,0,43,24,19,19,0,0,0,24,5Zm11.27,6.31L29.61,17a9,9,0,0,0-11.22,0l-5.66-5.66a16.9,16.9,0,0,1,22.55,0ZM24,31a7,7,0,1,1,7-7A7,7,0,0,1,24,31ZM7,24a16.91,16.91,0,0,1,4.31-11.27L17,18.39a9,9,0,0,0,0,11.22l-5.66,5.66A16.91,16.91,0,0,1,7,24Zm5.73,12.69L18.39,31a9,9,0,0,0,11.22,0l5.66,5.66a16.9,16.9,0,0,1-22.55,0Zm24-1.41L31,29.61a9,9,0,0,0,0-11.22l5.66-5.66a16.9,16.9,0,0,1,0,22.55Z"/></svg>