<?xml version="1.0" encoding="utf-8"?>
<!-- Generator: Adobe Illustrator 23.0.3, SVG Export Plug-In . SVG Version: 6.00 Build 0)  -->
<svg version="1.1" xmlns="http://www.w3.org/2000/svg" xmlns:xlink="http://www.w3.org/1999/xlink" x="0px" y="0px"
	 viewBox="0 0 48 48" style="enable-background:new 0 0 48 48;" xml:space="preserve">
<style type="text/css">
	
		.st0{fill-rule:evenodd;clip-rule:evenodd;fill:none;stroke:#333333;stroke-width:2;stroke-linecap:round;stroke-linejoin:round;stroke-miterlimit:10;}
	.st1{fill:none;stroke:#333333;stroke-width:2;stroke-linecap:round;stroke-linejoin:round;stroke-miterlimit:10;}
	.st2{fill-rule:evenodd;clip-rule:evenodd;fill:#333333;}
	
		.st3{fill-rule:evenodd;clip-rule:evenodd;fill:none;stroke:#C6C6C6;stroke-width:2;stroke-linecap:round;stroke-linejoin:round;stroke-miterlimit:10;}
	
		.st4{fill-rule:evenodd;clip-rule:evenodd;fill:#333333;stroke:#333333;stroke-width:2;stroke-linecap:round;stroke-linejoin:round;stroke-miterlimit:10;}
	.st5{fill:#333333;}
	.st6{fill:none;stroke:#333333;stroke-width:2;stroke-linecap:round;stroke-linejoin:round;}
</style>
<g id="Icons">
</g>
<g id="Title">
</g>
<g id="Glenda_Icons">
</g>
<g id="Glenda_AS24_Icons">
	<path class="st5" d="M24,7C14.075,7,6,15.075,6,25c0,0.553,0.447,1,1,1h16v12c0,1.654-1.346,3-3,3s-3-1.346-3-3
		c0-0.553-0.447-1-1-1s-1,0.447-1,1c0,2.757,2.243,5,5,5s5-2.243,5-5V26h16c0.553,0,1-0.447,1-1C42,15.075,33.925,7,24,7z
		 M21.953,9.146c-2.998,4.362-4.719,9.523-4.911,14.854h-9.01C8.506,16.326,14.421,10.115,21.953,9.146z M19.043,24
		C19.242,18.83,20.975,13.828,24,9.678c3.025,4.15,4.758,9.152,4.957,14.322H19.043z M30.958,24
		c-0.193-5.331-1.914-10.492-4.911-14.854c7.532,0.969,13.447,7.18,13.922,14.854H30.958z"/>
</g>
</svg>
