<svg id="Ebene_1" data-name="Ebene 1" xmlns="http://www.w3.org/2000/svg" viewBox="0 0 48 48"><defs><style>.cls-1{fill:#333;}</style></defs><title>additional_icons_48px_terrace_house</title><path class="cls-1" d="M30.18,10.26A2,2,0,0,0,28.32,9H24V6a1,1,0,0,0-2,0V9H9.68a2,2,0,0,0-1.86,1.26L4.29,19.09A4,4,0,0,0,4,20.58V42a1,1,0,0,0,1,1H33a1,1,0,0,0,1-1V20.58a4,4,0,0,0-.29-1.49ZM9.68,11H28.32l3.2,8h-25ZM28,41H18V32a5,5,0,0,1,10,0Zm4,0H30V32a7,7,0,0,0-14,0v9H6V21H32Z"/><path class="cls-1" d="M9,34h4a1,1,0,0,0,1-1V27a1,1,0,0,0-1-1H9a1,1,0,0,0-1,1v6A1,1,0,0,0,9,34Zm1-6h2v4H10Z"/><path class="cls-1" d="M25,33v2a1,1,0,0,0,2,0V33a1,1,0,0,0-2,0Z"/><path class="cls-1" d="M43.71,19.09l-3.53-8.83A2,2,0,0,0,38.32,9H34V6a1,1,0,0,0-2,0v4a1,1,0,0,0,1,1h5.32l3.2,8H37a1,1,0,0,0,0,2h5V41H37a1,1,0,0,0,0,2h6a1,1,0,0,0,1-1V20.58A4,4,0,0,0,43.71,19.09Z"/></svg>