<svg id="Ebene_1" data-name="Ebene 1" xmlns="http://www.w3.org/2000/svg" viewBox="0 0 48 48"><defs><style>.cls-1{fill:#333;}</style></defs><title>additional_icons_48px_apartment_house</title><path class="cls-1" d="M42,16H30V8a2,2,0,0,0-2-2H6A2,2,0,0,0,4,8V41a1,1,0,0,0,1,1H43a1,1,0,0,0,1-1V18A2,2,0,0,0,42,16ZM6,8H28V40H6ZM42,40H30V18H42Z"/><path class="cls-1" d="M33,26a1,1,0,0,0,1-1V23a1,1,0,0,0-2,0v2A1,1,0,0,0,33,26Z"/><path class="cls-1" d="M33,36a1,1,0,0,0,1-1V33a1,1,0,0,0-2,0v2A1,1,0,0,0,33,36Z"/><path class="cls-1" d="M39,26a1,1,0,0,0,1-1V23a1,1,0,0,0-2,0v2A1,1,0,0,0,39,26Z"/><path class="cls-1" d="M39,36a1,1,0,0,0,1-1V33a1,1,0,0,0-2,0v2A1,1,0,0,0,39,36Z"/><path class="cls-1" d="M23,22a1,1,0,0,0-1,1v2a1,1,0,0,0,2,0V23A1,1,0,0,0,23,22Z"/><path class="cls-1" d="M23,12a1,1,0,0,0-1,1v2a1,1,0,0,0,2,0V13A1,1,0,0,0,23,12Z"/><path class="cls-1" d="M23,32a1,1,0,0,0-1,1v2a1,1,0,0,0,2,0V33A1,1,0,0,0,23,32Z"/><path class="cls-1" d="M11,22a1,1,0,0,0-1,1v2a1,1,0,0,0,2,0V23A1,1,0,0,0,11,22Z"/><path class="cls-1" d="M11,12a1,1,0,0,0-1,1v2a1,1,0,0,0,2,0V13A1,1,0,0,0,11,12Z"/><path class="cls-1" d="M11,32a1,1,0,0,0-1,1v2a1,1,0,0,0,2,0V33A1,1,0,0,0,11,32Z"/><path class="cls-1" d="M17,22a1,1,0,0,0-1,1v2a1,1,0,0,0,2,0V23A1,1,0,0,0,17,22Z"/><path class="cls-1" d="M17,12a1,1,0,0,0-1,1v2a1,1,0,0,0,2,0V13A1,1,0,0,0,17,12Z"/><path class="cls-1" d="M17,32a1,1,0,0,0-1,1v2a1,1,0,0,0,2,0V33A1,1,0,0,0,17,32Z"/></svg>