<?xml version="1.0" encoding="utf-8"?>
<!-- Generator: Adobe Illustrator 23.0.3, SVG Export Plug-In . SVG Version: 6.00 Build 0)  -->
<svg version="1.1" xmlns="http://www.w3.org/2000/svg" xmlns:xlink="http://www.w3.org/1999/xlink" x="0px" y="0px"
	 viewBox="0 0 48 48" style="enable-background:new 0 0 48 48;" xml:space="preserve">
<style type="text/css">
	
		.st0{fill-rule:evenodd;clip-rule:evenodd;fill:none;stroke:#333333;stroke-width:2;stroke-linecap:round;stroke-linejoin:round;stroke-miterlimit:10;}
	.st1{fill:none;stroke:#333333;stroke-width:2;stroke-linecap:round;stroke-linejoin:round;stroke-miterlimit:10;}
	.st2{fill-rule:evenodd;clip-rule:evenodd;fill:#333333;}
	
		.st3{fill-rule:evenodd;clip-rule:evenodd;fill:none;stroke:#C6C6C6;stroke-width:2;stroke-linecap:round;stroke-linejoin:round;stroke-miterlimit:10;}
	
		.st4{fill-rule:evenodd;clip-rule:evenodd;fill:#333333;stroke:#333333;stroke-width:2;stroke-linecap:round;stroke-linejoin:round;stroke-miterlimit:10;}
	.st5{fill:#333333;}
	.st6{fill:none;stroke:#333333;stroke-width:2;stroke-linecap:round;stroke-linejoin:round;}
</style>
<g id="Icons">
</g>
<g id="Title">
</g>
<g id="Glenda_Icons">
</g>
<g id="Glenda_AS24_Icons">
	<g>
		<path class="st5" d="M45.005,9.71c-0.106-0.353-0.399-0.618-0.761-0.69L39.897,8.15l-0.869-4.347
			c-0.072-0.361-0.338-0.654-0.69-0.761c-0.354-0.109-0.736-0.011-0.997,0.25l-6,6C31.153,9.48,31.048,9.734,31.048,10v5.586
			l-1.981,1.981C27.15,15.966,24.686,15,22,15c-6.089,0-11.043,4.954-11.043,11.043S15.911,37.085,22,37.085
			s11.043-4.953,11.043-11.042c0-2.684-0.964-5.146-2.562-7.062L32.462,17h5.586c0.266,0,0.52-0.105,0.707-0.293l6-6
			C45.016,10.446,45.111,10.063,45.005,9.71z M31.043,26.043c0,4.985-4.057,9.042-9.043,9.042s-9.043-4.057-9.043-9.042
			C12.957,21.057,17.014,17,22,17c2.135,0,4.096,0.748,5.644,1.989l-6.304,6.304c-0.391,0.391-0.391,1.023,0,1.414
			C21.536,26.902,21.792,27,22.048,27s0.512-0.098,0.707-0.293l6.303-6.303C30.297,21.952,31.043,23.911,31.043,26.043z M37.634,15
			h-4.586v-4.586l4.386-4.386l0.634,3.168c0.079,0.396,0.389,0.705,0.784,0.784l3.168,0.634L37.634,15z"/>
		<path class="st5" d="M38.614,19.032c-0.521,0.187-0.791,0.759-0.604,1.278c0.657,1.835,0.99,3.764,0.99,5.732
			c0,9.374-7.626,17-17,17s-17-7.626-17-17s7.626-17,17-17c1.881,0,3.726,0.304,5.483,0.903c0.523,0.182,1.091-0.101,1.27-0.623
			c0.179-0.523-0.101-1.092-0.623-1.27C26.163,7.383,24.101,7.043,22,7.043c-10.477,0-19,8.523-19,19s8.523,19,19,19s19-8.523,19-19
			c0-2.199-0.373-4.354-1.107-6.406C39.706,19.115,39.132,18.845,38.614,19.032z"/>
	</g>
</g>
</svg>
