<?xml version="1.0" encoding="utf-8"?>
<!-- Generator: Adobe Illustrator 21.0.0, SVG Export Plug-In . SVG Version: 6.00 Build 0)  -->
<svg version="1.1" id="Ebene_1" xmlns="http://www.w3.org/2000/svg" xmlns:xlink="http://www.w3.org/1999/xlink" x="0px" y="0px"
	 viewBox="0 0 48 48" style="enable-background:new 0 0 48 48;" xml:space="preserve">
<style type="text/css">
	.st0{fill:#333333;}
	
		.st1{fill-rule:evenodd;clip-rule:evenodd;fill:none;stroke:#333333;stroke-width:2;stroke-linecap:round;stroke-linejoin:round;stroke-miterlimit:10;}
	.st2{fill-rule:evenodd;clip-rule:evenodd;fill:#333333;}
	.st3{fill:none;stroke:#333333;stroke-width:2;stroke-linecap:round;stroke-linejoin:round;stroke-miterlimit:10;}
	.st4{fill:none;stroke:#C6C6C6;stroke-width:2;stroke-linecap:round;stroke-linejoin:round;stroke-miterlimit:10;}
	
		.st5{fill-rule:evenodd;clip-rule:evenodd;fill:none;stroke:#C6C6C6;stroke-width:2;stroke-linecap:round;stroke-linejoin:round;stroke-miterlimit:10;}
	.st6{fill:#FC0606;}
</style>
<g>
	<path class="st0" d="M39.7,8.3c-1.5-1.5-3.6-2.4-5.7-2.4c-2.2,0-4.2,0.8-5.7,2.4l-8.8,8.8c-1.3,1.3-2.1,3.1-2.1,4.9
		s0.7,3.6,2.1,4.9c0.2,0.2,0.5,0.3,0.7,0.3s0.5-0.1,0.7-0.3c0.4-0.4,0.4-1,0-1.4c-0.9-0.9-1.5-2.2-1.5-3.5s0.5-2.6,1.5-3.5l8.8-8.8
		c1.1-1.1,2.7-1.8,4.3-1.8s3.1,0.6,4.3,1.8c2.4,2.4,2.4,6.2,0,8.6l-3,3c-0.4,0.4-0.4,1,0,1.4s1,0.4,1.4,0l3-3
		C42.9,16.6,42.9,11.4,39.7,8.3z"/>
	<path class="st0" d="M27.1,21.1c-0.4,0.4-0.4,1,0,1.4c0.9,0.9,1.5,2.2,1.5,3.5s-0.5,2.6-1.5,3.5l-8.8,8.8c-1.1,1.1-2.7,1.8-4.3,1.8
		s-3.1-0.6-4.3-1.8c-2.4-2.4-2.4-6.2,0-8.6l3-3c0.4-0.4,0.4-1,0-1.4s-1-0.4-1.4,0l-3,3c-3.1,3.1-3.1,8.3,0,11.4
		c1.5,1.5,3.6,2.4,5.7,2.4c2.2,0,4.2-0.8,5.7-2.4l8.8-8.8c1.3-1.3,2.1-3.1,2.1-4.9s-0.7-3.6-2.1-4.9C28.1,20.7,27.4,20.7,27.1,21.1z
		"/>
</g>
</svg>
