<?xml version="1.0" encoding="utf-8"?>
<!-- Generator: Adobe Illustrator 23.0.3, SVG Export Plug-In . SVG Version: 6.00 Build 0)  -->
<svg version="1.1" xmlns="http://www.w3.org/2000/svg" xmlns:xlink="http://www.w3.org/1999/xlink" x="0px" y="0px"
	 viewBox="0 0 48 48" style="enable-background:new 0 0 48 48;" xml:space="preserve">
<style type="text/css">
	
		.st0{fill-rule:evenodd;clip-rule:evenodd;fill:none;stroke:#333333;stroke-width:2;stroke-linecap:round;stroke-linejoin:round;stroke-miterlimit:10;}
	.st1{fill:none;stroke:#333333;stroke-width:2;stroke-linecap:round;stroke-linejoin:round;stroke-miterlimit:10;}
	.st2{fill-rule:evenodd;clip-rule:evenodd;fill:#333333;}
	
		.st3{fill-rule:evenodd;clip-rule:evenodd;fill:none;stroke:#C6C6C6;stroke-width:2;stroke-linecap:round;stroke-linejoin:round;stroke-miterlimit:10;}
	
		.st4{fill-rule:evenodd;clip-rule:evenodd;fill:#333333;stroke:#333333;stroke-width:2;stroke-linecap:round;stroke-linejoin:round;stroke-miterlimit:10;}
	.st5{fill:#333333;}
	.st6{fill:none;stroke:#333333;stroke-width:2;stroke-linecap:round;stroke-linejoin:round;}
</style>
<g id="Icons">
</g>
<g id="Title">
</g>
<g id="Glenda_Icons">
</g>
<g id="Glenda_AS24_Icons">
	<path class="st5" d="M41.589,5.191c-0.312-0.227-0.727-0.254-1.066-0.07l-35,19c-0.334,0.182-0.536,0.537-0.521,0.917
		s0.243,0.719,0.59,0.874L16,30.578V42c0,0.427,0.271,0.808,0.676,0.946C16.782,42.982,16.892,43,17,43
		c0.303,0,0.597-0.138,0.789-0.386l6.479-8.33l10.323,4.628C34.722,38.971,34.86,39,35,39c0.159,0,0.318-0.038,0.464-0.114
		c0.271-0.142,0.463-0.4,0.519-0.701l6-32C42.054,5.805,41.9,5.419,41.589,5.191z M35.417,10.169L16.828,28.758l-8.574-3.844
		L35.417,10.169z M18,39.085v-7.61l4.389,1.968L18,39.085z M34.251,36.568l-15.47-6.935L39.422,8.992L34.251,36.568z"/>
</g>
</svg>
