<svg id="Ebene_1" data-name="Ebene 1" xmlns="http://www.w3.org/2000/svg" viewBox="0 0 48 48"><defs><style>.cls-1{fill:#333;}</style></defs><title>additional_icons_48px_roadwork</title><path class="cls-1" d="M42.92,18.62A1,1,0,0,0,42,18H37V15.9a5,5,0,1,0-2,0V18H13V15.9a5,5,0,1,0-2,0V18H6a1,1,0,0,0-1,1V31a1,1,0,0,0,1,1h5v8H8a1,1,0,0,0,0,2h8a1,1,0,0,0,0-2H13V32H35v8H32a1,1,0,0,0,0,2h8a1,1,0,0,0,0-2H37V32h5a1,1,0,0,0,1-1V19A1,1,0,0,0,42.92,18.62ZM33,11a3,3,0,1,1,3,3A3,3,0,0,1,33,11ZM9,11a3,3,0,1,1,3,3A3,3,0,0,1,9,11ZM20.41,30l10-10h9.17l-10,10Zm-12,0,10-10h9.17l-10,10Zm7.17-10L7,28.59V20ZM32.41,30,41,21.41V30Z"/></svg>