<svg id="Ebene_1" data-name="Ebene 1" xmlns="http://www.w3.org/2000/svg" viewBox="0 0 48 48"><defs><style>.cls-1{fill:#333;}</style></defs><title>additional_icons_48px_room_size</title><path class="cls-1" d="M39,7H27a1,1,0,0,0,0,2H37.45L9,37.46V9h3a1,1,0,0,0,0-2H9A2,2,0,0,0,7,9V39a2,2,0,0,0,2,2H39a2,2,0,0,0,2-2V36a1,1,0,0,0-2,0v3H10.28L39,10.28V21a1,1,0,0,0,2,0V9A2,2,0,0,0,39,7Z"/><path class="cls-1" d="M40,26a1,1,0,0,0-1,1v3a1,1,0,0,0,2,0V27A1,1,0,0,0,40,26Z"/><path class="cls-1" d="M18,9h3a1,1,0,0,0,0-2H18a1,1,0,0,0,0,2Z"/></svg>