<?xml version="1.0" encoding="utf-8"?>
<!-- Generator: Adobe Illustrator 21.0.0, SVG Export Plug-In . SVG Version: 6.00 Build 0)  -->
<svg version="1.1" id="Ebene_1" xmlns="http://www.w3.org/2000/svg" xmlns:xlink="http://www.w3.org/1999/xlink" x="0px" y="0px"
	 viewBox="0 0 48 48" style="enable-background:new 0 0 48 48;" xml:space="preserve">
<style type="text/css">
	
		.st0{fill-rule:evenodd;clip-rule:evenodd;fill:none;stroke:#333333;stroke-width:2;stroke-linecap:round;stroke-linejoin:round;stroke-miterlimit:10;}
	.st1{fill:none;stroke:#333333;stroke-width:2;stroke-linecap:round;stroke-linejoin:round;stroke-miterlimit:10;}
	.st2{fill-rule:evenodd;clip-rule:evenodd;fill:#333333;}
	.st3{fill:#333333;}
	.st4{fill:none;stroke:#C6C6C6;stroke-width:2;stroke-linecap:round;stroke-linejoin:round;stroke-miterlimit:10;}
	
		.st5{fill-rule:evenodd;clip-rule:evenodd;fill:none;stroke:#C6C6C6;stroke-width:2;stroke-linecap:round;stroke-linejoin:round;stroke-miterlimit:10;}
</style>
<g>
	<path class="st3" d="M24,15c1.7,0,3-1.3,3-3s-1.3-3-3-3s-3,1.3-3,3S22.3,15,24,15z M24,11c0.6,0,1,0.4,1,1s-0.4,1-1,1s-1-0.4-1-1
		S23.4,11,24,11z"/>
	<path class="st3" d="M24,21c-1.7,0-3,1.3-3,3s1.3,3,3,3s3-1.3,3-3S25.7,21,24,21z M24,25c-0.6,0-1-0.4-1-1s0.4-1,1-1s1,0.4,1,1
		S24.6,25,24,25z"/>
	<path class="st3" d="M24,33c-1.7,0-3,1.3-3,3s1.3,3,3,3s3-1.3,3-3S25.7,33,24,33z M24,37c-0.6,0-1-0.4-1-1s0.4-1,1-1s1,0.4,1,1
		S24.6,37,24,37z"/>
</g>
</svg>
