<?xml version="1.0" encoding="utf-8"?>
<!-- Generator: Adobe Illustrator 21.0.0, SVG Export Plug-In . SVG Version: 6.00 Build 0)  -->
<svg version="1.1" id="Ebene_1" xmlns="http://www.w3.org/2000/svg" xmlns:xlink="http://www.w3.org/1999/xlink" x="0px" y="0px"
	 viewBox="0 0 48 48" style="enable-background:new 0 0 48 48;" xml:space="preserve">
<style type="text/css">
	
		.st0{fill-rule:evenodd;clip-rule:evenodd;fill:none;stroke:#333333;stroke-width:2;stroke-linecap:round;stroke-linejoin:round;stroke-miterlimit:10;}
	.st1{fill:none;stroke:#333333;stroke-width:2;stroke-linecap:round;stroke-linejoin:round;stroke-miterlimit:10;}
	.st2{fill-rule:evenodd;clip-rule:evenodd;fill:#333333;}
	.st3{fill:#333333;}
	.st4{fill:none;stroke:#C6C6C6;stroke-width:2;stroke-linecap:round;stroke-linejoin:round;stroke-miterlimit:10;}
	
		.st5{fill-rule:evenodd;clip-rule:evenodd;fill:none;stroke:#C6C6C6;stroke-width:2;stroke-linecap:round;stroke-linejoin:round;stroke-miterlimit:10;}
	
		.st6{fill-rule:evenodd;clip-rule:evenodd;fill:#333333;stroke:#333333;stroke-width:2;stroke-linecap:round;stroke-linejoin:round;stroke-miterlimit:10;}
</style>
<path class="st3" d="M39,5H9C6.8,5,5,6.8,5,9v22c0,2.2,1.8,4,4,4h4v7c0,0.4,0.2,0.8,0.6,0.9C13.7,43,13.9,43,14,43
	c0.3,0,0.5-0.1,0.7-0.3l7.7-7.7H39c2.2,0,4-1.8,4-4V9C43,6.8,41.2,5,39,5z M41,31c0,1.1-0.9,2-2,2H22c-0.3,0-0.5,0.1-0.7,0.3
	L15,39.6V34c0-0.6-0.4-1-1-1H9c-1.1,0-2-0.9-2-2V9c0-1.1,0.9-2,2-2h30c1.1,0,2,0.9,2,2V31z"/>
</svg>
