<?xml version="1.0" encoding="utf-8"?>
<!-- Generator: Adobe Illustrator 21.0.0, SVG Export Plug-In . SVG Version: 6.00 Build 0)  -->
<svg version="1.1" id="Ebene_1" xmlns="http://www.w3.org/2000/svg" xmlns:xlink="http://www.w3.org/1999/xlink" x="0px" y="0px"
	 viewBox="0 0 48 48" style="enable-background:new 0 0 48 48;" xml:space="preserve">
<style type="text/css">
	
		.st0{fill-rule:evenodd;clip-rule:evenodd;fill:none;stroke:#333333;stroke-width:2;stroke-linecap:round;stroke-linejoin:round;stroke-miterlimit:10;}
	.st1{fill:none;stroke:#333333;stroke-width:2;stroke-linecap:round;stroke-linejoin:round;stroke-miterlimit:10;}
	.st2{fill-rule:evenodd;clip-rule:evenodd;fill:#333333;}
	.st3{fill:#333333;}
	.st4{fill:none;stroke:#C6C6C6;stroke-width:2;stroke-linecap:round;stroke-linejoin:round;stroke-miterlimit:10;}
	
		.st5{fill-rule:evenodd;clip-rule:evenodd;fill:none;stroke:#C6C6C6;stroke-width:2;stroke-linecap:round;stroke-linejoin:round;stroke-miterlimit:10;}
	
		.st6{fill-rule:evenodd;clip-rule:evenodd;fill:#333333;stroke:#333333;stroke-width:2;stroke-linecap:round;stroke-linejoin:round;stroke-miterlimit:10;}
</style>
<path class="st3" d="M44.3,18.3c-0.3-0.8-1-1.3-1.9-1.3l-11.7,0l-4.8-12c-0.3-0.8-1-1.3-1.9-1.3s-1.6,0.5-1.9,1.3l-4.8,12L5.6,17
	c-0.8,0-1.6,0.5-1.9,1.3c-0.3,0.8-0.1,1.6,0.5,2.2l8.6,7.8L9.7,42c-0.2,0.8,0.1,1.7,0.9,2.1c0.7,0.5,1.6,0.4,2.3-0.1L24,35.2
	L35.1,44c0.4,0.3,0.8,0.4,1.2,0.4c0.4,0,0.7-0.1,1.1-0.3c0.7-0.5,1.1-1.3,0.9-2.1l-3.2-13.7l8.6-7.8C44.4,19.9,44.6,19.1,44.3,18.3z
	 M22.8,33.7l-11.1,8.8l3.2-13.7c0.2-0.7-0.1-1.5-0.6-1.9L5.6,19l11.7,0c0.8,0,1.5-0.5,1.9-1.3l4.8-12v27.6
	C23.6,33.2,23.1,33.4,22.8,33.7z"/>
</svg>
