<?xml version="1.0" encoding="utf-8"?>
<!-- Generator: Adobe Illustrator 21.0.0, SVG Export Plug-In . SVG Version: 6.00 Build 0)  -->
<svg version="1.1" id="Ebene_1" xmlns="http://www.w3.org/2000/svg" xmlns:xlink="http://www.w3.org/1999/xlink" x="0px" y="0px"
	 viewBox="0 0 48 48" style="enable-background:new 0 0 48 48;" xml:space="preserve">
<style type="text/css">
	
		.st0{fill-rule:evenodd;clip-rule:evenodd;fill:none;stroke:#333333;stroke-width:2;stroke-linecap:round;stroke-linejoin:round;stroke-miterlimit:10;}
	.st1{fill:none;stroke:#333333;stroke-width:2;stroke-linecap:round;stroke-linejoin:round;stroke-miterlimit:10;}
	.st2{fill-rule:evenodd;clip-rule:evenodd;fill:#333333;}
	.st3{fill:#333333;}
	.st4{fill:none;stroke:#C6C6C6;stroke-width:2;stroke-linecap:round;stroke-linejoin:round;stroke-miterlimit:10;}
	
		.st5{fill-rule:evenodd;clip-rule:evenodd;fill:none;stroke:#C6C6C6;stroke-width:2;stroke-linecap:round;stroke-linejoin:round;stroke-miterlimit:10;}
	
		.st6{fill-rule:evenodd;clip-rule:evenodd;fill:#333333;stroke:#333333;stroke-width:2;stroke-linecap:round;stroke-linejoin:round;stroke-miterlimit:10;}
</style>
<path class="st3" d="M39.7,8.3C36,4.6,30,4.6,26.3,8.3l-2,2c-0.4,0.4-0.4,1,0,1.4s1,0.4,1.4,0l2-2c2.9-2.9,7.7-2.9,10.6,0
	c2.9,2.9,2.9,7.7,0,10.6l-18,18c-2.9,2.9-7.7,2.9-10.6,0c-2.9-2.9-2.9-7.7,0-10.6l10-10c1.3-1.3,3.3-1.3,4.6,0c0.6,0.6,1,1.4,1,2.3
	s-0.3,1.7-1,2.3l-7,7c-0.4,0.4-0.4,1,0,1.4s1,0.4,1.4,0l7-7c1-1,1.5-2.3,1.5-3.7s-0.5-2.7-1.5-3.7c-2-2-5.4-2-7.4,0l-10,10
	C4.6,30,4.6,36,8.3,39.7c1.8,1.8,4.3,2.8,6.7,2.8s4.9-0.9,6.7-2.8l18-18C43.4,18,43.4,12,39.7,8.3z"/>
</svg>
