<?xml version="1.0" encoding="utf-8"?>
<!-- Generator: Adobe Illustrator 21.0.0, SVG Export Plug-In . SVG Version: 6.00 Build 0)  -->
<svg version="1.1" id="Ebene_1" xmlns="http://www.w3.org/2000/svg" xmlns:xlink="http://www.w3.org/1999/xlink" x="0px" y="0px"
	 viewBox="0 0 48 48" style="enable-background:new 0 0 48 48;" xml:space="preserve">
<style type="text/css">
	
		.st0{fill-rule:evenodd;clip-rule:evenodd;fill:none;stroke:#333333;stroke-width:2;stroke-linecap:round;stroke-linejoin:round;stroke-miterlimit:10;}
	.st1{fill:none;stroke:#333333;stroke-width:2;stroke-linecap:round;stroke-linejoin:round;stroke-miterlimit:10;}
	.st2{fill-rule:evenodd;clip-rule:evenodd;fill:#333333;}
	.st3{fill:#333333;}
	.st4{fill:none;stroke:#C6C6C6;stroke-width:2;stroke-linecap:round;stroke-linejoin:round;stroke-miterlimit:10;}
	
		.st5{fill-rule:evenodd;clip-rule:evenodd;fill:none;stroke:#C6C6C6;stroke-width:2;stroke-linecap:round;stroke-linejoin:round;stroke-miterlimit:10;}
	
		.st6{fill-rule:evenodd;clip-rule:evenodd;fill:#333333;stroke:#333333;stroke-width:2;stroke-linecap:round;stroke-linejoin:round;stroke-miterlimit:10;}
</style>
<path class="st3" d="M42,32.6L33.4,24c-0.8-0.8-2.1-0.8-2.8,0l-3.2,3.2c-0.8,0.8-2.1,0.8-2.8,0l-3.8-3.8c-0.8-0.8-0.8-2,0-2.8
	l3.2-3.2c0.4-0.4,0.6-0.9,0.6-1.4s-0.2-1-0.6-1.4L15.4,6c-0.8-0.8-2-0.8-2.8,0L8.8,9.8C6.4,12.2,5,15.5,5,19s1.4,6.8,3.8,9.2
	l10.9,10.9c2.5,2.5,5.8,3.8,9.2,3.8s6.8-1.4,9.2-3.8l3.8-3.8C42.8,34.6,42.8,33.4,42,32.6z M36.8,37.8C34.7,39.8,32,41,29,41
	s-5.7-1.2-7.8-3.2L10.2,26.8C8.2,24.7,7,22,7,19s1.2-5.7,3.2-7.8L14,7.4l8.6,8.6l-3.2,3.2c-1.6,1.6-1.6,4.1,0,5.7l3.8,3.8
	c1.5,1.5,4.1,1.5,5.7,0l3.2-3.2l8.6,8.6L36.8,37.8z"/>
</svg>
