<svg id="Ebene_1" data-name="Ebene 1" xmlns="http://www.w3.org/2000/svg" viewBox="0 0 48 48"><defs><style>.cls-1{fill:#333;}</style></defs><title>is24_system_48px_message_read</title><path class="cls-1" d="M39,13V6a1,1,0,0,0-1-1H10A1,1,0,0,0,9,6v7a4,4,0,0,0-4,4V39a4,4,0,0,0,4,4H39a4,4,0,0,0,4-4V17A4,4,0,0,0,39,13Zm2,4V39a2,2,0,0,1-.07.51L29.41,28l9.29-9.29A1,1,0,0,0,39,18V15A2,2,0,0,1,41,17ZM11,7H37V17.59l-9,9L25.41,24a2,2,0,0,0-2.83,0L20,26.59l-9-9ZM7,17a2,2,0,0,1,2-2v3a1,1,0,0,0,.29.71L18.59,28,7.07,39.51A2,2,0,0,1,7,39ZM9,41a2,2,0,0,1-.51-.07L24,25.41,39.51,40.93A2,2,0,0,1,39,41Z"/></svg>