<?xml version="1.0" encoding="utf-8"?>
<!-- Generator: Adobe Illustrator 21.0.0, SVG Export Plug-In . SVG Version: 6.00 Build 0)  -->
<svg version="1.1" id="Ebene_1" xmlns="http://www.w3.org/2000/svg" xmlns:xlink="http://www.w3.org/1999/xlink" x="0px" y="0px"
	 viewBox="0 0 48 48" style="enable-background:new 0 0 48 48;" xml:space="preserve">
<style type="text/css">
	
		.st0{fill-rule:evenodd;clip-rule:evenodd;fill:none;stroke:#333333;stroke-width:2;stroke-linecap:round;stroke-linejoin:round;stroke-miterlimit:10;}
	.st1{fill:none;stroke:#333333;stroke-width:2;stroke-linecap:round;stroke-linejoin:round;stroke-miterlimit:10;}
	.st2{fill-rule:evenodd;clip-rule:evenodd;fill:#333333;}
	.st3{fill:#333333;}
	.st4{fill:none;stroke:#C6C6C6;stroke-width:2;stroke-linecap:round;stroke-linejoin:round;stroke-miterlimit:10;}
	
		.st5{fill-rule:evenodd;clip-rule:evenodd;fill:none;stroke:#C6C6C6;stroke-width:2;stroke-linecap:round;stroke-linejoin:round;stroke-miterlimit:10;}
</style>
<g>
	<path class="st3" d="M22,15c-3.9,0-7,3.1-7,7s3.1,7,7,7s7-3.1,7-7S25.9,15,22,15z M22,27c-2.8,0-5-2.2-5-5s2.2-5,5-5s5,2.2,5,5
		S24.8,27,22,27z"/>
	<path class="st3" d="M43,13h-2v-2c0-1.1-0.9-2-2-2H5c-1.1,0-2,0.9-2,2v22c0,1.1,0.9,2,2,2h2v2c0,1.1,0.9,2,2,2h34c1.1,0,2-0.9,2-2
		V15C45,13.9,44.1,13,43,13z M39,33h-6v-1.7c0-2.4,1.9-4.3,4.3-4.3H39L39,33z M13,33v-1.7c0-3.5-2.8-6.3-6.3-6.3H5v-6h1.7
		c3.5,0,6.3-2.8,6.3-6.3V11h18v1.7c0,3.5,2.8,6.3,6.3,6.3H39l0,6h-1.7c-3.5,0-6.3,2.8-6.3,6.3V33H13z M39,13.9
		C39,13.9,39,14,39,13.9c0,0.1,0,0.1,0,0.2l0,2.9h-1.7c-2.4,0-4.3-1.9-4.3-4.3V11h6L39,13.9z M11,11v1.7c0,2.4-1.9,4.3-4.3,4.3H5v-6
		H11z M5,27h1.7c2.4,0,4.3,1.9,4.3,4.3V33H5V27z M43,37H9v-2h30c1.1,0,2-0.9,2-2V15h2V37z"/>
</g>
</svg>
