<?xml version="1.0" encoding="utf-8"?>
<!-- Generator: Adobe Illustrator 21.0.0, SVG Export Plug-In . SVG Version: 6.00 Build 0)  -->
<svg version="1.1" id="Ebene_1" xmlns="http://www.w3.org/2000/svg" xmlns:xlink="http://www.w3.org/1999/xlink" x="0px" y="0px"
	 viewBox="0 0 48 48" style="enable-background:new 0 0 48 48;" xml:space="preserve">
<style type="text/css">
	
		.st0{fill-rule:evenodd;clip-rule:evenodd;fill:none;stroke:#333333;stroke-width:2;stroke-linecap:round;stroke-linejoin:round;stroke-miterlimit:10;}
	.st1{fill:none;stroke:#333333;stroke-width:2;stroke-linecap:round;stroke-linejoin:round;stroke-miterlimit:10;}
	.st2{fill-rule:evenodd;clip-rule:evenodd;fill:#333333;}
	.st3{fill:#333333;}
	.st4{fill:none;stroke:#C6C6C6;stroke-width:2;stroke-linecap:round;stroke-linejoin:round;stroke-miterlimit:10;}
	
		.st5{fill-rule:evenodd;clip-rule:evenodd;fill:none;stroke:#C6C6C6;stroke-width:2;stroke-linecap:round;stroke-linejoin:round;stroke-miterlimit:10;}
	
		.st6{fill-rule:evenodd;clip-rule:evenodd;fill:#333333;stroke:#333333;stroke-width:2;stroke-linecap:round;stroke-linejoin:round;stroke-miterlimit:10;}
</style>
<g>
	<path class="st3" d="M24,5C13.5,5,5,13.5,5,24s8.5,19,19,19s19-8.5,19-19S34.5,5,24,5z M24,41c-9.4,0-17-7.6-17-17S14.6,7,24,7
		s17,7.6,17,17S33.4,41,24,41z"/>
	<path class="st3" d="M24,29c-1.7,0-3,1.3-3,3s1.3,3,3,3s3-1.3,3-3S25.7,29,24,29z M24,33c-0.6,0-1-0.4-1-1s0.4-1,1-1s1,0.4,1,1
		S24.6,33,24,33z"/>
	<path class="st3" d="M25.2,13.1c-1.5-0.3-3.1,0-4.3,1C19.7,15,19,16.5,19,18c0,0.6,0.4,1,1,1s1-0.4,1-1c0-0.9,0.4-1.8,1.1-2.3
		c0.7-0.6,1.6-0.8,2.6-0.6c1.1,0.2,2,1.1,2.2,2.2c0.3,1.4-0.3,2.8-1.6,3.4c-1.4,0.7-2.3,2.1-2.3,3.5V26c0,0.6,0.4,1,1,1s1-0.4,1-1
		v-1.8c0-0.7,0.5-1.4,1.2-1.7c2.1-1,3.2-3.4,2.7-5.7C28.4,15,27,13.6,25.2,13.1z"/>
</g>
</svg>
