<?xml version="1.0" encoding="utf-8"?>
<!-- Generator: Adobe Illustrator 21.0.0, SVG Export Plug-In . SVG Version: 6.00 Build 0)  -->
<svg version="1.1" id="Ebene_1" xmlns="http://www.w3.org/2000/svg" xmlns:xlink="http://www.w3.org/1999/xlink" x="0px" y="0px"
	 viewBox="0 0 48 48" style="enable-background:new 0 0 48 48;" xml:space="preserve">
<style type="text/css">
	
		.st0{fill-rule:evenodd;clip-rule:evenodd;fill:none;stroke:#333333;stroke-width:2;stroke-linecap:round;stroke-linejoin:round;stroke-miterlimit:10;}
	.st1{fill:none;stroke:#333333;stroke-width:2;stroke-linecap:round;stroke-linejoin:round;stroke-miterlimit:10;}
	.st2{fill-rule:evenodd;clip-rule:evenodd;fill:#333333;}
	.st3{fill:#333333;}
	.st4{fill:none;stroke:#C6C6C6;stroke-width:2;stroke-linecap:round;stroke-linejoin:round;stroke-miterlimit:10;}
	
		.st5{fill-rule:evenodd;clip-rule:evenodd;fill:none;stroke:#C6C6C6;stroke-width:2;stroke-linecap:round;stroke-linejoin:round;stroke-miterlimit:10;}
	
		.st6{fill-rule:evenodd;clip-rule:evenodd;fill:#333333;stroke:#333333;stroke-width:2;stroke-linecap:round;stroke-linejoin:round;stroke-miterlimit:10;}
</style>
<g>
	<path class="st3" d="M39,26c-0.6,0-1,0.4-1,1v11c0,1.1-0.9,2-2,2H12c-1.1,0-2-0.9-2-2V27c0-0.6-0.4-1-1-1s-1,0.4-1,1v11
		c0,2.2,1.8,4,4,4h24c2.2,0,4-1.8,4-4V27C40,26.4,39.6,26,39,26z"/>
	<path class="st3" d="M22.6,31c0.4,0.4,0.9,0.6,1.4,0.6s1-0.2,1.4-0.6l11.3-11.3c0.4-0.4,0.4-1,0-1.4s-1-0.4-1.4,0L25,28.6V7
		c0-0.6-0.4-1-1-1s-1,0.4-1,1v21.6L12.7,18.3c-0.4-0.4-1-0.4-1.4,0s-0.4,1,0,1.4L22.6,31z"/>
</g>
</svg>
