<?xml version="1.0" encoding="utf-8"?>
<!-- Generator: Adobe Illustrator 21.0.0, SVG Export Plug-In . SVG Version: 6.00 Build 0)  -->
<svg version="1.1" id="Ebene_1" xmlns="http://www.w3.org/2000/svg" xmlns:xlink="http://www.w3.org/1999/xlink" x="0px" y="0px"
	 viewBox="0 0 48 48" style="enable-background:new 0 0 48 48;" xml:space="preserve">
<style type="text/css">
	
		.st0{fill-rule:evenodd;clip-rule:evenodd;fill:none;stroke:#333333;stroke-width:2;stroke-linecap:round;stroke-linejoin:round;stroke-miterlimit:10;}
	.st1{fill:none;stroke:#333333;stroke-width:2;stroke-linecap:round;stroke-linejoin:round;stroke-miterlimit:10;}
	.st2{fill-rule:evenodd;clip-rule:evenodd;fill:#333333;}
	.st3{fill:#333333;}
	.st4{fill:none;stroke:#C6C6C6;stroke-width:2;stroke-linecap:round;stroke-linejoin:round;stroke-miterlimit:10;}
	
		.st5{fill-rule:evenodd;clip-rule:evenodd;fill:none;stroke:#C6C6C6;stroke-width:2;stroke-linecap:round;stroke-linejoin:round;stroke-miterlimit:10;}
	
		.st6{fill-rule:evenodd;clip-rule:evenodd;fill:#333333;stroke:#333333;stroke-width:2;stroke-linecap:round;stroke-linejoin:round;stroke-miterlimit:10;}
</style>
<path class="st3" d="M33,27c-2.4,0-4.5,1.2-5.7,3l-6.6-3.8c0.2-0.7,0.4-1.4,0.4-2.2s-0.1-1.5-0.4-2.2l6.6-3.8c1.3,1.8,3.4,3,5.7,3
	c3.9,0,7-3.1,7-7s-3.1-7-7-7s-7,3.1-7,7c0,0.8,0.1,1.5,0.4,2.2L19.7,20c-1.3-1.8-3.4-3-5.7-3c-3.9,0-7,3.1-7,7s3.1,7,7,7
	c2.4,0,4.5-1.2,5.7-3l6.6,3.8C26.1,32.5,26,33.2,26,34c0,3.9,3.1,7,7,7s7-3.1,7-7S36.9,27,33,27z M33,9c2.8,0,5,2.2,5,5s-2.2,5-5,5
	s-5-2.2-5-5S30.2,9,33,9z M14,29c-2.8,0-5-2.2-5-5s2.2-5,5-5s5,2.2,5,5S16.8,29,14,29z M33,39c-2.8,0-5-2.2-5-5s2.2-5,5-5s5,2.2,5,5
	S35.8,39,33,39z"/>
</svg>
