<?xml version="1.0" encoding="utf-8"?>
<!-- Generator: Adobe Illustrator 21.0.0, SVG Export Plug-In . SVG Version: 6.00 Build 0)  -->
<svg version="1.1" id="Ebene_1" xmlns="http://www.w3.org/2000/svg" xmlns:xlink="http://www.w3.org/1999/xlink" x="0px" y="0px"
	 viewBox="0 0 48 48" style="enable-background:new 0 0 48 48;" xml:space="preserve">
<style type="text/css">
	
		.st0{fill-rule:evenodd;clip-rule:evenodd;fill:none;stroke:#333333;stroke-width:2;stroke-linecap:round;stroke-linejoin:round;stroke-miterlimit:10;}
	.st1{fill:none;stroke:#333333;stroke-width:2;stroke-linecap:round;stroke-linejoin:round;stroke-miterlimit:10;}
	.st2{fill-rule:evenodd;clip-rule:evenodd;fill:#333333;}
	.st3{fill:#333333;}
	.st4{fill:none;stroke:#C6C6C6;stroke-width:2;stroke-linecap:round;stroke-linejoin:round;stroke-miterlimit:10;}
	
		.st5{fill-rule:evenodd;clip-rule:evenodd;fill:none;stroke:#C6C6C6;stroke-width:2;stroke-linecap:round;stroke-linejoin:round;stroke-miterlimit:10;}
	
		.st6{fill-rule:evenodd;clip-rule:evenodd;fill:#333333;stroke:#333333;stroke-width:2;stroke-linecap:round;stroke-linejoin:round;stroke-miterlimit:10;}
</style>
<path class="st3" d="M42,13c0-1.1-0.4-2.1-1.2-2.8C40.1,9.4,39.1,9,38,9h-5V7c0-0.6-0.4-1-1-1s-1,0.4-1,1v2H17V7c0-0.6-0.4-1-1-1
	s-1,0.4-1,1v2h-5c-1.1,0-2.1,0.4-2.8,1.2C6.4,10.9,6,11.9,6,13l0,24c0,2.2,1.8,4,4,4h28c2.2,0,4-1.8,4-4L42,13z M8.6,11.6
	C9,11.2,9.5,11,10,11h5v2c0,0.6,0.4,1,1,1s1-0.4,1-1v-2h14v2c0,0.6,0.4,1,1,1s1-0.4,1-1v-2h5c0.5,0,1,0.2,1.4,0.6
	C39.8,12,40,12.5,40,13c0,0,0,0,0,0l0,4H8l0-4C8,12.5,8.2,12,8.6,11.6z M38,39H10c-1.1,0-2-0.9-2-2l0-18h32l0,18
	C40,38.1,39.1,39,38,39z"/>
</svg>
