<?xml version="1.0" encoding="utf-8"?>
<!-- Generator: Adobe Illustrator 21.0.0, SVG Export Plug-In . SVG Version: 6.00 Build 0)  -->
<svg version="1.1" id="Ebene_1" xmlns="http://www.w3.org/2000/svg" xmlns:xlink="http://www.w3.org/1999/xlink" x="0px" y="0px"
	 viewBox="0 0 48 48" style="enable-background:new 0 0 48 48;" xml:space="preserve">
<style type="text/css">
	
		.st0{fill-rule:evenodd;clip-rule:evenodd;fill:none;stroke:#333333;stroke-width:2;stroke-linecap:round;stroke-linejoin:round;stroke-miterlimit:10;}
	.st1{fill:none;stroke:#333333;stroke-width:2;stroke-linecap:round;stroke-linejoin:round;stroke-miterlimit:10;}
	.st2{fill-rule:evenodd;clip-rule:evenodd;fill:#333333;}
	.st3{fill:#333333;}
	.st4{fill:none;stroke:#C6C6C6;stroke-width:2;stroke-linecap:round;stroke-linejoin:round;stroke-miterlimit:10;}
	
		.st5{fill-rule:evenodd;clip-rule:evenodd;fill:none;stroke:#C6C6C6;stroke-width:2;stroke-linecap:round;stroke-linejoin:round;stroke-miterlimit:10;}
	
		.st6{fill-rule:evenodd;clip-rule:evenodd;fill:#333333;stroke:#333333;stroke-width:2;stroke-linecap:round;stroke-linejoin:round;stroke-miterlimit:10;}
</style>
<g>
	<path class="st3" d="M39,9H9c-2.2,0-4,1.8-4,4v22c0,2.2,1.8,4,4,4h19c0.6,0,1-0.4,1-1s-0.4-1-1-1H9c-0.2,0-0.3,0-0.5-0.1L20,25.4
		l2.6,2.6c0.4,0.4,0.9,0.6,1.4,0.6s1-0.2,1.4-0.6l15.5-15.5c0,0.2,0.1,0.3,0.1,0.5v11c0,0.6,0.4,1,1,1s1-0.4,1-1V13
		C43,10.8,41.2,9,39,9z M7.1,35.5C7,35.3,7,35.2,7,35V13c0-0.2,0-0.3,0.1-0.5L18.6,24L7.1,35.5z M24,26.6L8.5,11.1
		C8.7,11,8.8,11,9,11h30c0.2,0,0.3,0,0.5,0.1L24,26.6z"/>
	<path class="st3" d="M42.7,29.3c-0.4-0.4-1-0.4-1.4,0L38,32.6l-3.3-3.3c-0.4-0.4-1-0.4-1.4,0s-0.4,1,0,1.4l3.3,3.3l-3.3,3.3
		c-0.4,0.4-0.4,1,0,1.4c0.2,0.2,0.5,0.3,0.7,0.3s0.5-0.1,0.7-0.3l3.3-3.3l3.3,3.3c0.2,0.2,0.5,0.3,0.7,0.3s0.5-0.1,0.7-0.3
		c0.4-0.4,0.4-1,0-1.4L39.4,34l3.3-3.3C43.1,30.3,43.1,29.7,42.7,29.3z"/>
</g>
</svg>
