<?xml version="1.0" encoding="utf-8"?>
<!-- Generator: Adobe Illustrator 21.0.0, SVG Export Plug-In . SVG Version: 6.00 Build 0)  -->
<svg version="1.1" id="Ebene_1" xmlns="http://www.w3.org/2000/svg" xmlns:xlink="http://www.w3.org/1999/xlink" x="0px" y="0px"
	 viewBox="0 0 48 48" style="enable-background:new 0 0 48 48;" xml:space="preserve">
<style type="text/css">
	.st0{fill:#333333;}
	
		.st1{fill-rule:evenodd;clip-rule:evenodd;fill:none;stroke:#333333;stroke-width:2;stroke-linecap:round;stroke-linejoin:round;stroke-miterlimit:10;}
	.st2{fill:none;stroke:#333333;stroke-width:2;stroke-linecap:round;stroke-linejoin:round;stroke-miterlimit:10;}
	.st3{fill-rule:evenodd;clip-rule:evenodd;fill:#333333;}
	.st4{fill:none;stroke:#C6C6C6;stroke-width:2;stroke-linecap:round;stroke-linejoin:round;stroke-miterlimit:10;}
	
		.st5{fill-rule:evenodd;clip-rule:evenodd;fill:none;stroke:#C6C6C6;stroke-width:2;stroke-linecap:round;stroke-linejoin:round;stroke-miterlimit:10;}
	.st6{fill:#FC0606;}
</style>
<path class="st0" d="M39.6,12.2l-3.8-3.8c-1.5-1.5-4.1-1.5-5.7,0L6.3,32.3C6.1,32.5,6,32.7,6,33v8c0,0.6,0.4,1,1,1h8
	c0.3,0,0.5-0.1,0.7-0.3l23.9-23.9c0.8-0.8,1.2-1.8,1.2-2.8S40.3,12.9,39.6,12.2z M14.6,40H8v-6.6l18-18l6.6,6.6L14.6,40z M38.2,16.4
	L34,20.6L27.4,14l4.2-4.2c0.8-0.8,2.1-0.8,2.8,0l3.8,3.8c0.4,0.4,0.6,0.9,0.6,1.4S38.5,16,38.2,16.4z"/>
</svg>
