<?xml version="1.0" encoding="utf-8"?>
<!-- Generator: Adobe Illustrator 21.0.0, SVG Export Plug-In . SVG Version: 6.00 Build 0)  -->
<svg version="1.1" id="Ebene_1" xmlns="http://www.w3.org/2000/svg" xmlns:xlink="http://www.w3.org/1999/xlink" x="0px" y="0px"
	 viewBox="0 0 48 48" style="enable-background:new 0 0 48 48;" xml:space="preserve">
<style type="text/css">
	
		.st0{fill-rule:evenodd;clip-rule:evenodd;fill:none;stroke:#333333;stroke-width:2;stroke-linecap:round;stroke-linejoin:round;stroke-miterlimit:10;}
	.st1{fill:none;stroke:#333333;stroke-width:2;stroke-linecap:round;stroke-linejoin:round;stroke-miterlimit:10;}
	.st2{fill-rule:evenodd;clip-rule:evenodd;fill:#333333;}
	.st3{fill:#333333;}
	.st4{fill:none;stroke:#C6C6C6;stroke-width:2;stroke-linecap:round;stroke-linejoin:round;stroke-miterlimit:10;}
	
		.st5{fill-rule:evenodd;clip-rule:evenodd;fill:none;stroke:#C6C6C6;stroke-width:2;stroke-linecap:round;stroke-linejoin:round;stroke-miterlimit:10;}
	
		.st6{fill-rule:evenodd;clip-rule:evenodd;fill:#333333;stroke:#333333;stroke-width:2;stroke-linecap:round;stroke-linejoin:round;stroke-miterlimit:10;}
</style>
<g>
	<path class="st3" d="M24,29c0.6,0,1-0.4,1-1v-1.1v-8V16c0-0.6-0.4-1-1-1s-1,0.4-1,1v2.9v8V28C23,28.6,23.4,29,24,29z"/>
	<path class="st3" d="M24,31c-1.7,0-3,1.3-3,3s1.3,3,3,3s3-1.3,3-3S25.7,31,24,31z M24,35c-0.6,0-1-0.4-1-1s0.4-1,1-1s1,0.4,1,1
		S24.6,35,24,35z"/>
	<path class="st3" d="M45.3,37L27.5,6c-0.7-1.3-2-2-3.5-2s-2.7,0.8-3.5,2L2.7,37c-0.7,1.3-0.7,2.7,0,4c0.7,1.3,2,2,3.5,2h35.6
		c1.4,0,2.7-0.7,3.5-2C46,39.8,46,38.3,45.3,37z M43.5,40c-0.4,0.6-1,1-1.7,1H6.2c-0.7,0-1.4-0.4-1.7-1c-0.4-0.6-0.4-1.4,0-2L22.3,7
		c0.4-0.6,1-1,1.7-1s1.4,0.4,1.7,1l17.8,31C43.9,38.6,43.9,39.4,43.5,40z"/>
</g>
</svg>
