<?xml version="1.0" encoding="utf-8"?>
<!-- Generator: Adobe Illustrator 21.0.0, SVG Export Plug-In . SVG Version: 6.00 Build 0)  -->
<svg version="1.1" id="Ebene_1" xmlns="http://www.w3.org/2000/svg" xmlns:xlink="http://www.w3.org/1999/xlink" x="0px" y="0px"
	 viewBox="0 0 48 48" style="enable-background:new 0 0 48 48;" xml:space="preserve">
<style type="text/css">
	
		.st0{fill-rule:evenodd;clip-rule:evenodd;fill:none;stroke:#333333;stroke-width:2;stroke-linecap:round;stroke-linejoin:round;stroke-miterlimit:10;}
	.st1{fill:none;stroke:#333333;stroke-width:2;stroke-linecap:round;stroke-linejoin:round;stroke-miterlimit:10;}
	.st2{fill-rule:evenodd;clip-rule:evenodd;fill:#333333;}
	.st3{fill:#333333;}
	.st4{fill:none;stroke:#C6C6C6;stroke-width:2;stroke-linecap:round;stroke-linejoin:round;stroke-miterlimit:10;}
	
		.st5{fill-rule:evenodd;clip-rule:evenodd;fill:none;stroke:#C6C6C6;stroke-width:2;stroke-linecap:round;stroke-linejoin:round;stroke-miterlimit:10;}
	
		.st6{fill-rule:evenodd;clip-rule:evenodd;fill:#333333;stroke:#333333;stroke-width:2;stroke-linecap:round;stroke-linejoin:round;stroke-miterlimit:10;}
</style>
<g>
	<path class="st3" d="M39,7H9c-2.2,0-4,1.8-4,4v4c0,1.1,0.9,2,2,2v22c0,1.1,0.9,2,2,2h30c1.1,0,2-0.9,2-2V17c1.1,0,2-0.9,2-2v-4
		C43,8.8,41.2,7,39,7z M39,39H9V17h30V39z M7,15v-4c0-1.1,0.9-2,2-2h30c1.1,0,2,0.9,2,2l0,4H7z"/>
	<path class="st3" d="M20,27h8c1.7,0,3-1.3,3-3s-1.3-3-3-3h-8c-1.7,0-3,1.3-3,3S18.3,27,20,27z M20,23h8c0.6,0,1,0.4,1,1s-0.4,1-1,1
		h-8c-0.6,0-1-0.4-1-1S19.4,23,20,23z"/>
</g>
</svg>
