<svg id="Ebene_1" data-name="Ebene 1" xmlns="http://www.w3.org/2000/svg" viewBox="0 0 48 48"><defs><style>.cls-1{fill:#333;}</style></defs><title>is24_system_48px_email</title><path class="cls-1" d="M39,9H9a4,4,0,0,0-4,4V35a4,4,0,0,0,4,4H39a4,4,0,0,0,4-4V13A4,4,0,0,0,39,9ZM29.41,24,40.93,12.49A2,2,0,0,1,41,13V35a2,2,0,0,1-.07.51ZM39,11a2,2,0,0,1,.51.07L24,26.59,8.49,11.07A2,2,0,0,1,9,11ZM7.07,35.51A2,2,0,0,1,7,35V13a2,2,0,0,1,.07-.51L18.59,24ZM9,37a2,2,0,0,1-.51-.07L20,25.41,22.59,28a2,2,0,0,0,2.83,0L28,25.41,39.51,36.93A2,2,0,0,1,39,37Z"/></svg>