<?xml version="1.0" encoding="utf-8"?>
<!-- Generator: Adobe Illustrator 21.0.0, SVG Export Plug-In . SVG Version: 6.00 Build 0)  -->
<svg version="1.1" id="Ebene_1" xmlns="http://www.w3.org/2000/svg" xmlns:xlink="http://www.w3.org/1999/xlink" x="0px" y="0px"
	 viewBox="0 0 48 48" style="enable-background:new 0 0 48 48;" xml:space="preserve">
<style type="text/css">
	.st0{fill:#333333;}
	
		.st1{fill-rule:evenodd;clip-rule:evenodd;fill:none;stroke:#333333;stroke-width:2;stroke-linecap:round;stroke-linejoin:round;stroke-miterlimit:10;}
	.st2{fill:none;stroke:#333333;stroke-width:2;stroke-linecap:round;stroke-linejoin:round;stroke-miterlimit:10;}
	.st3{fill-rule:evenodd;clip-rule:evenodd;fill:#333333;}
	.st4{fill:none;stroke:#C6C6C6;stroke-width:2;stroke-linecap:round;stroke-linejoin:round;stroke-miterlimit:10;}
	
		.st5{fill-rule:evenodd;clip-rule:evenodd;fill:none;stroke:#C6C6C6;stroke-width:2;stroke-linecap:round;stroke-linejoin:round;stroke-miterlimit:10;}
	.st6{fill:#FC0606;}
</style>
<g>
	<path class="st0" d="M40,11H30V7c0-1.1-0.9-2-2-2h-8c-1.1,0-2,0.9-2,2v4H8c-0.6,0-1,0.4-1,1s0.4,1,1,1h3v26c0,2.2,1.8,4,4,4h18
		c2.2,0,4-1.8,4-4V13h3c0.6,0,1-0.4,1-1S40.6,11,40,11z M20,7h8v4h-8V7z M35,39c0,1.1-0.9,2-2,2H15c-1.1,0-2-0.9-2-2V13h6h10h6V39z"
		/>
	<path class="st0" d="M29,35c0,0.6,0.4,1,1,1s1-0.4,1-1V19c0-0.6-0.4-1-1-1s-1,0.4-1,1V35z"/>
	<path class="st0" d="M24,18c-0.6,0-1,0.4-1,1v16c0,0.6,0.4,1,1,1s1-0.4,1-1V19C25,18.4,24.6,18,24,18z"/>
	<path class="st0" d="M18,18c-0.6,0-1,0.4-1,1v16c0,0.6,0.4,1,1,1s1-0.4,1-1V19C19,18.4,18.6,18,18,18z"/>
</g>
</svg>
