<svg id="Ebene_1" data-name="Ebene 1" xmlns="http://www.w3.org/2000/svg" viewBox="0 0 48 48"><defs><style>.cls-1{fill:#333;}</style></defs><title>is24_system_48px_telephone_option</title><path class="cls-1" d="M33,5H15a4,4,0,0,0-4,4V39a4,4,0,0,0,4,4H33a4,4,0,0,0,4-4V9A4,4,0,0,0,33,5ZM15,7H33a2,2,0,0,1,2,2V31H13V9A2,2,0,0,1,15,7ZM33,41H15a2,2,0,0,1-2-2V33H35v6A2,2,0,0,1,33,41Z"/><path class="cls-1" d="M24,34a3,3,0,1,0,3,3A3,3,0,0,0,24,34Zm0,4a1,1,0,1,1,1-1A1,1,0,0,1,24,38Z"/><path class="cls-1" d="M23,11h2a1,1,0,0,0,0-2H23a1,1,0,0,0,0,2Z"/></svg>