<?xml version="1.0" encoding="utf-8"?>
<!-- Generator: Adobe Illustrator 21.0.0, SVG Export Plug-In . SVG Version: 6.00 Build 0)  -->
<svg version="1.1" id="Ebene_1" xmlns="http://www.w3.org/2000/svg" xmlns:xlink="http://www.w3.org/1999/xlink" x="0px" y="0px"
	 viewBox="0 0 48 48" style="enable-background:new 0 0 48 48;" xml:space="preserve">
<style type="text/css">
	
		.st0{fill-rule:evenodd;clip-rule:evenodd;fill:none;stroke:#333333;stroke-width:2;stroke-linecap:round;stroke-linejoin:round;stroke-miterlimit:10;}
	.st1{fill:none;stroke:#333333;stroke-width:2;stroke-linecap:round;stroke-linejoin:round;stroke-miterlimit:10;}
	.st2{fill-rule:evenodd;clip-rule:evenodd;fill:#333333;}
	.st3{fill:#333333;}
	.st4{fill:none;stroke:#C6C6C6;stroke-width:2;stroke-linecap:round;stroke-linejoin:round;stroke-miterlimit:10;}
	
		.st5{fill-rule:evenodd;clip-rule:evenodd;fill:none;stroke:#C6C6C6;stroke-width:2;stroke-linecap:round;stroke-linejoin:round;stroke-miterlimit:10;}
	
		.st6{fill-rule:evenodd;clip-rule:evenodd;fill:#333333;stroke:#333333;stroke-width:2;stroke-linecap:round;stroke-linejoin:round;stroke-miterlimit:10;}
</style>
<g>
	<path class="st3" d="M35,20h-2v-5c0-5-4-9-9-9s-9,4-9,9c0,0.6,0.4,1,1,1s1-0.4,1-1c0-3.9,3.1-7,7-7s7,3.1,7,7v5H13
		c-2.2,0-4,1.8-4,4v14c0,2.2,1.8,4,4,4h22c2.2,0,4-1.8,4-4V24C39,21.8,37.2,20,35,20z M37,38c0,1.1-0.9,2-2,2H13c-1.1,0-2-0.9-2-2
		V24c0-1.1,0.9-2,2-2h22c1.1,0,2,0.9,2,2V38z"/>
	<path class="st3" d="M24,26c-1.7,0-3,1.3-3,3c0,1.3,0.8,2.4,2,2.8V35c0,0.6,0.4,1,1,1s1-0.4,1-1v-3.2c1.2-0.4,2-1.5,2-2.8
		C27,27.3,25.7,26,24,26z M24,30c-0.6,0-1-0.4-1-1s0.4-1,1-1s1,0.4,1,1S24.6,30,24,30z"/>
</g>
</svg>
