<?xml version="1.0" encoding="utf-8"?>
<!-- Generator: Adobe Illustrator 21.0.0, SVG Export Plug-In . SVG Version: 6.00 Build 0)  -->
<svg version="1.1" id="Ebene_1" xmlns="http://www.w3.org/2000/svg" xmlns:xlink="http://www.w3.org/1999/xlink" x="0px" y="0px"
	 viewBox="0 0 48 48" style="enable-background:new 0 0 48 48;" xml:space="preserve">
<style type="text/css">
	
		.st0{fill-rule:evenodd;clip-rule:evenodd;fill:none;stroke:#333333;stroke-width:2;stroke-linecap:round;stroke-linejoin:round;stroke-miterlimit:10;}
	.st1{fill:none;stroke:#333333;stroke-width:2;stroke-linecap:round;stroke-linejoin:round;stroke-miterlimit:10;}
	.st2{fill-rule:evenodd;clip-rule:evenodd;fill:#333333;}
	.st3{fill:#333333;}
	.st4{fill:none;stroke:#C6C6C6;stroke-width:2;stroke-linecap:round;stroke-linejoin:round;stroke-miterlimit:10;}
	
		.st5{fill-rule:evenodd;clip-rule:evenodd;fill:none;stroke:#C6C6C6;stroke-width:2;stroke-linecap:round;stroke-linejoin:round;stroke-miterlimit:10;}
	
		.st6{fill-rule:evenodd;clip-rule:evenodd;fill:#333333;stroke:#333333;stroke-width:2;stroke-linecap:round;stroke-linejoin:round;stroke-miterlimit:10;}
</style>
<path class="st2" d="M42.9,23.6c-0.2-0.4-2.5-5.8-7.2-9.9l5-5c0.4-0.4,0.4-1,0-1.4s-1-0.4-1.4,0l-5.2,5.2C31.4,10.5,28,9,24,9
	C11.5,9,5.3,23,5.1,23.6c-0.1,0.3-0.1,0.5,0,0.8c0.2,0.4,2.5,5.8,7.2,9.9l-5,5c-0.4,0.4-0.4,1,0,1.4C7.5,40.9,7.7,41,8,41
	s0.5-0.1,0.7-0.3l5.2-5.2C16.6,37.5,20,39,24,39c12.5,0,18.7-14,18.9-14.6C43,24.1,43,23.9,42.9,23.6z M20.4,27.5
	C19.5,26.6,19,25.3,19,24c0-2.8,2.2-5,5-5c1.3,0,2.6,0.5,3.5,1.4c1,0.9,1.5,2.2,1.5,3.6c0,2.8-2.2,5-5,5
	C22.6,29,21.4,28.5,20.4,27.5z M24,37c-3.4,0-6.3-1.2-8.7-2.9l4.5-4.5C21,30.5,22.5,31,24,31c3.9,0,7-3.1,7-7c0-1.5-0.5-3-1.4-4.2
	l4.7-4.7c3.8,3.3,6,7.5,6.6,8.8C39.8,26.2,34.1,37,24,37z"/>
</svg>
