<?xml version="1.0" encoding="utf-8"?>
<!-- Generator: Adobe Illustrator 21.0.0, SVG Export Plug-In . SVG Version: 6.00 Build 0)  -->
<svg version="1.1" id="Ebene_1" xmlns="http://www.w3.org/2000/svg" xmlns:xlink="http://www.w3.org/1999/xlink" x="0px" y="0px"
	 viewBox="0 0 48 48" style="enable-background:new 0 0 48 48;" xml:space="preserve">
<style type="text/css">
	
		.st0{fill-rule:evenodd;clip-rule:evenodd;fill:none;stroke:#333333;stroke-width:2;stroke-linecap:round;stroke-linejoin:round;stroke-miterlimit:10;}
	.st1{fill:none;stroke:#333333;stroke-width:2;stroke-linecap:round;stroke-linejoin:round;stroke-miterlimit:10;}
	.st2{fill-rule:evenodd;clip-rule:evenodd;fill:#333333;}
	.st3{fill:#333333;}
	.st4{fill:none;stroke:#C6C6C6;stroke-width:2;stroke-linecap:round;stroke-linejoin:round;stroke-miterlimit:10;}
	
		.st5{fill-rule:evenodd;clip-rule:evenodd;fill:none;stroke:#C6C6C6;stroke-width:2;stroke-linecap:round;stroke-linejoin:round;stroke-miterlimit:10;}
	
		.st6{fill-rule:evenodd;clip-rule:evenodd;fill:#333333;stroke:#333333;stroke-width:2;stroke-linecap:round;stroke-linejoin:round;stroke-miterlimit:10;}
</style>
<path class="st3" d="M34.3,19.5c1.7-1.3,2.7-3.3,2.7-5.5c0-3.9-3.1-7-7-7c-2.5,0-4.8,1.4-6,3.4c-1.2-2-3.5-3.4-6-3.4
	c-3.9,0-7,3.1-7,7c0,2.3,1.1,4.3,2.7,5.5C8.5,20.9,5,24.9,5,30c0,0.6,0.4,1,1,1s1-0.4,1-1c0-5,4.1-8.6,10.1-9c0,0.3-0.1,0.6-0.1,1
	c0,2.3,1.1,4.3,2.8,5.6C14.5,29.2,11,33.9,11,40c0,0.6,0.4,1,1,1s1-0.4,1-1c0-6.5,4.5-11,11-11s11,4.5,11,11c0,0.6,0.4,1,1,1
	s1-0.4,1-1c0-6.1-3.5-10.8-8.8-12.4c1.7-1.3,2.8-3.3,2.8-5.6c0-0.3,0-0.6-0.1-1c6,0.3,10.1,3.9,10.1,9c0,0.6,0.4,1,1,1s1-0.4,1-1
	C43,24.9,39.5,20.9,34.3,19.5z M30,9c2.8,0,5,2.2,5,5c0,2.7-2.1,4.8-4.7,5c-1-2-2.9-3.5-5.2-3.9C25.1,14.7,25,14.4,25,14
	C25,11.2,27.2,9,30,9z M13,14c0-2.8,2.2-5,5-5s5,2.2,5,5c0,0.4-0.1,0.7-0.1,1.1c-2.3,0.4-4.2,1.9-5.2,3.9C15.1,18.8,13,16.7,13,14z
	 M24,27c-2.8,0-5-2.2-5-5s2.2-5,5-5s5,2.2,5,5S26.8,27,24,27z"/>
</svg>
