<?xml version="1.0" encoding="utf-8"?>
<!-- Generator: Adobe Illustrator 21.0.0, SVG Export Plug-In . SVG Version: 6.00 Build 0)  -->
<svg version="1.1" id="Ebene_1" xmlns="http://www.w3.org/2000/svg" xmlns:xlink="http://www.w3.org/1999/xlink" x="0px" y="0px"
	 viewBox="0 0 48 48" style="enable-background:new 0 0 48 48;" xml:space="preserve">
<style type="text/css">
	
		.st0{fill-rule:evenodd;clip-rule:evenodd;fill:none;stroke:#333333;stroke-width:2;stroke-linecap:round;stroke-linejoin:round;stroke-miterlimit:10;}
	.st1{fill:none;stroke:#333333;stroke-width:2;stroke-linecap:round;stroke-linejoin:round;stroke-miterlimit:10;}
	.st2{fill-rule:evenodd;clip-rule:evenodd;fill:#333333;}
	.st3{fill:#333333;}
	.st4{fill:none;stroke:#C6C6C6;stroke-width:2;stroke-linecap:round;stroke-linejoin:round;stroke-miterlimit:10;}
	
		.st5{fill-rule:evenodd;clip-rule:evenodd;fill:none;stroke:#C6C6C6;stroke-width:2;stroke-linecap:round;stroke-linejoin:round;stroke-miterlimit:10;}
	
		.st6{fill-rule:evenodd;clip-rule:evenodd;fill:#333333;stroke:#333333;stroke-width:2;stroke-linecap:round;stroke-linejoin:round;stroke-miterlimit:10;}
</style>
<g>
	<path class="st3" d="M41.8,14.4l-8.2-8.2C32.8,5.4,31.8,5,30.8,5H17.2c-1.1,0-2.1,0.4-2.8,1.2l-8.2,8.2C5.4,15.2,5,16.2,5,17.2
		v13.5c0,1.1,0.4,2.1,1.2,2.8l8.2,8.2c0.7,0.7,1.8,1.2,2.8,1.2h13.5c1.1,0,2.1-0.4,2.8-1.2l8.2-8.2c0.8-0.8,1.2-1.8,1.2-2.8V17.2
		C43,16.2,42.6,15.2,41.8,14.4z M41,30.8c0,0.5-0.2,1-0.6,1.4l-8.2,8.2c-0.4,0.4-0.9,0.6-1.4,0.6H17.2c-0.5,0-1-0.2-1.4-0.6
		l-8.2-8.2C7.2,31.8,7,31.3,7,30.8V17.2c0-0.5,0.2-1,0.6-1.4l8.2-8.2C16.2,7.2,16.7,7,17.2,7h13.5c0.5,0,1,0.2,1.4,0.6l8.2,8.2
		c0.4,0.4,0.6,0.9,0.6,1.4V30.8z"/>
	<path class="st3" d="M31.7,16.3c-0.4-0.4-1-0.4-1.4,0L24,22.6l-6.3-6.3c-0.4-0.4-1-0.4-1.4,0s-0.4,1,0,1.4l6.3,6.3l-6.3,6.3
		c-0.4,0.4-0.4,1,0,1.4c0.2,0.2,0.5,0.3,0.7,0.3s0.5-0.1,0.7-0.3l6.3-6.3l6.3,6.3c0.2,0.2,0.5,0.3,0.7,0.3s0.5-0.1,0.7-0.3
		c0.4-0.4,0.4-1,0-1.4L25.4,24l6.3-6.3C32.1,17.3,32.1,16.7,31.7,16.3z"/>
</g>
</svg>
