<?xml version="1.0" encoding="utf-8"?>
<!-- Generator: Adobe Illustrator 21.0.0, SVG Export Plug-In . SVG Version: 6.00 Build 0)  -->
<svg version="1.1" id="Ebene_1" xmlns="http://www.w3.org/2000/svg" xmlns:xlink="http://www.w3.org/1999/xlink" x="0px" y="0px"
	 viewBox="0 0 48 48" style="enable-background:new 0 0 48 48;" xml:space="preserve">
<style type="text/css">
	
		.st0{fill-rule:evenodd;clip-rule:evenodd;fill:none;stroke:#333333;stroke-width:2;stroke-linecap:round;stroke-linejoin:round;stroke-miterlimit:10;}
	.st1{fill:none;stroke:#333333;stroke-width:2;stroke-linecap:round;stroke-linejoin:round;stroke-miterlimit:10;}
	.st2{fill-rule:evenodd;clip-rule:evenodd;fill:#333333;}
	.st3{fill:#333333;}
	.st4{fill:none;stroke:#C6C6C6;stroke-width:2;stroke-linecap:round;stroke-linejoin:round;stroke-miterlimit:10;}
	
		.st5{fill-rule:evenodd;clip-rule:evenodd;fill:none;stroke:#C6C6C6;stroke-width:2;stroke-linecap:round;stroke-linejoin:round;stroke-miterlimit:10;}
	
		.st6{fill-rule:evenodd;clip-rule:evenodd;fill:#333333;stroke:#333333;stroke-width:2;stroke-linecap:round;stroke-linejoin:round;stroke-miterlimit:10;}
</style>
<g>
	<path class="st3" d="M39,17h-3V6c0-0.6-0.4-1-1-1H13c-0.6,0-1,0.4-1,1v11H9c-2.2,0-4,1.8-4,4v14c0,1.1,0.9,2,2,2h5v5
		c0,0.6,0.4,1,1,1h22c0.6,0,1-0.4,1-1v-5h5c1.1,0,2-0.9,2-2V21C43,18.8,41.2,17,39,17z M14,7h20v10H14V7z M34,41H14V31h20V41z
		 M41,35h-5v-5c0-0.6-0.4-1-1-1H13c-0.6,0-1,0.4-1,1v5H7V21c0-1.1,0.9-2,2-2h30c1.1,0,2,0.9,2,2V35z"/>
	<path class="st3" d="M35,23h-2c-0.6,0-1,0.4-1,1s0.4,1,1,1h2c0.6,0,1-0.4,1-1S35.6,23,35,23z"/>
</g>
</svg>
