<svg id="Ebene_1" data-name="Ebene 1" xmlns="http://www.w3.org/2000/svg" viewBox="0 0 48 48"><defs><style>.cls-1{fill:#333;}</style></defs><title>is24_system_48px_message_sent</title><path class="cls-1" d="M39,9H2a1,1,0,0,0,0,2H39a2,2,0,0,1,.51.07L24,26.59l-5-5A2,2,0,0,0,17.59,21H6a1,1,0,0,0,0,2H17.59l1,1L7.07,35.51A2,2,0,0,1,7,35V28a1,1,0,0,0-2,0v7a4,4,0,0,0,4,4H39a4,4,0,0,0,4-4V13A4,4,0,0,0,39,9ZM29.41,24,40.93,12.49A2,2,0,0,1,41,13V35a2,2,0,0,1-.07.51ZM9,37a2,2,0,0,1-.51-.07L20,25.41,22.59,28a2,2,0,0,0,2.83,0L28,25.41,39.51,36.93A2,2,0,0,1,39,37Z"/><path class="cls-1" d="M14,16a1,1,0,0,0-1-1H4a1,1,0,0,0,0,2h9A1,1,0,0,0,14,16Z"/></svg>