<?xml version="1.0" encoding="utf-8"?>
<!-- Generator: Adobe Illustrator 21.0.0, SVG Export Plug-In . SVG Version: 6.00 Build 0)  -->
<svg version="1.1" id="Ebene_1" xmlns="http://www.w3.org/2000/svg" xmlns:xlink="http://www.w3.org/1999/xlink" x="0px" y="0px"
	 viewBox="0 0 48 48" style="enable-background:new 0 0 48 48;" xml:space="preserve">
<style type="text/css">
	
		.st0{fill-rule:evenodd;clip-rule:evenodd;fill:none;stroke:#333333;stroke-width:2;stroke-linecap:round;stroke-linejoin:round;stroke-miterlimit:10;}
	.st1{fill:none;stroke:#333333;stroke-width:2;stroke-linecap:round;stroke-linejoin:round;stroke-miterlimit:10;}
	.st2{fill-rule:evenodd;clip-rule:evenodd;fill:#333333;}
	.st3{fill:#333333;}
	.st4{fill:none;stroke:#C6C6C6;stroke-width:2;stroke-linecap:round;stroke-linejoin:round;stroke-miterlimit:10;}
	
		.st5{fill-rule:evenodd;clip-rule:evenodd;fill:none;stroke:#C6C6C6;stroke-width:2;stroke-linecap:round;stroke-linejoin:round;stroke-miterlimit:10;}
	
		.st6{fill-rule:evenodd;clip-rule:evenodd;fill:#333333;stroke:#333333;stroke-width:2;stroke-linecap:round;stroke-linejoin:round;stroke-miterlimit:10;}
</style>
<g>
	<path class="st3" d="M39,9c-7.6-0.2-12.7-2.8-14-3.6c-0.6-0.3-1.4-0.3-2,0C21.6,6.2,16.6,8.8,9,9h0c-1.1,0-2,0.9-2,2v13
		c0,16.7,16.7,19,16.9,19c0,0,0.1,0,0.1,0s0.1,0,0.1,0C24.3,43,41,40.7,41,24V11C41,9.9,40.1,9,39,9z M39,24c0,14.4-13.4,16.8-15,17
		c-1.6-0.2-15-2.6-15-17l0-13c0,0,0,0,0,0h0c8.1-0.2,13.5-3,15-3.8c1.5,0.8,6.9,3.6,15,3.8V24z"/>
	<path class="st3" d="M23,14v12c0,0.6,0.4,1,1,1s1-0.4,1-1V14c0-0.6-0.4-1-1-1S23,13.4,23,14z"/>
	<path class="st3" d="M21,32c0,1.7,1.3,3,3,3s3-1.3,3-3s-1.3-3-3-3S21,30.3,21,32z M25,32c0,0.6-0.4,1-1,1s-1-0.4-1-1s0.4-1,1-1
		S25,31.4,25,32z"/>
</g>
</svg>
