<?xml version="1.0" encoding="utf-8"?>
<!-- Generator: Adobe Illustrator 21.0.0, SVG Export Plug-In . SVG Version: 6.00 Build 0)  -->
<svg version="1.1" id="Ebene_1" xmlns="http://www.w3.org/2000/svg" xmlns:xlink="http://www.w3.org/1999/xlink" x="0px" y="0px"
	 viewBox="0 0 48 48" style="enable-background:new 0 0 48 48;" xml:space="preserve">
<style type="text/css">
	
		.st0{fill-rule:evenodd;clip-rule:evenodd;fill:none;stroke:#333333;stroke-width:2;stroke-linecap:round;stroke-linejoin:round;stroke-miterlimit:10;}
	.st1{fill:none;stroke:#333333;stroke-width:2;stroke-linecap:round;stroke-linejoin:round;stroke-miterlimit:10;}
	.st2{fill-rule:evenodd;clip-rule:evenodd;fill:#333333;}
	.st3{fill:#333333;}
	.st4{fill:none;stroke:#C6C6C6;stroke-width:2;stroke-linecap:round;stroke-linejoin:round;stroke-miterlimit:10;}
	
		.st5{fill-rule:evenodd;clip-rule:evenodd;fill:none;stroke:#C6C6C6;stroke-width:2;stroke-linecap:round;stroke-linejoin:round;stroke-miterlimit:10;}
	
		.st6{fill-rule:evenodd;clip-rule:evenodd;fill:#333333;stroke:#333333;stroke-width:2;stroke-linecap:round;stroke-linejoin:round;stroke-miterlimit:10;}
</style>
<g>
	<path class="st3" d="M42.9,23.6C42.7,23,36.5,9,24,9S5.3,23,5.1,23.6c-0.1,0.3-0.1,0.5,0,0.8C5.3,25,11.5,39,24,39
		s18.7-14,18.9-14.6C43,24.1,43,23.9,42.9,23.6z M24,37C13.9,37,8.2,26.2,7.1,24c1.1-2.2,6.8-13,16.9-13c10.1,0,15.8,10.8,16.9,13
		C39.8,26.2,34.1,37,24,37z"/>
	<path class="st3" d="M24,17c-3.9,0-7,3.1-7,7s3.1,7,7,7s7-3.1,7-7S27.9,17,24,17z M24,29c-2.8,0-5-2.2-5-5s2.2-5,5-5s5,2.2,5,5
		S26.8,29,24,29z"/>
</g>
</svg>
