<svg enable-background="new 0 0 48 48" viewBox="0 0 48 48" xmlns="http://www.w3.org/2000/svg"><path d="m24 40.6c-.5 0-1-.2-1.4-.6l-14.5-14.5c-1-1-1.7-2-2.1-3-.9-2-1.2-4.3-.8-6.5.8-4.3 4.1-7.9 8.4-8.8 3.9-.8 7.8.4 10.4 3.2 2.7-2.8 7.1-4.5 11.9-2.7 3.5 1.3 6.2 4.4 6.9 8.1.4 2 .2 3.9-.4 5.8-.5 1.4-1.4 2.8-2.6 4l-14.4 14.4c-.4.4-.9.6-1.4.6zm-8-31.6c-.6 0-1.3.1-2 .2-3.5.7-6.3 3.6-6.9 7.2-.3 1.8-.1 3.6.7 5.3.4.8.9 1.6 1.7 2.4l14.5 14.5 14.4-14.4c1-1 1.7-2.1 2.1-3.3.5-1.5.6-3.1.3-4.7-.6-3-2.7-5.5-5.6-6.6-4.3-1.6-8.4.3-10.4 3-.2.3-.5.4-.8.4-.3 0-.6-.1-.8-.4l-.1-.1c-1.7-2.2-4.3-3.5-7.1-3.5z" fill="#333"/></svg>