<?xml version="1.0" encoding="utf-8"?>
<!-- Generator: Adobe Illustrator 21.0.0, SVG Export Plug-In . SVG Version: 6.00 Build 0)  -->
<svg version="1.1" id="Ebene_1" xmlns="http://www.w3.org/2000/svg" xmlns:xlink="http://www.w3.org/1999/xlink" x="0px" y="0px"
	 viewBox="0 0 48 48" style="enable-background:new 0 0 48 48;" xml:space="preserve">
<style type="text/css">
	.st0{fill:#333333;}
	
		.st1{fill-rule:evenodd;clip-rule:evenodd;fill:none;stroke:#333333;stroke-width:2;stroke-linecap:round;stroke-linejoin:round;stroke-miterlimit:10;}
	.st2{fill:none;stroke:#333333;stroke-width:2;stroke-linecap:round;stroke-linejoin:round;stroke-miterlimit:10;}
	.st3{fill-rule:evenodd;clip-rule:evenodd;fill:#333333;}
	.st4{fill:none;stroke:#C6C6C6;stroke-width:2;stroke-linecap:round;stroke-linejoin:round;stroke-miterlimit:10;}
	
		.st5{fill-rule:evenodd;clip-rule:evenodd;fill:none;stroke:#C6C6C6;stroke-width:2;stroke-linecap:round;stroke-linejoin:round;stroke-miterlimit:10;}
	.st6{fill:#FC0606;}
</style>
<g>
	<path class="st0" d="M13.7,19.7L24,9.4l10.3,10.3c0.2,0.2,0.5,0.3,0.7,0.3s0.5-0.1,0.7-0.3c0.4-0.4,0.4-1,0-1.4L25.4,8
		c-0.8-0.8-2-0.8-2.8,0L12.3,18.3c-0.4,0.4-0.4,1,0,1.4S13.3,20.1,13.7,19.7z"/>
	<path class="st0" d="M34.3,28.3L24,38.6L13.7,28.3c-0.4-0.4-1-0.4-1.4,0s-0.4,1,0,1.4L22.6,40c0.4,0.4,0.9,0.6,1.4,0.6
		s1-0.2,1.4-0.6l10.3-10.3c0.4-0.4,0.4-1,0-1.4S34.7,27.9,34.3,28.3z"/>
</g>
</svg>
