<?xml version="1.0" encoding="utf-8"?>
<!-- Generator: Adobe Illustrator 21.0.0, SVG Export Plug-In . SVG Version: 6.00 Build 0)  -->
<svg version="1.1" id="Ebene_1" xmlns="http://www.w3.org/2000/svg" xmlns:xlink="http://www.w3.org/1999/xlink" x="0px" y="0px"
	 viewBox="0 0 48 48" style="enable-background:new 0 0 48 48;" xml:space="preserve">
<style type="text/css">
	
		.st0{fill-rule:evenodd;clip-rule:evenodd;fill:none;stroke:#333333;stroke-width:2;stroke-linecap:round;stroke-linejoin:round;stroke-miterlimit:10;}
	.st1{fill:none;stroke:#333333;stroke-width:2;stroke-linecap:round;stroke-linejoin:round;stroke-miterlimit:10;}
	.st2{fill-rule:evenodd;clip-rule:evenodd;fill:#333333;}
	.st3{fill:#333333;}
	.st4{fill:none;stroke:#C6C6C6;stroke-width:2;stroke-linecap:round;stroke-linejoin:round;stroke-miterlimit:10;}
	
		.st5{fill-rule:evenodd;clip-rule:evenodd;fill:none;stroke:#C6C6C6;stroke-width:2;stroke-linecap:round;stroke-linejoin:round;stroke-miterlimit:10;}
	
		.st6{fill-rule:evenodd;clip-rule:evenodd;fill:#333333;stroke:#333333;stroke-width:2;stroke-linecap:round;stroke-linejoin:round;stroke-miterlimit:10;}
</style>
<g>
	<path class="st3" d="M42,41H12c-2.8,0-5-2.2-5-5c0-0.6-0.4-1-1-1s-1,0.4-1,1c0,3.9,3.1,7,7,7h30c0.6,0,1-0.4,1-1S42.6,41,42,41z"/>
	<path class="st3" d="M12,37h8c0.3,0,0.5-0.1,0.7-0.3l20.9-20.9c1.6-1.6,1.6-4.1,0-5.7l-3.8-3.8c-1.5-1.5-4.1-1.5-5.7,0L11.3,27.3
		C11.1,27.5,11,27.7,11,28v8C11,36.6,11.4,37,12,37z M33.6,7.8c0.8-0.8,2.1-0.8,2.8,0l3.8,3.8c0.8,0.8,0.8,2,0,2.8L36,18.6L29.4,12
		L33.6,7.8z M13,28.4l15-15l6.6,6.6l-15,15H13V28.4z"/>
</g>
</svg>
