<svg id="Ebene_1" data-name="Ebene 1" xmlns="http://www.w3.org/2000/svg" viewBox="0 0 48 48"><defs><style>.cls-1{fill:#333;}</style></defs><title>181230_icons_lisa_48px</title><path class="cls-1" d="M44.28,18.28A2,2,0,0,0,42.42,17L30.68,17l-4.82-12a2,2,0,0,0-3.71,0L17.32,17,5.58,17a2,2,0,0,0-1.34,3.48l8.65,7.84L9.68,42a2,2,0,0,0,.87,2.14A2,2,0,0,0,12.87,44L24,35.25,35.13,44a2,2,0,0,0,3.18-2L35.11,28.32l8.65-7.84A2,2,0,0,0,44.28,18.28Zm-11,9a1,1,0,0,0-.3,1l3.35,14.24L24.62,33.19a1,1,0,0,0-1.24,0L11.63,42.45,15,28.2a1,1,0,0,0-.3-1L5.59,19,18,19a1,1,0,0,0,.93-.63L24,5.69l5.07,12.66A1,1,0,0,0,30,19l12.42,0Z"/></svg>