<?xml version="1.0" encoding="utf-8"?>
<!-- Generator: Adobe Illustrator 21.0.0, SVG Export Plug-In . SVG Version: 6.00 Build 0)  -->
<svg version="1.1" id="Ebene_1" xmlns="http://www.w3.org/2000/svg" xmlns:xlink="http://www.w3.org/1999/xlink" x="0px" y="0px"
	 viewBox="0 0 48 48" style="enable-background:new 0 0 48 48;" xml:space="preserve">
<style type="text/css">
	
		.st0{fill-rule:evenodd;clip-rule:evenodd;fill:none;stroke:#333333;stroke-width:2;stroke-linecap:round;stroke-linejoin:round;stroke-miterlimit:10;}
	.st1{fill:none;stroke:#333333;stroke-width:2;stroke-linecap:round;stroke-linejoin:round;stroke-miterlimit:10;}
	.st2{fill-rule:evenodd;clip-rule:evenodd;fill:#333333;}
	.st3{fill:#333333;}
	.st4{fill:none;stroke:#C6C6C6;stroke-width:2;stroke-linecap:round;stroke-linejoin:round;stroke-miterlimit:10;}
	
		.st5{fill-rule:evenodd;clip-rule:evenodd;fill:none;stroke:#C6C6C6;stroke-width:2;stroke-linecap:round;stroke-linejoin:round;stroke-miterlimit:10;}
	
		.st6{fill-rule:evenodd;clip-rule:evenodd;fill:#333333;stroke:#333333;stroke-width:2;stroke-linecap:round;stroke-linejoin:round;stroke-miterlimit:10;}
</style>
<g>
	<path class="st3" d="M43.7,27.3c-0.4-0.4-1-0.4-1.4,0L31,38.6l-5.3-5.3c-0.4-0.4-1-0.4-1.4,0s-0.4,1,0,1.4l6,6
		c0.2,0.2,0.5,0.3,0.7,0.3s0.5-0.1,0.7-0.3l12-12C44.1,28.3,44.1,27.7,43.7,27.3z"/>
	<path class="st3" d="M24,39H10c-0.5,0-1-0.2-1.4-0.6C8.2,38,8,37.5,8,37l0-18h32l0,5c0,0.6,0.4,1,1,1c0.6,0,1-0.4,1-1l0-11
		c0-1.1-0.4-2.1-1.2-2.8C40.1,9.4,39.1,9,38,9h-5V7c0-0.6-0.4-1-1-1s-1,0.4-1,1v2H17V7c0-0.6-0.4-1-1-1s-1,0.4-1,1v2h-5
		c-1.1,0-2.1,0.4-2.8,1.2C6.4,10.9,6,11.9,6,13l0,24c0,1.1,0.4,2.1,1.2,2.8C7.9,40.6,8.9,41,10,41h14c0.6,0,1-0.4,1-1S24.6,39,24,39
		z M8.6,11.6C9,11.2,9.5,11,10,11h5v2c0,0.6,0.4,1,1,1s1-0.4,1-1v-2h14v2c0,0.6,0.4,1,1,1s1-0.4,1-1v-2h5c0.5,0,1,0.2,1.4,0.6
		C39.8,12,40,12.5,40,13l0,4H8l0-4C8,12.5,8.2,12,8.6,11.6z"/>
</g>
</svg>
