<?xml version="1.0" encoding="utf-8"?>
<!-- Generator: Adobe Illustrator 21.0.0, SVG Export Plug-In . SVG Version: 6.00 Build 0)  -->
<svg version="1.1" id="Ebene_1" xmlns="http://www.w3.org/2000/svg" xmlns:xlink="http://www.w3.org/1999/xlink" x="0px" y="0px"
	 viewBox="0 0 48 48" style="enable-background:new 0 0 48 48;" xml:space="preserve">
<style type="text/css">
	
		.st0{fill-rule:evenodd;clip-rule:evenodd;fill:none;stroke:#333333;stroke-width:2;stroke-linecap:round;stroke-linejoin:round;stroke-miterlimit:10;}
	.st1{fill:none;stroke:#333333;stroke-width:2;stroke-linecap:round;stroke-linejoin:round;stroke-miterlimit:10;}
	.st2{fill-rule:evenodd;clip-rule:evenodd;fill:#333333;}
	.st3{fill:#333333;}
	.st4{fill:none;stroke:#C6C6C6;stroke-width:2;stroke-linecap:round;stroke-linejoin:round;stroke-miterlimit:10;}
	
		.st5{fill-rule:evenodd;clip-rule:evenodd;fill:none;stroke:#C6C6C6;stroke-width:2;stroke-linecap:round;stroke-linejoin:round;stroke-miterlimit:10;}
	
		.st6{fill-rule:evenodd;clip-rule:evenodd;fill:#333333;stroke:#333333;stroke-width:2;stroke-linecap:round;stroke-linejoin:round;stroke-miterlimit:10;}
</style>
<path class="st3" d="M41,34h-4V23c0-6.8-5.3-12.4-12-12.9c0,0,0,0,0-0.1V6c0-0.6-0.4-1-1-1s-1,0.4-1,1v4c0,0,0,0,0,0.1
	c-6.7,0.5-12,6.1-12,12.9v11H7c-0.6,0-1,0.4-1,1s0.4,1,1,1h5h7v2c0,2.8,2.2,5,5,5s5-2.2,5-5v-2h7h5c0.6,0,1-0.4,1-1S41.6,34,41,34z
	 M27,38c0,1.7-1.3,3-3,3s-3-1.3-3-3v-2h6V38z M13,34V23c0-6.1,4.9-11,11-11s11,4.9,11,11v11H13z"/>
</svg>
