<?xml version="1.0" encoding="utf-8"?>
<!-- Generator: Adobe Illustrator 21.0.0, SVG Export Plug-In . SVG Version: 6.00 Build 0)  -->
<svg version="1.1" id="Ebene_1" xmlns="http://www.w3.org/2000/svg" xmlns:xlink="http://www.w3.org/1999/xlink" x="0px" y="0px"
	 viewBox="0 0 48 48" style="enable-background:new 0 0 48 48;" xml:space="preserve">
<style type="text/css">
	
		.st0{fill-rule:evenodd;clip-rule:evenodd;fill:none;stroke:#333333;stroke-width:2;stroke-linecap:round;stroke-linejoin:round;stroke-miterlimit:10;}
	.st1{fill:none;stroke:#333333;stroke-width:2;stroke-linecap:round;stroke-linejoin:round;stroke-miterlimit:10;}
	.st2{fill-rule:evenodd;clip-rule:evenodd;fill:#333333;}
	.st3{fill:#333333;}
	.st4{fill:none;stroke:#C6C6C6;stroke-width:2;stroke-linecap:round;stroke-linejoin:round;stroke-miterlimit:10;}
	
		.st5{fill-rule:evenodd;clip-rule:evenodd;fill:none;stroke:#C6C6C6;stroke-width:2;stroke-linecap:round;stroke-linejoin:round;stroke-miterlimit:10;}
	
		.st6{fill-rule:evenodd;clip-rule:evenodd;fill:#333333;stroke:#333333;stroke-width:2;stroke-linecap:round;stroke-linejoin:round;stroke-miterlimit:10;}
</style>
<g>
	<path class="st3" d="M41,15H25.6l-2.5-4.9c-0.3-0.7-1-1.1-1.8-1.1H7c-1.1,0-2,0.9-2,2v24c0,2.2,1.8,4,4,4h30c2.2,0,4-1.8,4-4V17
		C43,15.9,42.1,15,41,15z M41,35c0,1.1-0.9,2-2,2H9c-1.1,0-2-0.9-2-2V11h14.3l2.5,4.9c0.3,0.7,1,1.1,1.8,1.1H41V35z"/>
	<path class="st3" d="M28,11h11c0.6,0,1-0.4,1-1s-0.4-1-1-1H28c-0.6,0-1,0.4-1,1S27.4,11,28,11z"/>
</g>
</svg>
